<svg width="480" height="300" fill="none" xmlns="http://www.w3.org/2000/svg"><g clip-path="url('#clip0_152_393')"><path fill="#000" d="M0 0h480v300H0z"/><g clip-path="url('#clip1_152_393')"><path d="M481 .337 453.528 55l-20.424-32.118L460.58-31.78 481 .337Z" fill="url('#paint0_linear_152_393')"/><path d="m460.579-31.78-27.475 54.662L377 6.662 404.472-48l56.107 16.22Z" fill="url('#paint1_linear_152_393')"/><path d="m377 6.663 56.104 16.22L453.528 55l-56.111-16.215L377 6.663Z" fill="url('#paint2_linear_152_393')"/></g><g clip-path="url('#clip2_152_393')"><path d="M15.81 25.182c.028-.273.055-.552.102-.824.028-.156.069-.306.096-.463.047-.245.095-.483.156-.721.048-.177.11-.347.157-.524.068-.218.122-.436.197-.647.157-.442.34-.878.538-1.313.082-.177.17-.347.259-.517.102-.204.204-.409.313-.606.116-.21.238-.415.367-.62.082-.135.164-.278.252-.414.184-.286.381-.565.586-.838l.095-.136c.238-.313.483-.619.742-.918a4 4 0 0 1 .231-.252c.191-.211.382-.415.579-.613.102-.102.204-.197.306-.3.184-.176.375-.353.565-.523.116-.102.225-.197.34-.293.191-.156.389-.313.586-.463a8.52 8.52 0 0 1 .395-.299c.17-.122.347-.238.524-.354.184-.122.367-.245.558-.36.136-.082.272-.157.409-.232.299-.17.599-.327.905-.476.204-.096.408-.198.62-.286.101-.041.204-.089.312-.13.354-.142.708-.272 1.076-.38.429-.13.85-.232 1.273-.314.136-.027.265-.04.401-.06.286-.048.565-.09.845-.11.15-.013.299-.02.449-.027.258-.014.51-.014.762-.014.143 0 .293.007.436.02.34.021.674.055.994.11.034 0 .074.013.108.02.28.055.545.123.804.197a7.018 7.018 0 0 1 1.116.395c.095.041.197.082.293.13.3.15.592.313.871.496.04.028.075.055.116.082.279.19.544.388.796.612L1.598-17.923a5.225 5.225 0 0 0-.293-.252c-.164-.13-.327-.245-.497-.368-.04-.027-.075-.054-.116-.081-.013-.007-.02-.014-.034-.028a8.473 8.473 0 0 0-.728-.422c-.034-.02-.075-.034-.11-.047-.094-.048-.196-.089-.292-.13-.143-.06-.279-.136-.429-.19-.074-.027-.156-.048-.231-.068-.15-.055-.3-.095-.456-.136-.109-.034-.211-.075-.32-.102a5.483 5.483 0 0 0-.483-.096l-.11-.02c-.244-.04-.49-.075-.741-.102-.082-.007-.17 0-.252-.007a199 199 0 0 0-.436-.02c-.252 0-.503 0-.762.013-.15.007-.3.014-.45.027-.278.028-.557.069-.843.11l-.402.06a12.85 12.85 0 0 0-1.273.314c-.36.109-.721.245-1.075.38-.102.042-.211.09-.313.13-.13.055-.266.102-.395.163-.075.034-.15.082-.225.116-.306.15-.606.306-.905.477-.089.054-.19.095-.28.142-.047.028-.088.062-.129.082-.19.116-.374.238-.558.36-.13.09-.272.164-.401.26-.041.027-.082.06-.123.095-.136.095-.265.197-.395.3-.136.101-.272.197-.401.305-.062.048-.116.102-.177.157-.116.095-.232.197-.34.293-.103.088-.205.17-.3.258-.089.082-.177.177-.266.259-.102.095-.204.197-.306.3-.061.06-.122.115-.177.176-.136.143-.265.293-.395.436-.075.081-.156.163-.231.252a.805.805 0 0 1-.075.081 15.1 15.1 0 0 0-.66.817l-.014.013-.095.137c-.177.245-.354.483-.524.735l-.062.102a8.49 8.49 0 0 0-.252.415c-.095.156-.204.313-.292.476-.027.048-.048.095-.075.143-.109.197-.211.402-.313.606-.068.136-.143.265-.211.401-.02.034-.027.075-.048.11-.197.428-.381.87-.538 1.313-.075.217-.129.435-.197.646-.054.177-.116.347-.157.524-.06.232-.102.463-.15.694-.033.164-.074.327-.101.49-.041.252-.062.497-.089.749-.014.15-.04.293-.054.442-.028.395-.041.797-.028 1.191.075 2.702 1.096 4.893 2.744 6.363l34.735 31.17c-1.64-1.477-2.661-3.662-2.743-6.364-.014-.394 0-.789.027-1.19.007-.123.034-.245.048-.368l-.014.014Z" fill="url('#paint3_linear_152_393')"/><path d="M27.076 11.707c6.446-1.967 11.817 1.572 12 7.901.184 6.336-4.894 13.067-11.333 15.033-6.44 1.967-11.81-1.565-11.994-7.9-.183-6.33 4.894-13.067 11.334-15.034h-.007Z" fill="url('#paint4_linear_152_393')"/><path d="m79 97.22-7.563 8.717-83.46 38.519 7.563-8.711L79 97.219Z" fill="url('#paint5_linear_152_393')"/><path d="M71.54 88.59 79 97.22l-83.46 38.525-7.467-8.629L71.54 88.59Z" fill="url('#paint6_linear_152_393')"/></g><path d="M462.893 140.528c.279-.007.551-.02.83-.007.157 0 .313.028.47.034.245.021.49.028.735.062.177.02.361.061.538.088.224.034.449.068.667.116.456.095.919.218 1.368.361.184.054.367.122.544.183.211.075.429.15.64.232.225.088.443.183.661.279.149.068.299.129.442.197.306.15.606.306.905.47.048.027.102.047.15.075.34.19.674.401 1.007.619.096.061.184.129.28.19.231.157.462.32.68.49.116.089.225.17.334.259.204.163.401.327.592.497.116.095.225.197.334.299.183.17.36.341.53.517l.348.348c.143.156.279.313.422.476.143.17.292.333.428.504.096.122.191.251.28.374.204.272.401.551.585.837.122.19.245.381.361.578.054.096.115.191.17.293.184.333.361.667.517 1.014.184.408.341.817.484 1.218.047.129.074.259.115.388.082.272.164.551.218.817a9.822 9.822 0 0 1 .197 1.198c.014.142.034.292.041.435.021.34.034.674.021 1.001 0 .04 0 .074-.007.108a8.302 8.302 0 0 1-.089.824c-.02.156-.047.313-.081.469a11.71 11.71 0 0 1-.17.688c-.028.102-.055.211-.089.313-.109.32-.231.633-.374.932-.021.041-.048.082-.068.123-.15.299-.313.592-.504.864l26.343-38.526a5.83 5.83 0 0 0 .503-.871c.021-.041.048-.082.069-.123 0-.013.013-.027.02-.034a7.74 7.74 0 0 0 .32-.775c.013-.041.02-.082.034-.116.034-.102.061-.204.088-.313.041-.15.096-.3.13-.449.02-.075.027-.164.041-.239.034-.156.054-.313.081-.469.014-.109.041-.218.055-.334a6.17 6.17 0 0 0 .034-.49c0-.04 0-.074.007-.108.006-.245.013-.497 0-.749 0-.082-.021-.17-.021-.252-.007-.143-.027-.286-.041-.435a9.831 9.831 0 0 0-.109-.756 9.863 9.863 0 0 0-.306-1.259c-.041-.129-.075-.258-.116-.388-.136-.401-.292-.81-.483-1.218a14.42 14.42 0 0 0-.517-1.014c-.055-.095-.116-.197-.17-.293-.075-.122-.137-.245-.218-.367-.048-.075-.102-.136-.15-.211a14.083 14.083 0 0 0-.585-.83c-.062-.082-.116-.177-.184-.259a1.72 1.72 0 0 0-.102-.116c-.136-.17-.286-.34-.429-.503-.102-.123-.198-.245-.306-.361-.034-.041-.075-.075-.109-.109-.116-.122-.232-.231-.348-.354-.122-.122-.231-.245-.353-.36-.055-.055-.116-.102-.177-.157-.109-.102-.225-.197-.341-.299-.102-.089-.197-.177-.299-.266-.096-.081-.198-.15-.293-.231a10.765 10.765 0 0 0-.334-.259c-.068-.047-.129-.102-.197-.156-.157-.116-.327-.225-.483-.334-.096-.061-.184-.129-.279-.19-.028-.021-.062-.041-.089-.062-.293-.19-.592-.374-.898-.544h-.021a1.001 1.001 0 0 0-.15-.088c-.265-.143-.53-.286-.796-.422-.034-.021-.075-.034-.109-.048-.143-.068-.293-.129-.442-.197-.17-.075-.341-.157-.511-.232-.047-.02-.102-.034-.15-.054-.211-.082-.428-.157-.639-.232-.143-.047-.286-.109-.429-.156-.041-.014-.082-.021-.116-.034a14.385 14.385 0 0 0-1.368-.361h-.007c-.218-.048-.442-.075-.66-.116-.177-.027-.361-.068-.538-.088-.238-.027-.47-.041-.708-.055-.163-.013-.333-.034-.497-.04-.252-.007-.504 0-.755.006h-.443c-.395.028-.789.069-1.184.13-2.669.435-4.704 1.728-5.949 3.552l-26.343 38.526c1.245-1.824 3.281-3.117 5.949-3.552.388-.062.783-.109 1.184-.13.123-.006.245 0 .368 0l.014.007Z" fill="url('#paint7_linear_152_393')"/><path d="M477.739 149.92c2.797 6.132 0 11.916-6.256 12.93-6.262 1.014-13.6-3.13-16.398-9.262-2.798-6.125 0-11.91 6.262-12.924 6.256-1.014 13.601 3.131 16.398 9.256h-.006Z" fill="url('#paint8_linear_152_393')"/><g clip-path="url('#clip3_152_393')"><path d="m510.099 264.418-8.224 22.748-68.346-9.957 8.222-22.741 68.348 9.95Z" fill="url('#paint9_linear_152_393')"/><path d="m469.034 349.061-8.227 22.744-62.068-118.434 8.227-22.744 62.068 118.434Z" fill="url('#paint10_linear_152_393')"/><path d="m547.747 251.145-8.226 22.744-78.714 97.916 8.227-22.744 78.713-97.916Z" fill="url('#paint11_linear_152_393')"/><path d="m406.966 230.627 140.785 20.516-78.717 97.918-62.068-118.434Zm64.922 81.325 38.213-47.529-68.35-9.955 30.133 57.487" fill="url('#paint12_linear_152_393')"/><path d="m547.747 251.145-8.226 22.744-78.714 97.916 8.227-22.744 78.713-97.916Z" fill="url('#paint13_linear_152_393')" style="mix-blend-mode:multiply" opacity=".74"/></g><g clip-path="url('#clip4_152_393')"><path d="m68.347 291.786-20.643 17.51-72.953-46.608 20.644-17.515 72.952 46.613Z" fill="url('#paint14_linear_152_393')"/><path d="m60.26 356.317-20.65 17.515 8.094-64.536 20.643-17.51-8.088 64.531Z" fill="url('#paint15_linear_152_393')"/><path d="m80.78 391.49-119.137-76.114L-25.132 210 94 286.114 80.78 391.49ZM-4.604 245.173l-8.099 64.526 72.963 46.613 8.093-64.531-72.957-46.608Z" fill="url('#paint16_linear_152_393')"/></g><g clip-path="url('#clip5_152_393')"><path d="m224.955-83.647 7.019 17.748L176.068.926l-7.02-17.748 55.907-66.825Z" fill="url('#paint17_linear_152_393')"/><path d="M241.729 43.251 248.743 61 152.019 6.118 145-11.631l96.729 54.882Z" fill="url('#paint18_linear_152_393')"/><path d="M318.981-49.112 326-31.364 248.743 61l-7.014-17.749 77.252-92.363Z" fill="url('#paint19_linear_152_393')"/><path d="m222.252-104 96.729 54.888-77.252 92.369L145-11.631 222.252-104Zm16.774 126.899 55.906-66.825-69.977-39.721-55.907 66.825 69.978 39.72Z" fill="url('#paint20_linear_152_393')"/></g><g clip-path="url('#clip6_152_393')"><path d="m204.171 327.233 17.047 14.309 49.963-39.299-17.047-14.313-49.963 39.303Z" fill="url('#paint21_linear_152_393')"/><path d="M275.953 375.687 293 390l-5.033-122.687L270.92 253l5.033 122.687Z" fill="url('#paint22_linear_152_393')"/><path d="m270.92 253-102.915 80.961 107.948 41.726L270.92 253Zm-14.342 94.485-52.407-20.256 49.963-39.299 2.44 59.555" fill="url('#paint23_linear_152_393')"/></g></g><defs><linearGradient id="paint0_linear_152_393" x1="436.434" y1="43.854" x2="478.199" y2="-20.349" gradientUnits="userSpaceOnUse"><stop stop-color="#A0FFE1"/><stop offset=".99" stop-color="#859EE0"/></linearGradient><linearGradient id="paint1_linear_152_393" x1="374.989" y1="-3.054" x2="462.775" y2="-21.796" gradientUnits="userSpaceOnUse"><stop stop-color="#9083EF"/><stop offset=".99" stop-color="#5BC2D6"/></linearGradient><linearGradient id="paint2_linear_152_393" x1="406.473" y1="44.646" x2="424.354" y2="17.159" gradientUnits="userSpaceOnUse"><stop stop-color="#A0FFE1"/><stop offset=".99" stop-color="#859EE0"/></linearGradient><linearGradient id="paint3_linear_152_393" x1="-19" y1="6.548" x2="36.333" y2="6.548" gradientUnits="userSpaceOnUse"><stop/><stop offset=".99" stop-color="#5BC2D6"/></linearGradient><linearGradient id="paint4_linear_152_393" x1="20.249" y1="16.015" x2="34.561" y2="30.337" gradientUnits="userSpaceOnUse"><stop stop-color="#8083CC"/><stop offset=".99" stop-color="#5BC2D6"/></linearGradient><linearGradient id="paint5_linear_152_393" x1="-12.022" y1="120.841" x2="79" y2="120.841" gradientUnits="userSpaceOnUse"><stop offset=".01" stop-color="#5BC2D6"/><stop offset="1" stop-color="#8083CC"/></linearGradient><linearGradient id="paint6_linear_152_393" x1="-11.927" y1="112.171" x2="79" y2="112.171" gradientUnits="userSpaceOnUse"><stop/><stop offset=".99" stop-color="#5BC2D6"/></linearGradient><linearGradient id="paint7_linear_152_393" x1="476.7" y1="103.458" x2="483.968" y2="158.307" gradientUnits="userSpaceOnUse"><stop stop-color="#D288B7"/><stop offset=".99"/></linearGradient><linearGradient id="paint8_linear_152_393" x1="472.472" y1="143.609" x2="460.165" y2="159.68" gradientUnits="userSpaceOnUse"><stop stop-color="#8083CC"/><stop offset=".99"/></linearGradient><linearGradient id="paint9_linear_152_393" x1="465.111" y1="288.956" x2="478.712" y2="252.606" gradientUnits="userSpaceOnUse"><stop stop-color="#F5C4BE"/><stop offset=".99"/></linearGradient><linearGradient id="paint10_linear_152_393" x1="414.206" y1="354.303" x2="453.933" y2="248.127" gradientUnits="userSpaceOnUse"><stop stop-color="#F5C4BE"/><stop offset=".99"/></linearGradient><linearGradient id="paint11_linear_152_393" x1="479.361" y1="378.681" x2="529.641" y2="244.297" gradientUnits="userSpaceOnUse"><stop stop-color="#F5C4BE"/><stop offset=".99"/></linearGradient><linearGradient id="paint12_linear_152_393" x1="441.131" y1="338.554" x2="482.936" y2="226.822" gradientUnits="userSpaceOnUse"><stop stop-color="#8568D4"/><stop offset=".99" stop-color="#DFAB77"/></linearGradient><linearGradient id="paint13_linear_152_393" x1="479.361" y1="378.681" x2="529.641" y2="244.297" gradientUnits="userSpaceOnUse"><stop stop-color="#F5C4BE"/><stop offset=".99"/></linearGradient><linearGradient id="paint14_linear_152_393" x1="64.57" y1="269.857" x2="-21.067" y2="285.191" gradientUnits="userSpaceOnUse"><stop stop-color="#D44AD3"/><stop offset=".99" stop-color="#84BAF6"/></linearGradient><linearGradient id="paint15_linear_152_393" x1="47.511" y1="295.836" x2="60.849" y2="370.347" gradientUnits="userSpaceOnUse"><stop stop-color="#D24CC5"/><stop offset=".99" stop-color="#5EBBCE"/></linearGradient><linearGradient id="paint16_linear_152_393" x1="-39.627" y1="288.294" x2="95.242" y2="313.222" gradientUnits="userSpaceOnUse"><stop stop-color="#D24CC5"/><stop offset=".99" stop-color="#5EBBCE"/></linearGradient><linearGradient id="paint17_linear_152_393" x1="169.048" y1="-41.361" x2="231.974" y2="-41.361" gradientUnits="userSpaceOnUse"><stop offset=".01" stop-color="#859EE0"/><stop offset="1" stop-color="#9083EF"/></linearGradient><linearGradient id="paint18_linear_152_393" x1="145" y1="24.682" x2="248.743" y2="24.682" gradientUnits="userSpaceOnUse"><stop offset=".01" stop-color="#859EE0"/><stop offset="1" stop-color="#9083EF"/></linearGradient><linearGradient id="paint19_linear_152_393" x1="241.729" y1="5.944" x2="326" y2="5.944" gradientUnits="userSpaceOnUse"><stop stop-color="#FFC0E8"/><stop offset=".99" stop-color="#859EE0"/></linearGradient><linearGradient id="paint20_linear_152_393" x1="145" y1="-30.374" x2="318.981" y2="-30.374" gradientUnits="userSpaceOnUse"><stop stop-color="#70EBB7"/><stop offset=".99" stop-color="#DFAB77"/></linearGradient><linearGradient id="paint21_linear_152_393" x1="251.371" y1="326.063" x2="223.846" y2="303.301" gradientUnits="userSpaceOnUse"><stop stop-color="#70EBB7"/><stop offset=".99"/></linearGradient><linearGradient id="paint22_linear_152_393" x1="322.113" y1="354.659" x2="241.714" y2="288.174" gradientUnits="userSpaceOnUse"><stop stop-color="#70EBB7"/><stop offset=".99"/></linearGradient><linearGradient id="paint23_linear_152_393" x1="293.365" y1="354.497" x2="208.761" y2="284.535" gradientUnits="userSpaceOnUse"><stop stop-color="#D288B7"/><stop offset=".99" stop-color="#DFAB77"/></linearGradient><clipPath id="clip0_152_393"><path fill="#fff" d="M0 0h480v300H0z"/></clipPath><clipPath id="clip1_152_393"><path fill="#fff" transform="translate(377 -48)" d="M0 0h104v103H0z"/></clipPath><clipPath id="clip2_152_393"><path fill="#fff" transform="translate(-19 -20)" d="M0 0h198v233H0z"/></clipPath><clipPath id="clip3_152_393"><path fill="#fff" transform="rotate(-30 645.82 -599.383)" d="M0 0h135.622v149.184H0z"/></clipPath><clipPath id="clip4_152_393"><path fill="#fff" transform="translate(-59 210)" d="M0 0h153v199H0z"/></clipPath><clipPath id="clip5_152_393"><path fill="#fff" transform="translate(145 -94)" d="M0 0h181v165H0z"/></clipPath><clipPath id="clip6_152_393"><path fill="#fff" transform="matrix(-1 0 0 1 293 253)" d="M0 0h125v137H0z"/></clipPath></defs></svg>