<svg width="480" height="300" viewBox="0 0 480 300" fill="none" xmlns="http://www.w3.org/2000/svg">
<g clip-path="url(#clip0_152_393)">
<rect width="480" height="300" fill="black"/>
<g clip-path="url(#clip1_152_393)">
<path d="M481 0.337326L453.528 55L433.104 22.8821L460.58 -31.7806L481 0.337326Z" fill="url(#paint0_linear_152_393)"/>
<path d="M460.579 -31.7806L433.104 22.8821L377 6.66269L404.472 -48L460.579 -31.7806Z" fill="url(#paint1_linear_152_393)"/>
<path d="M377 6.66269L433.104 22.8821L453.528 55L397.417 38.7845L377 6.66269Z" fill="url(#paint2_linear_152_393)"/>
</g>
<g clip-path="url(#clip2_152_393)">
<path d="M15.8104 25.1816C15.8377 24.9094 15.8649 24.6303 15.9125 24.3581C15.9398 24.2016 15.9806 24.0519 16.0078 23.8953C16.0555 23.6503 16.1031 23.4122 16.1644 23.174C16.212 22.997 16.2733 22.8269 16.3209 22.6499C16.389 22.4322 16.4435 22.2144 16.5183 22.0034C16.6749 21.5611 16.8587 21.1255 17.0561 20.6899C17.1378 20.513 17.2263 20.3429 17.3148 20.1727C17.4169 19.9686 17.519 19.7644 17.6279 19.567C17.7436 19.3561 17.8661 19.1519 17.9954 18.9477C18.0771 18.8116 18.1588 18.6687 18.2473 18.5326C18.4311 18.2468 18.6285 17.9677 18.8327 17.6955C18.8667 17.6479 18.894 17.6071 18.928 17.5594C19.1662 17.2464 19.4113 16.9401 19.67 16.6407C19.7448 16.5522 19.8197 16.4705 19.9014 16.3889C20.092 16.1779 20.2826 15.9737 20.48 15.7764C20.5821 15.6743 20.6842 15.579 20.7863 15.4769C20.9701 15.3 21.1607 15.123 21.3513 14.9529C21.467 14.8508 21.5759 14.7556 21.6916 14.6603C21.8822 14.5037 22.0796 14.3472 22.277 14.1975C22.4063 14.0954 22.5357 13.9933 22.6718 13.8981C22.842 13.7756 23.019 13.6599 23.1959 13.5442C23.3797 13.4217 23.5635 13.2992 23.7541 13.1835C23.8903 13.1018 24.0264 13.027 24.1625 12.9521C24.462 12.782 24.7615 12.6254 25.0678 12.4757C25.2721 12.3804 25.4763 12.2783 25.6873 12.1899C25.7894 12.149 25.8915 12.1014 26.0004 12.0606C26.3544 11.9177 26.7083 11.7884 27.0759 11.6795C27.5047 11.5502 27.9268 11.4481 28.3488 11.3664C28.4849 11.3392 28.6143 11.3256 28.7504 11.3052C29.0363 11.2575 29.3154 11.2167 29.5945 11.1963C29.7442 11.1827 29.894 11.1759 30.0437 11.1691C30.3024 11.1554 30.5542 11.1554 30.8061 11.1554C30.949 11.1554 31.0988 11.1622 31.2417 11.1759C31.5821 11.1963 31.9156 11.2303 32.2355 11.2847C32.2696 11.2847 32.3104 11.2984 32.3445 11.3052C32.6235 11.3596 32.889 11.4277 33.1477 11.5025C33.2974 11.5434 33.454 11.591 33.6037 11.6386C33.8284 11.7135 34.053 11.802 34.264 11.8972C34.3593 11.9381 34.4614 11.9789 34.5567 12.0265C34.8562 12.1763 35.1489 12.3396 35.428 12.5233C35.4688 12.5506 35.5029 12.5778 35.5437 12.605C35.8228 12.7956 36.0883 12.9929 36.3401 13.2175L1.59756 -17.9245C1.50226 -18.0129 1.40696 -18.0946 1.30486 -18.1763C1.14149 -18.3056 0.978125 -18.4213 0.807951 -18.5438C0.767109 -18.571 0.733074 -18.5982 0.692234 -18.6254C0.678619 -18.6322 0.671812 -18.6391 0.658197 -18.6527C0.426762 -18.8024 0.181713 -18.9453 -0.0701427 -19.0746C-0.104177 -19.095 -0.14502 -19.1086 -0.179054 -19.1222C-0.274351 -19.1699 -0.376455 -19.2107 -0.471752 -19.2515C-0.614698 -19.3128 -0.750835 -19.3877 -0.900589 -19.4421C-0.975464 -19.4693 -1.05715 -19.4897 -1.13202 -19.5102C-1.28178 -19.5646 -1.43153 -19.6054 -1.58809 -19.6463C-1.697 -19.6803 -1.7991 -19.7211 -1.90801 -19.7483C-2.06457 -19.7892 -2.22794 -19.8164 -2.39131 -19.8436C-2.42534 -19.8504 -2.46618 -19.8572 -2.50022 -19.864C-2.74527 -19.9049 -2.99032 -19.9389 -3.24217 -19.9661C-3.32386 -19.9729 -3.41234 -19.9661 -3.49403 -19.9729C-3.63697 -19.9797 -3.77992 -19.9865 -3.92967 -19.9933C-4.18153 -19.9933 -4.43338 -19.9933 -4.69205 -19.9797C-4.8418 -19.9729 -4.99155 -19.9661 -5.14131 -19.9525C-5.42039 -19.9253 -5.69947 -19.8845 -5.98536 -19.8436C-6.1215 -19.8232 -6.25084 -19.8028 -6.38697 -19.7824C-6.809 -19.7007 -7.23103 -19.5986 -7.65987 -19.4693C-8.02064 -19.3604 -8.3814 -19.2243 -8.73537 -19.0882C-8.83747 -19.0474 -8.94638 -18.9997 -9.04848 -18.9589C-9.17782 -18.9045 -9.31395 -18.8568 -9.44329 -18.7956C-9.51816 -18.7616 -9.59304 -18.7139 -9.66791 -18.6799C-9.97423 -18.5302 -10.2737 -18.3736 -10.5732 -18.2035C-10.6617 -18.1491 -10.7638 -18.1082 -10.8523 -18.0606C-10.9 -18.0334 -10.9408 -17.9993 -10.9817 -17.9789C-11.1722 -17.8632 -11.356 -17.7407 -11.5398 -17.6182C-11.6692 -17.5298 -11.8121 -17.4549 -11.9414 -17.3596C-11.9823 -17.3324 -12.0231 -17.2984 -12.064 -17.2643C-12.2001 -17.1691 -12.3294 -17.067 -12.4588 -16.9649C-12.5949 -16.8628 -12.731 -16.7675 -12.8604 -16.6587C-12.9216 -16.611 -12.9761 -16.5566 -13.0373 -16.5021C-13.1531 -16.4068 -13.2688 -16.3048 -13.3777 -16.2095C-13.4798 -16.121 -13.5819 -16.0394 -13.6772 -15.9509C-13.7657 -15.8692 -13.8542 -15.7739 -13.9427 -15.6923C-14.0448 -15.597 -14.1469 -15.4949 -14.249 -15.3928C-14.3102 -15.3316 -14.3715 -15.2771 -14.426 -15.2159C-14.5621 -15.073 -14.6914 -14.9232 -14.8208 -14.7803C-14.8956 -14.6987 -14.9773 -14.617 -15.0522 -14.5285C-15.0726 -14.5013 -15.0998 -14.4741 -15.1271 -14.4469C-15.3585 -14.1814 -15.5763 -13.9092 -15.7873 -13.6302L-15.801 -13.6166C-15.835 -13.569 -15.8622 -13.5281 -15.8963 -13.4805C-16.0732 -13.2355 -16.2502 -12.9973 -16.4204 -12.7455C-16.4408 -12.7115 -16.4612 -12.6774 -16.4817 -12.6434C-16.5701 -12.5073 -16.6518 -12.3712 -16.7335 -12.2283C-16.8288 -12.0717 -16.9377 -11.9152 -17.0262 -11.7519C-17.0534 -11.7042 -17.0739 -11.6566 -17.1011 -11.609C-17.21 -11.4116 -17.3121 -11.2074 -17.4142 -11.0033C-17.4823 -10.8672 -17.5571 -10.7379 -17.6252 -10.6018C-17.6456 -10.5677 -17.6524 -10.5269 -17.6729 -10.4929C-17.8703 -10.0641 -18.0541 -9.62176 -18.2106 -9.1794C-18.2855 -8.96163 -18.3399 -8.74385 -18.408 -8.53288C-18.4625 -8.35594 -18.5237 -8.1858 -18.5646 -8.00886C-18.6258 -7.77747 -18.6667 -7.54608 -18.7143 -7.3147C-18.7484 -7.15136 -18.7892 -6.98803 -18.8164 -6.8247C-18.8573 -6.5729 -18.8777 -6.3279 -18.9049 -6.07609C-18.9185 -5.92637 -18.9458 -5.78346 -18.9594 -5.63374C-18.9866 -5.23902 -19.0002 -4.83749 -18.9866 -4.44277C-18.9117 -1.74099 -17.8907 0.450384 -16.2434 1.92037L18.4924 33.0896C16.8519 31.6128 15.8308 29.4282 15.7492 26.7264C15.7355 26.3317 15.7492 25.937 15.7764 25.5355C15.7832 25.413 15.8104 25.2905 15.824 25.168L15.8104 25.1816Z" fill="url(#paint3_linear_152_393)"/>
<path d="M27.0761 11.7068C33.5222 9.74005 38.8929 13.2789 39.0767 19.608C39.2605 25.944 34.1825 32.6746 27.7432 34.6414C21.3038 36.6082 15.9331 33.0761 15.7493 26.7402C15.5656 20.4111 20.6435 13.6736 27.0829 11.7068H27.0761Z" fill="url(#paint4_linear_152_393)"/>
<path d="M78.9999 97.2193L71.4374 105.937L-12.0223 144.456L-4.45984 135.745L78.9999 97.2193Z" fill="url(#paint5_linear_152_393)"/>
<path d="M71.5396 88.5899L79 97.2193L-4.4598 135.745L-11.927 127.116L71.5396 88.5899Z" fill="url(#paint6_linear_152_393)"/>
</g>
<path d="M462.893 140.528C463.172 140.521 463.444 140.508 463.723 140.521C463.88 140.521 464.036 140.549 464.193 140.555C464.438 140.576 464.683 140.583 464.928 140.617C465.105 140.637 465.289 140.678 465.466 140.705C465.69 140.739 465.915 140.773 466.133 140.821C466.589 140.916 467.052 141.039 467.501 141.182C467.685 141.236 467.868 141.304 468.045 141.365C468.256 141.44 468.474 141.515 468.685 141.597C468.91 141.685 469.128 141.78 469.346 141.876C469.495 141.944 469.645 142.005 469.788 142.073C470.094 142.223 470.394 142.379 470.693 142.543C470.741 142.57 470.795 142.59 470.843 142.618C471.183 142.808 471.517 143.019 471.85 143.237C471.946 143.298 472.034 143.366 472.13 143.427C472.361 143.584 472.592 143.747 472.81 143.917C472.926 144.006 473.035 144.087 473.144 144.176C473.348 144.339 473.545 144.503 473.736 144.673C473.852 144.768 473.961 144.87 474.07 144.972C474.253 145.142 474.43 145.313 474.6 145.489C474.716 145.605 474.832 145.721 474.948 145.837C475.091 145.993 475.227 146.15 475.37 146.313C475.513 146.483 475.662 146.646 475.798 146.817C475.894 146.939 475.989 147.068 476.078 147.191C476.282 147.463 476.479 147.742 476.663 148.028C476.785 148.218 476.908 148.409 477.024 148.606C477.078 148.702 477.139 148.797 477.194 148.899C477.378 149.232 477.555 149.566 477.711 149.913C477.895 150.321 478.052 150.73 478.195 151.131C478.242 151.26 478.269 151.39 478.31 151.519C478.392 151.791 478.474 152.07 478.528 152.336C478.562 152.486 478.589 152.628 478.617 152.778C478.664 153.03 478.698 153.282 478.725 153.534C478.739 153.676 478.759 153.826 478.766 153.969C478.787 154.309 478.8 154.643 478.787 154.97C478.787 155.01 478.787 155.044 478.78 155.078C478.766 155.357 478.732 155.63 478.691 155.902C478.671 156.058 478.644 156.215 478.61 156.371C478.562 156.603 478.501 156.834 478.44 157.059C478.412 157.161 478.385 157.27 478.351 157.372C478.242 157.692 478.12 158.005 477.977 158.304C477.956 158.345 477.929 158.386 477.909 158.427C477.759 158.726 477.596 159.019 477.405 159.291L503.748 120.765C503.823 120.656 503.891 120.554 503.959 120.438C504.068 120.261 504.163 120.078 504.251 119.894C504.272 119.853 504.299 119.812 504.32 119.771C504.32 119.758 504.333 119.744 504.34 119.737C504.462 119.486 504.565 119.227 504.66 118.962C504.673 118.921 504.68 118.88 504.694 118.846C504.728 118.744 504.755 118.642 504.782 118.533C504.823 118.383 504.878 118.233 504.912 118.084C504.932 118.009 504.939 117.92 504.953 117.845C504.987 117.689 505.007 117.532 505.034 117.376C505.048 117.267 505.075 117.158 505.089 117.042C505.109 116.879 505.116 116.716 505.123 116.552C505.123 116.512 505.123 116.478 505.13 116.444C505.136 116.199 505.143 115.947 505.13 115.695C505.13 115.613 505.109 115.525 505.109 115.443C505.102 115.3 505.082 115.157 505.068 115.008C505.041 114.756 505.007 114.511 504.959 114.252C504.932 114.102 504.905 113.96 504.871 113.81C504.81 113.538 504.735 113.265 504.653 112.993C504.612 112.864 504.578 112.735 504.537 112.605C504.401 112.204 504.245 111.795 504.054 111.387C503.897 111.04 503.721 110.707 503.537 110.373C503.482 110.278 503.421 110.176 503.367 110.08C503.292 109.958 503.23 109.835 503.149 109.713C503.101 109.638 503.047 109.577 502.999 109.502C502.815 109.216 502.618 108.944 502.414 108.672C502.352 108.59 502.298 108.495 502.23 108.413C502.196 108.372 502.162 108.331 502.128 108.297C501.992 108.127 501.842 107.957 501.699 107.794C501.597 107.671 501.501 107.549 501.393 107.433C501.359 107.392 501.318 107.358 501.284 107.324C501.168 107.202 501.052 107.093 500.936 106.97C500.814 106.848 500.705 106.725 500.583 106.61C500.528 106.555 500.467 106.508 500.406 106.453C500.297 106.351 500.181 106.256 500.065 106.154C499.963 106.065 499.868 105.977 499.766 105.888C499.67 105.807 499.568 105.738 499.473 105.657C499.364 105.568 499.248 105.48 499.139 105.398C499.071 105.351 499.01 105.296 498.942 105.242C498.785 105.126 498.615 105.017 498.459 104.908C498.363 104.847 498.275 104.779 498.18 104.718C498.152 104.697 498.118 104.677 498.091 104.656C497.798 104.466 497.499 104.282 497.193 104.112H497.172C497.125 104.078 497.077 104.051 497.022 104.024C496.757 103.881 496.492 103.738 496.226 103.602C496.192 103.581 496.151 103.568 496.117 103.554C495.974 103.486 495.824 103.425 495.675 103.357C495.505 103.282 495.334 103.2 495.164 103.125C495.117 103.105 495.062 103.091 495.014 103.071C494.803 102.989 494.586 102.914 494.375 102.839C494.232 102.792 494.089 102.73 493.946 102.683C493.905 102.669 493.864 102.662 493.83 102.649C493.374 102.506 492.918 102.383 492.462 102.288H492.455C492.237 102.24 492.013 102.213 491.795 102.172C491.618 102.145 491.434 102.104 491.257 102.084C491.019 102.057 490.787 102.043 490.549 102.029C490.386 102.016 490.216 101.995 490.052 101.989C489.8 101.982 489.548 101.989 489.297 101.995C489.147 101.995 488.997 101.995 488.854 101.995C488.459 102.023 488.065 102.064 487.67 102.125C485.001 102.56 482.966 103.853 481.721 105.677L455.378 144.203C456.623 142.379 458.659 141.086 461.327 140.651C461.715 140.589 462.11 140.542 462.511 140.521C462.634 140.515 462.756 140.521 462.879 140.521L462.893 140.528Z" fill="url(#paint7_linear_152_393)"/>
<path d="M477.739 149.92C480.536 156.052 477.739 161.836 471.483 162.85C465.221 163.864 457.883 159.72 455.085 153.588C452.287 147.463 455.085 141.678 461.347 140.664C467.603 139.65 474.948 143.795 477.745 149.92H477.739Z" fill="url(#paint8_linear_152_393)"/>
<g clip-path="url(#clip3_152_393)">
<path d="M510.099 264.418L501.875 287.166L433.529 277.209L441.751 254.468L510.099 264.418Z" fill="url(#paint9_linear_152_393)"/>
<path d="M469.034 349.061L460.807 371.805L398.739 253.371L406.966 230.627L469.034 349.061Z" fill="url(#paint10_linear_152_393)"/>
<path d="M547.747 251.145L539.521 273.889L460.807 371.805L469.034 349.061L547.747 251.145Z" fill="url(#paint11_linear_152_393)"/>
<path d="M406.966 230.627L547.751 251.143L469.034 349.061L406.966 230.627ZM471.888 311.952L510.101 264.423L441.751 254.468L471.884 311.955" fill="url(#paint12_linear_152_393)"/>
<g style="mix-blend-mode:multiply" opacity="0.74">
<path d="M547.747 251.145L539.521 273.889L460.807 371.805L469.034 349.061L547.747 251.145Z" fill="url(#paint13_linear_152_393)"/>
</g>
</g>
<g clip-path="url(#clip4_152_393)">
<path d="M68.347 291.786L47.7036 309.296L-25.2488 262.688L-4.60537 245.173L68.347 291.786Z" fill="url(#paint14_linear_152_393)"/>
<path d="M60.2594 356.317L39.6107 373.832L47.7036 309.296L68.347 291.786L60.2594 356.317Z" fill="url(#paint15_linear_152_393)"/>
<path d="M80.7808 391.49L-38.3566 315.376L-25.1321 210L94 286.114L80.7808 391.49ZM-4.6054 245.173L-12.7036 309.699L60.2595 356.312L68.3523 291.781L-4.6054 245.173Z" fill="url(#paint16_linear_152_393)"/>
</g>
<g clip-path="url(#clip5_152_393)">
<path d="M224.955 -83.6475L231.974 -65.8988L176.068 0.926361L169.048 -16.8223L224.955 -83.6475Z" fill="url(#paint17_linear_152_393)"/>
<path d="M241.729 43.2514L248.743 61L152.019 6.1178L145 -11.6309L241.729 43.2514Z" fill="url(#paint18_linear_152_393)"/>
<path d="M318.981 -49.1123L326 -31.3637L248.743 61L241.729 43.2514L318.981 -49.1123Z" fill="url(#paint19_linear_152_393)"/>
<path d="M222.252 -104L318.981 -49.1123L241.729 43.2568L145 -11.6309L222.252 -104ZM239.026 22.8988L294.932 -43.9264L224.955 -83.6475L169.048 -16.8223L239.026 22.8988Z" fill="url(#paint20_linear_152_393)"/>
</g>
<g clip-path="url(#clip6_152_393)">
<path d="M204.171 327.233L221.218 341.542L271.181 302.243L254.134 287.93L204.171 327.233Z" fill="url(#paint21_linear_152_393)"/>
<path d="M275.953 375.687L293 390L287.967 267.313L270.92 253L275.953 375.687Z" fill="url(#paint22_linear_152_393)"/>
<path d="M270.92 253L168.005 333.961L275.953 375.687L270.92 253ZM256.578 347.485L204.171 327.229L254.134 287.93L256.574 347.485" fill="url(#paint23_linear_152_393)"/>
</g>
</g>
<defs>
<linearGradient id="paint0_linear_152_393" x1="436.434" y1="43.8543" x2="478.199" y2="-20.3485" gradientUnits="userSpaceOnUse">
<stop stop-color="#A0FFE1"/>
<stop offset="0.99" stop-color="#859EE0"/>
</linearGradient>
<linearGradient id="paint1_linear_152_393" x1="374.989" y1="-3.05396" x2="462.775" y2="-21.7961" gradientUnits="userSpaceOnUse">
<stop stop-color="#9083EF"/>
<stop offset="0.99" stop-color="#5BC2D6"/>
</linearGradient>
<linearGradient id="paint2_linear_152_393" x1="406.473" y1="44.6463" x2="424.354" y2="17.159" gradientUnits="userSpaceOnUse">
<stop stop-color="#A0FFE1"/>
<stop offset="0.99" stop-color="#859EE0"/>
</linearGradient>
<linearGradient id="paint3_linear_152_393" x1="-19.0002" y1="6.54811" x2="36.3333" y2="6.54811" gradientUnits="userSpaceOnUse">
<stop/>
<stop offset="0.99" stop-color="#5BC2D6"/>
</linearGradient>
<linearGradient id="paint4_linear_152_393" x1="20.2487" y1="16.0147" x2="34.5607" y2="30.3365" gradientUnits="userSpaceOnUse">
<stop stop-color="#8083CC"/>
<stop offset="0.99" stop-color="#5BC2D6"/>
</linearGradient>
<linearGradient id="paint5_linear_152_393" x1="-12.0223" y1="120.841" x2="78.9999" y2="120.841" gradientUnits="userSpaceOnUse">
<stop offset="0.01" stop-color="#5BC2D6"/>
<stop offset="1" stop-color="#8083CC"/>
</linearGradient>
<linearGradient id="paint6_linear_152_393" x1="-11.927" y1="112.171" x2="79" y2="112.171" gradientUnits="userSpaceOnUse">
<stop/>
<stop offset="0.99" stop-color="#5BC2D6"/>
</linearGradient>
<linearGradient id="paint7_linear_152_393" x1="476.7" y1="103.458" x2="483.968" y2="158.307" gradientUnits="userSpaceOnUse">
<stop stop-color="#D288B7"/>
<stop offset="0.99"/>
</linearGradient>
<linearGradient id="paint8_linear_152_393" x1="472.472" y1="143.609" x2="460.165" y2="159.68" gradientUnits="userSpaceOnUse">
<stop stop-color="#8083CC"/>
<stop offset="0.99"/>
</linearGradient>
<linearGradient id="paint9_linear_152_393" x1="465.111" y1="288.956" x2="478.712" y2="252.606" gradientUnits="userSpaceOnUse">
<stop stop-color="#F5C4BE"/>
<stop offset="0.99"/>
</linearGradient>
<linearGradient id="paint10_linear_152_393" x1="414.206" y1="354.303" x2="453.933" y2="248.127" gradientUnits="userSpaceOnUse">
<stop stop-color="#F5C4BE"/>
<stop offset="0.99"/>
</linearGradient>
<linearGradient id="paint11_linear_152_393" x1="479.361" y1="378.681" x2="529.641" y2="244.297" gradientUnits="userSpaceOnUse">
<stop stop-color="#F5C4BE"/>
<stop offset="0.99"/>
</linearGradient>
<linearGradient id="paint12_linear_152_393" x1="441.131" y1="338.554" x2="482.936" y2="226.822" gradientUnits="userSpaceOnUse">
<stop stop-color="#8568D4"/>
<stop offset="0.99" stop-color="#DFAB77"/>
</linearGradient>
<linearGradient id="paint13_linear_152_393" x1="479.361" y1="378.681" x2="529.641" y2="244.297" gradientUnits="userSpaceOnUse">
<stop stop-color="#F5C4BE"/>
<stop offset="0.99"/>
</linearGradient>
<linearGradient id="paint14_linear_152_393" x1="64.5697" y1="269.857" x2="-21.0674" y2="285.191" gradientUnits="userSpaceOnUse">
<stop stop-color="#D44AD3"/>
<stop offset="0.99" stop-color="#84BAF6"/>
</linearGradient>
<linearGradient id="paint15_linear_152_393" x1="47.5111" y1="295.836" x2="60.8485" y2="370.347" gradientUnits="userSpaceOnUse">
<stop stop-color="#D24CC5"/>
<stop offset="0.99" stop-color="#5EBBCE"/>
</linearGradient>
<linearGradient id="paint16_linear_152_393" x1="-39.6267" y1="288.294" x2="95.2422" y2="313.222" gradientUnits="userSpaceOnUse">
<stop stop-color="#D24CC5"/>
<stop offset="0.99" stop-color="#5EBBCE"/>
</linearGradient>
<linearGradient id="paint17_linear_152_393" x1="169.048" y1="-41.3606" x2="231.974" y2="-41.3606" gradientUnits="userSpaceOnUse">
<stop offset="0.01" stop-color="#859EE0"/>
<stop offset="1" stop-color="#9083EF"/>
</linearGradient>
<linearGradient id="paint18_linear_152_393" x1="145" y1="24.6819" x2="248.743" y2="24.6819" gradientUnits="userSpaceOnUse">
<stop offset="0.01" stop-color="#859EE0"/>
<stop offset="1" stop-color="#9083EF"/>
</linearGradient>
<linearGradient id="paint19_linear_152_393" x1="241.729" y1="5.94384" x2="326" y2="5.94384" gradientUnits="userSpaceOnUse">
<stop stop-color="#FFC0E8"/>
<stop offset="0.99" stop-color="#859EE0"/>
</linearGradient>
<linearGradient id="paint20_linear_152_393" x1="145" y1="-30.3743" x2="318.981" y2="-30.3743" gradientUnits="userSpaceOnUse">
<stop stop-color="#70EBB7"/>
<stop offset="0.99" stop-color="#DFAB77"/>
</linearGradient>
<linearGradient id="paint21_linear_152_393" x1="251.371" y1="326.063" x2="223.846" y2="303.301" gradientUnits="userSpaceOnUse">
<stop stop-color="#70EBB7"/>
<stop offset="0.99"/>
</linearGradient>
<linearGradient id="paint22_linear_152_393" x1="322.113" y1="354.659" x2="241.714" y2="288.174" gradientUnits="userSpaceOnUse">
<stop stop-color="#70EBB7"/>
<stop offset="0.99"/>
</linearGradient>
<linearGradient id="paint23_linear_152_393" x1="293.365" y1="354.497" x2="208.761" y2="284.535" gradientUnits="userSpaceOnUse">
<stop stop-color="#D288B7"/>
<stop offset="0.99" stop-color="#DFAB77"/>
</linearGradient>
<clipPath id="clip0_152_393">
<rect width="480" height="300" fill="white"/>
</clipPath>
<clipPath id="clip1_152_393">
<rect width="104" height="103" fill="white" transform="translate(377 -48)"/>
</clipPath>
<clipPath id="clip2_152_393">
<rect width="198" height="233" fill="white" transform="translate(-19 -20)"/>
</clipPath>
<clipPath id="clip3_152_393">
<rect width="135.622" height="149.184" fill="white" transform="translate(386.215 242.608) rotate(-30)"/>
</clipPath>
<clipPath id="clip4_152_393">
<rect width="153" height="199" fill="white" transform="translate(-59 210)"/>
</clipPath>
<clipPath id="clip5_152_393">
<rect width="181" height="165" fill="white" transform="translate(145 -94)"/>
</clipPath>
<clipPath id="clip6_152_393">
<rect width="125" height="137" fill="white" transform="matrix(-1 0 0 1 293 253)"/>
</clipPath>
</defs>
</svg>
