<svg width="142" height="25" viewBox="0 0 142 25" fill="none" xmlns="http://www.w3.org/2000/svg">
<path d="M22.785 7.36328C22.7986 7.28918 21.6656 6.67614 21.6868 6.6054C21.4747 6.64077 21.0658 5.71952 20.8419 5.6791C20.0841 5.54352 19.9295 5.95362 19.7437 5.25805C19.5164 5.30268 19.6211 4.6349 19.3795 4.59111C18.3353 4.40417 18.7957 3.35071 18.9833 2.31072C19.0272 2.06651 17.8462 1.41473 17.9695 1.216C17.5167 0.947369 17.0715 1.38947 16.9557 0.87916C16.6051 0.880844 16.5113 0.729267 16.1607 0.724214C14.9028 0.704004 13.7318 0.225695 12.4756 0.196221C11.2472 0.166748 9.89631 0.240852 8.73551 0.626531C8.53951 0.691373 8.33506 0.728425 8.12723 0.728425C8.12723 0.728425 5.12977 0.710741 5.12808 0.710741C3.64878 0.710741 2.4863 1.74567 1.83324 3.0686C1.46659 3.81217 1.24947 4.42774 1.03488 5.21763C0.799172 6.08498 0.658085 6.95318 0.650482 7.86854C0.646258 8.4799 0.565154 9.05084 0.583741 9.6622C0.603172 10.2955 0.457016 10.9211 0.405481 11.5527C0.288895 12.9809 0.657241 14.3821 0.919983 15.7741C1.17005 17.1004 0.565999 18.3265 0.565999 19.6579C0.565999 20.9892 1.78002 22.6641 2.99911 23.3504C3.67244 23.7294 4.36182 23.7816 5.0757 23.9096C6.016 24.078 6.7924 24.457 7.78254 24.4982C8.43644 24.526 9.19594 24.5235 9.84984 24.4999C10.7732 24.4662 11.5682 24.5092 12.4925 24.5184C13.7741 24.5311 15.1942 24.5959 16.4488 24.3736C17.8326 24.1277 18.7932 24.4157 20.1661 24.3736C22.2097 24.3113 23.2108 21.918 23.8833 19.6579C23.8833 19.6579 24.0489 18.6979 24.0489 18.6953C24.0489 17.9812 24.5431 17.3758 24.6589 16.676C24.7408 16.1809 24.8 15.6815 24.8397 15.1796C24.8701 14.7872 24.8887 14.3931 24.8963 14.0007C24.9343 12.031 24.8363 11.6175 24.5592 9.72115C24.4384 9.72283 23.7532 9.23779 23.6299 9.21589C22.5857 9.02895 22.5975 8.40411 22.785 7.36328Z" fill="#01AFBA"/>
<path d="M23.8833 19.6573C23.8833 19.6573 24.0489 18.6973 24.0489 18.6948C24.0489 17.9807 24.5431 17.3752 24.6588 16.6754C24.7408 16.1803 24.7999 15.6809 24.8396 15.179C24.87 14.7866 24.8886 14.3925 24.8962 14.0001C24.9342 12.0304 24.8363 11.617 24.5591 9.72055C24.4426 9.72224 23.8072 9.27593 23.6484 9.22119C23.7532 10.7176 23.9247 12.8018 23.6298 14.8573C23.1973 17.8754 22.2595 18.5314 21.5178 21.173C20.9264 23.2783 19.4902 22.773 16.6177 22.5204C13.4868 22.245 11.2108 23.5309 6.73323 22.2678C4.8839 21.7465 2.84955 21.9899 0.666504 20.3832C0.980781 21.5747 1.98782 22.7806 2.99992 23.3499C3.67325 23.7288 4.36264 23.781 5.07652 23.909C6.01681 24.0774 6.79321 24.4564 7.78335 24.4976C8.43725 24.5254 9.19676 24.5229 9.85065 24.4993C10.7741 24.4656 11.569 24.5086 12.4933 24.5178C13.7749 24.5305 15.195 24.5953 16.4496 24.373C17.8335 24.1271 18.794 24.4151 20.1669 24.373C22.2105 24.3107 23.2116 21.9174 23.8841 19.6573" fill="#FDFCDD"/>
<path d="M8.16922 14.9418C12.3934 9.97341 14.8434 11.9944 17.3779 12.9207C16.871 8.71027 13.5018 6.8905 10.1123 7.95238C7.15543 8.87869 6.39508 13.005 8.16922 14.9418Z" fill="#FDFCDD"/>
<path d="M11.444 24.8583C10.464 24.823 9.4848 24.764 8.50818 24.6579C6.11139 24.3977 2.42794 24.0002 0.910621 21.8436C-0.120917 20.3767 -0.0415029 18.3624 0.0497388 16.6605C0.16717 14.4728 0.106342 12.2791 0.233911 10.0913C0.44005 6.56382 1.18772 0.274212 5.77853 0.0131627C6.67152 -0.0373629 7.5645 0.0712672 8.45749 0.108319C10.0694 0.174845 11.6797 0.00979435 13.2916 0.0485307C14.8951 0.087267 16.3626 0.641365 17.9424 0.75589C18.0852 0.765995 18.2279 0.776942 18.3716 0.789574C18.5583 0.807258 18.7078 0.951256 18.7315 1.13736C18.7838 1.54577 19.006 1.92135 19.3423 2.1664C19.4293 2.22956 19.4867 2.32555 19.502 2.43166C19.5172 2.53776 19.4893 2.64555 19.4242 2.7306C19.3076 2.88386 19.2223 3.05397 19.1708 3.2367C19.0618 3.62659 19.1108 4.03501 19.3093 4.387C19.5087 4.73984 19.8331 4.99331 20.2234 5.10278C20.4025 5.15247 20.5909 5.16847 20.781 5.14994C20.9914 5.12889 21.1815 5.27457 21.2161 5.48257C21.3124 6.06109 21.7399 6.53687 22.3043 6.69434C22.4698 6.74066 22.6439 6.7575 22.8221 6.74487C22.9607 6.73476 23.0942 6.79708 23.1753 6.90907C23.3882 7.20128 23.0612 7.86906 23.1753 8.26232C23.3299 8.79116 23.7827 9.24757 24.3344 9.34694C24.4687 9.37136 24.6174 9.38146 24.7179 9.47409C24.821 9.56925 24.8413 9.72167 24.8556 9.86062C25.0778 12.0416 25.0457 14.2488 24.7441 16.4205C24.5937 17.5043 24.3766 18.578 24.0953 19.6356C23.9483 20.1889 23.7734 20.7312 23.6019 21.2769C23.476 21.6786 23.4777 22.1224 23.2919 22.5005C22.7292 23.6457 21.794 24.535 20.5267 24.8339C19.5805 25.0562 18.5954 25.0023 17.6239 24.9695C15.565 24.9004 13.5011 24.9333 11.4423 24.86M8.9382 23.9312C10.4589 24.0735 11.983 24.2116 13.5113 24.1956C15.0657 24.1796 16.5273 24.0044 18.086 24.1518C18.4603 24.1872 18.8464 24.2234 19.2384 24.2486C21.0032 24.3623 22.7039 22.8668 22.8779 21.0487L22.9708 20.0769C23.0173 19.5952 23.2319 19.2003 23.4397 18.8188C23.5816 18.5586 23.7151 18.3136 23.7819 18.0609C24.3631 15.8774 24.3825 13.7233 24.1924 11.4892C24.1544 11.0429 24.1156 10.584 24.0877 10.1242C24.0581 10.1175 24.0286 10.1099 23.999 10.1015C22.8568 9.7823 22.153 8.66063 22.3296 7.52043C22.2477 7.50696 22.1665 7.48928 22.0863 7.46654C21.3369 7.2577 20.7464 6.68255 20.5073 5.95667C20.3383 5.94824 20.1702 5.9213 20.0055 5.87498C19.4082 5.70825 18.9123 5.32004 18.6081 4.7811C18.304 4.24216 18.2288 3.61817 18.3961 3.02281C18.4408 2.86365 18.5017 2.71123 18.5794 2.56639C18.3048 2.28682 18.1038 1.94072 17.999 1.5643C17.9601 1.56093 17.9204 1.55841 17.8816 1.55588C17.6661 1.53988 17.4507 1.52472 17.237 1.5003C15.9579 1.35799 14.776 0.824942 13.4893 0.767679C12.1283 0.706207 10.7791 0.967256 9.42313 1.02957C7.09647 1.13652 4.30853 0.0375835 2.79882 2.47797C2.53945 2.89734 2.51749 3.3428 2.38316 3.79669C2.24799 4.25311 1.98187 4.66321 1.8205 5.12047C1.44286 6.18908 1.35754 7.33517 1.23166 8.45348C1.04241 10.1301 0.750948 11.8117 0.835431 13.5052C0.920759 15.2096 1.07874 16.7616 0.908087 18.4828L0.861621 18.9536C0.743344 20.1897 1.32712 21.4478 2.35021 22.1594C2.74559 22.4348 3.13083 22.519 3.5769 22.6167C3.75854 22.6562 3.94694 22.6975 4.14801 22.7539C4.87794 22.9586 5.51917 23.3771 6.27276 23.559C7.10745 23.7602 7.96664 23.8411 8.81992 23.9211C8.85878 23.9244 8.89849 23.9286 8.93735 23.932" fill="#0081A8"/>
<path d="M16.9911 13.388C16.7892 15.5 14.5909 17.0183 12.0818 16.7799C9.57264 16.5408 7.70303 14.636 7.90495 12.524C8.1077 10.412 10.3051 8.89373 12.8143 9.13205C15.3234 9.3712 17.193 11.276 16.9902 13.3888" fill="#393939"/>
<path d="M12.853 8.73389C10.1285 8.47452 7.72998 10.1579 7.50695 12.4854C7.28391 14.813 9.31911 16.9182 12.0445 17.1776C14.77 17.4369 17.1676 15.7536 17.3906 13.426C17.6136 11.0976 15.5785 8.99325 12.853 8.73389ZM12.1045 10.0358C15.6038 9.72082 16.234 11.741 16.4317 13.1271C16.6176 14.4366 15.6384 15.2088 14.8173 15.7949C13.6945 16.5965 12.205 16.5477 10.9015 16.0963C9.52778 15.6205 8.36107 14.722 8.66521 12.6732C8.92964 10.888 10.4808 10.1823 12.1054 10.0366" fill="#0081A8"/>
<path d="M19.4826 15.0264C19.4032 15.4121 19.1843 15.6925 18.9934 15.6538C18.8025 15.6151 18.7121 15.2706 18.7907 14.8858C18.8701 14.501 19.0889 14.2197 19.2798 14.2584C19.4707 14.2972 19.5611 14.6416 19.4826 15.0264Z" fill="#FDFCDD"/>
<path d="M19.2891 14.9874C19.2097 15.3731 18.9909 15.6535 18.7999 15.6147C18.609 15.576 18.5186 15.2316 18.5972 14.8468C18.6766 14.4611 18.8954 14.1807 19.0863 14.2194C19.2773 14.2581 19.3677 14.6025 19.2891 14.9874Z" fill="#0081A8"/>
<path d="M19.0221 19.3151C19.3567 19.5231 19.5451 19.8254 19.442 19.9904C19.3389 20.1555 18.9841 20.121 18.6487 19.913C18.3133 19.705 18.1258 19.4026 18.2288 19.2376C18.3319 19.0725 18.6867 19.1071 19.0221 19.3151Z" fill="#FDFCDD"/>
<path d="M18.9174 19.4826C19.2528 19.6905 19.4404 19.9929 19.3373 20.1579C19.2343 20.323 18.8794 20.2884 18.544 20.0804C18.2095 19.8724 18.0211 19.5701 18.1241 19.4051C18.2272 19.24 18.582 19.2746 18.9174 19.4826Z" fill="#0081A8"/>
<path d="M22.6549 15.6213C22.5755 16.007 22.3567 16.2874 22.1658 16.2487C21.9749 16.2099 21.8845 15.8655 21.9639 15.4798C22.0433 15.095 22.2621 14.8137 22.453 14.8533C22.644 14.8921 22.7344 15.2365 22.6558 15.6213" fill="#FDFCDD"/>
<path d="M22.4605 15.582C22.3811 15.9676 22.1623 16.2481 21.9713 16.2093C21.7804 16.1706 21.69 15.8262 21.7686 15.4405C21.848 15.0557 22.0668 14.7744 22.2577 14.8131C22.4487 14.8519 22.539 15.1963 22.4605 15.5811" fill="#0081A8"/>
<path d="M19.2774 9.38387C19.1979 9.76955 18.9791 10.05 18.7882 10.0112C18.5973 9.97249 18.506 9.62808 18.5854 9.24324C18.6649 8.85756 18.8837 8.57714 19.0746 8.61588C19.2655 8.65462 19.3568 8.99903 19.2774 9.38387Z" fill="#FDFCDD"/>
<path d="M19.083 9.34432C19.0036 9.73 18.7848 10.0104 18.5939 9.97168C18.403 9.93294 18.3126 9.58853 18.392 9.20369C18.4714 8.81801 18.6902 8.53759 18.8811 8.57633C19.0721 8.61507 19.1625 8.95948 19.0839 9.34432" fill="#0081A8"/>
<path d="M13.2925 19.8975C13.2131 20.2832 12.9943 20.5636 12.8034 20.5249C12.6124 20.4862 12.522 20.1417 12.6006 19.7569C12.68 19.3712 12.8988 19.0908 13.0898 19.1296C13.2807 19.1683 13.3711 19.5127 13.2925 19.8975Z" fill="#FDFCDD"/>
<path d="M13.098 19.858C13.0186 20.2437 12.7998 20.5241 12.6089 20.4853C12.418 20.4466 12.3267 20.1022 12.4061 19.7174C12.4855 19.3325 12.7043 19.0513 12.8953 19.09C13.0862 19.1287 13.1775 19.4731 13.098 19.858Z" fill="#0081A8"/>
<path d="M16.0839 6.4997C15.8 6.69591 15.49 6.74223 15.3928 6.6016C15.2957 6.46181 15.4469 6.18897 15.7308 5.99192C16.0155 5.79571 16.3247 5.7494 16.4218 5.89003C16.519 6.03066 16.3678 6.30265 16.0839 6.4997Z" fill="#FDFCDD"/>
<path d="M15.9849 6.35761C15.701 6.55382 15.391 6.60014 15.2938 6.45951C15.1967 6.31972 15.3479 6.04688 15.6318 5.84983C15.9165 5.65362 16.2257 5.60731 16.3228 5.74794C16.42 5.88857 16.2688 6.16056 15.9849 6.35761Z" fill="#0081A8"/>
<path d="M8.81316 18.5121C8.44059 18.6426 8.0866 18.5997 8.02155 18.4169C7.9565 18.2333 8.20573 17.979 8.5783 17.8485C8.95087 17.718 9.30485 17.7609 9.3699 17.9437C9.43495 18.1272 9.18573 18.3816 8.81316 18.5121Z" fill="#FDFCDD"/>
<path d="M8.74797 18.326C8.3754 18.4566 8.02142 18.4136 7.95637 18.2309C7.89131 18.0473 8.14054 17.793 8.51311 17.6625C8.88568 17.5319 9.23966 17.5749 9.30471 17.7576C9.36977 17.9412 9.12054 18.1955 8.74797 18.326Z" fill="#0081A8"/>
<path d="M4.15895 14.738C3.81594 14.5435 3.61572 14.2487 3.71203 14.0803C3.80834 13.9111 4.16486 13.9321 4.50786 14.1258C4.85086 14.3203 5.05109 14.6151 4.95478 14.7835C4.85846 14.9527 4.50195 14.9317 4.15895 14.738Z" fill="#FDFCDD"/>
<path d="M4.25709 14.5661C3.91409 14.3716 3.71386 14.0769 3.81017 13.9085C3.90649 13.7392 4.263 13.7602 4.606 13.9539C4.94901 14.1485 5.14923 14.4432 5.05292 14.6116C4.95661 14.7809 4.60009 14.7598 4.25709 14.5661Z" fill="#0081A8"/>
<path d="M4.10737 8.78755C3.82605 8.51135 3.70861 8.17535 3.84548 8.03725C3.98234 7.8983 4.32112 8.0103 4.60245 8.28566C4.88377 8.56103 5.00121 8.89703 4.86434 9.03597C4.72748 9.17492 4.3887 9.06376 4.10737 8.78755Z" fill="#FDFCDD"/>
<path d="M4.24592 8.64644C3.96459 8.37107 3.84716 8.03508 3.98403 7.89613C4.12089 7.75719 4.45967 7.86919 4.74099 8.14455C5.02232 8.41992 5.13975 8.75591 5.00289 8.89486C4.86603 9.0338 4.52725 8.9218 4.24592 8.64644Z" fill="#0081A8"/>
<path d="M5.08895 21.0462C4.78312 21.2946 4.43421 21.373 4.31171 21.2222C4.1892 21.0715 4.33705 20.7481 4.64372 20.4997C4.9504 20.2513 5.29847 20.173 5.42097 20.3237C5.54431 20.4744 5.39562 20.7978 5.08895 21.0462Z" fill="#FDFCDD"/>
<path d="M4.96395 20.8929C4.65812 21.1413 4.31005 21.2196 4.18671 21.0689C4.0642 20.9182 4.21205 20.5948 4.51872 20.3464C4.8254 20.098 5.17347 20.0197 5.29597 20.1704C5.41931 20.3211 5.27062 20.6445 4.96395 20.8929Z" fill="#0081A8"/>
<path d="M6.01838 4.16305C5.6323 4.08053 5.3535 3.85906 5.39405 3.66874C5.43545 3.47843 5.78099 3.39169 6.16708 3.47506C6.55316 3.55759 6.83196 3.77906 6.7914 3.96937C6.75001 4.15968 6.40447 4.24642 6.01838 4.16389" fill="#FDFCDD"/>
<path d="M6.05977 3.96969C5.67368 3.88717 5.39488 3.6657 5.43544 3.47538C5.47683 3.28507 5.82237 3.19833 6.20846 3.2817C6.59454 3.36423 6.87334 3.5857 6.83278 3.77601C6.79139 3.96632 6.44585 4.05306 6.05977 3.97053" fill="#0081A8"/>
<path d="M13.1648 3.23757C12.7719 3.27799 12.4374 3.1542 12.418 2.96052C12.3977 2.76684 12.7001 2.57737 13.0921 2.53695C13.485 2.49652 13.8195 2.62031 13.839 2.81399C13.8592 3.00768 13.5568 3.19715 13.1648 3.23757Z" fill="#FDFCDD"/>
<path d="M13.1448 3.04128C12.7519 3.0817 12.4174 2.95791 12.3979 2.76423C12.3777 2.57055 12.6801 2.38108 13.0721 2.34066C13.465 2.30024 13.7995 2.42402 13.8189 2.61771C13.8392 2.81139 13.5368 3.00086 13.1448 3.04128Z" fill="#0081A8"/>
<path d="M9.82197 6.12519C9.75354 6.45782 9.56429 6.70034 9.39955 6.66666C9.23481 6.63297 9.15624 6.33571 9.22467 6.00309C9.2931 5.67046 9.48234 5.42794 9.64709 5.46162C9.81183 5.4953 9.8904 5.79256 9.82197 6.12519Z" fill="#FDFCDD"/>
<path d="M9.65375 6.09052C9.58532 6.42315 9.39608 6.66567 9.23134 6.63199C9.0666 6.59831 8.98803 6.30105 9.05646 5.96842C9.12489 5.63579 9.31413 5.39327 9.47887 5.42695C9.64362 5.46064 9.72218 5.7579 9.65375 6.09052Z" fill="#0081A8"/>
<path d="M22.0661 10.9815C22.0078 11.2627 21.8481 11.4674 21.7088 11.4387C21.5694 11.4101 21.5035 11.1592 21.5609 10.8779C21.6192 10.5966 21.7789 10.392 21.9183 10.4206C22.0577 10.4493 22.1236 10.7002 22.0661 10.9815Z" fill="#FDFCDD"/>
<path d="M21.924 10.9527C21.8657 11.2339 21.7061 11.4386 21.5667 11.4099C21.4273 11.3813 21.3614 11.1303 21.4188 10.8491C21.4771 10.5678 21.6368 10.3632 21.7762 10.3918C21.9156 10.4205 21.9815 10.6714 21.924 10.9527Z" fill="#0081A8"/>
<path d="M39.0973 12.2352C38.803 12.0033 38.4891 11.8125 38.1644 11.6698C37.8505 11.5324 37.4634 11.3986 37.0157 11.2738L35.6673 10.901C34.9538 10.7048 34.87 10.3695 34.87 10.1358C34.87 10.0216 34.8985 9.85041 35.1411 9.66847C35.348 9.51329 35.6227 9.43481 35.9616 9.43481C36.527 9.43481 36.9587 9.61139 37.2833 9.97704C37.5473 10.2767 37.8737 10.4283 38.2536 10.4283C38.6014 10.4283 38.9029 10.3035 39.1508 10.0591C39.4005 9.81295 39.5272 9.51329 39.5272 9.16903C39.5272 8.86402 39.413 8.57863 39.1829 8.31643C38.7923 7.89191 38.3446 7.57264 37.8541 7.36751C37.3671 7.16417 36.7125 7.0625 35.9063 7.0625C35.2909 7.0625 34.6969 7.18379 34.1386 7.42102C33.5714 7.66182 33.097 8.02213 32.726 8.49124C32.3443 8.97461 32.1498 9.52221 32.1498 10.1197C32.1498 10.9242 32.3978 11.5806 32.8847 12.0693C33.352 12.5366 34.0833 12.9094 35.059 13.177L36.4021 13.548C36.7553 13.6532 37.005 13.7799 37.1424 13.9261C37.2654 14.0563 37.3243 14.224 37.3243 14.4416C37.3243 14.57 37.2886 14.7645 36.9854 14.9678C36.7214 15.1444 36.3879 15.2336 35.9955 15.2336C35.603 15.2336 35.2552 15.1711 34.9805 15.0463C34.7112 14.9232 34.4597 14.7145 34.2439 14.4345C34.012 14.1116 33.6606 13.9404 33.2325 13.9404C32.8829 13.9404 32.585 14.0617 32.3514 14.2989C32.1177 14.5362 32 14.8198 32 15.1444C32 15.51 32.1391 15.8543 32.4049 16.1557C32.7688 16.5999 33.2718 16.9566 33.8978 17.217C34.515 17.4739 35.2017 17.6041 35.9366 17.6041C36.4253 17.6041 36.9105 17.5345 37.3832 17.3954C37.8558 17.2563 38.2929 17.0583 38.6835 16.805C39.0866 16.5446 39.4166 16.2057 39.6663 15.799C39.9196 15.3834 40.0462 14.9268 40.0462 14.4398C40.0462 13.9529 39.9677 13.5337 39.8126 13.1699C39.6538 12.7971 39.4148 12.4831 39.0991 12.2352" fill="white"/>
<path d="M49.7585 7.0625C49.3981 7.0625 49.0824 7.19271 48.822 7.44956C48.6615 7.60831 48.5491 7.78668 48.4867 7.98645C48.278 7.80095 48.0354 7.63507 47.7607 7.49059C47.2274 7.20698 46.5692 7.06429 45.8058 7.06429C45.2422 7.06429 44.6714 7.17844 44.1077 7.40497C43.5494 7.62972 43.0268 7.95435 42.5541 8.36995C42.0725 8.79268 41.6783 9.35633 41.3787 10.043C41.0808 10.728 40.9292 11.4985 40.9292 12.3315C40.9292 13.0111 41.0273 13.6514 41.2217 14.2347C41.4179 14.8215 41.6819 15.3263 42.0101 15.7348C42.3347 16.1397 42.7147 16.4911 43.1374 16.7765C43.5619 17.0636 44.0061 17.2759 44.4555 17.4079C44.9033 17.5399 45.3563 17.6077 45.8022 17.6077C46.6085 17.6077 47.3344 17.4115 47.9605 17.0262C48.1353 16.9174 48.2905 16.805 48.4225 16.6891V19.8105C48.4225 20.1726 48.5562 20.4883 48.8184 20.7452C49.0789 21.002 49.3946 21.1322 49.7549 21.1322C50.1152 21.1322 50.4309 21.002 50.6878 20.7434C50.9464 20.4848 51.0766 20.1708 51.0766 19.8105V8.38956C51.0766 8.02748 50.9464 7.71355 50.6878 7.4567C50.4291 7.19806 50.1152 7.06785 49.7549 7.06785M45.1886 15.0516C44.8997 14.9268 44.6321 14.7466 44.3913 14.5147C44.1559 14.2882 43.9615 13.9814 43.8116 13.6051C43.66 13.2234 43.5833 12.7953 43.5833 12.3333C43.5833 11.8713 43.66 11.4522 43.8116 11.0758C43.9615 10.7012 44.1577 10.3944 44.3931 10.1643C44.6321 9.93067 44.8997 9.74874 45.1886 9.62566C45.474 9.50259 45.7666 9.44016 46.0573 9.44016C46.3766 9.44016 46.6798 9.49367 46.9598 9.60248C47.2381 9.7095 47.5003 9.87538 47.7375 10.093C47.9676 10.3052 48.1567 10.6031 48.2958 10.9777C48.4403 11.363 48.5134 11.8196 48.5134 12.3333C48.5134 12.847 48.4403 13.2965 48.2958 13.6853C48.1549 14.0635 47.9676 14.3631 47.7411 14.5754C47.5057 14.7948 47.2435 14.9607 46.9598 15.0695C46.4087 15.2817 45.779 15.3049 45.1886 15.0516Z" fill="white"/>
<path d="M60.9742 7.11768C60.6139 7.11768 60.2982 7.24967 60.0378 7.51187C59.7773 7.77229 59.6454 8.08801 59.6454 8.44831V12.7845C59.5883 13.102 59.4456 13.4462 59.2208 13.8083C58.9925 14.1775 58.6661 14.5111 58.2487 14.7982C57.8438 15.0783 57.4318 15.2138 56.9859 15.2138C56.4971 15.2138 56.1154 15.048 55.8211 14.7091C55.5197 14.3612 55.3663 13.7833 55.3663 12.9949V8.45009C55.3663 8.08979 55.2343 7.77408 54.9721 7.51187C54.7117 7.25146 54.396 7.11768 54.0339 7.11768C53.6718 7.11768 53.3579 7.25145 53.0992 7.51365C52.8424 7.77407 52.7122 8.08979 52.7122 8.45009V13.1127C52.7122 13.8725 52.8192 14.5539 53.0314 15.1336C53.2473 15.7275 53.5541 16.2073 53.9411 16.5605C54.321 16.9083 54.7563 17.1688 55.2325 17.3364C55.7034 17.5023 56.2225 17.5861 56.7772 17.5861C57.2516 17.5861 57.7101 17.4952 58.1417 17.3168C58.5698 17.1384 58.9301 16.9119 59.2101 16.6408C59.3707 16.4856 59.5169 16.3286 59.6454 16.1717V16.2466C59.6454 16.6087 59.7773 16.9226 60.0395 17.1812C60.3 17.4381 60.6139 17.5701 60.9742 17.5701C61.3345 17.5701 61.6467 17.4399 61.9071 17.1812C62.1675 16.9226 62.3013 16.6087 62.3013 16.2466V8.45009C62.3013 8.08979 62.1693 7.77407 61.9089 7.51365C61.6484 7.25145 61.3345 7.11946 60.9742 7.11946" fill="white"/>
<path d="M72.3898 7.0625C72.0295 7.0625 71.7138 7.19271 71.4534 7.44956C71.2929 7.60831 71.1805 7.78668 71.1181 7.98645C70.9094 7.80095 70.6668 7.63507 70.3921 7.49059C69.8588 7.20698 69.2006 7.06429 68.4372 7.06429C67.8736 7.06429 67.3028 7.17844 66.7391 7.40497C66.1808 7.62972 65.6582 7.95435 65.1855 8.36995C64.7039 8.79268 64.3097 9.35633 64.0101 10.043C63.7122 10.728 63.5624 11.4985 63.5624 12.3315C63.5624 13.0111 63.6605 13.6514 63.8549 14.2347C64.0511 14.8215 64.3151 15.3263 64.6433 15.7348C64.9679 16.1397 65.3479 16.4911 65.7706 16.7765C66.1951 17.0636 66.6392 17.2759 67.0887 17.4079C67.5364 17.5399 67.9895 17.6077 68.4354 17.6077C69.2416 17.6077 69.9676 17.4115 70.5937 17.0262C70.7934 16.9031 70.9647 16.7747 71.1074 16.6427C71.168 16.8514 71.284 17.0387 71.4498 17.2028C71.7103 17.4596 72.026 17.5898 72.3863 17.5898C72.7466 17.5898 73.0623 17.4596 73.3191 17.201C73.5778 16.9423 73.708 16.6284 73.708 16.2681V8.38956C73.708 8.02748 73.576 7.71355 73.3191 7.4567C73.0605 7.19806 72.7466 7.06785 72.3863 7.06785M67.82 15.0516C67.5311 14.9268 67.2635 14.7466 67.0227 14.5147C66.7873 14.2882 66.5929 13.9814 66.443 13.6051C66.2914 13.2234 66.2147 12.7953 66.2147 12.3333C66.2147 11.8713 66.2914 11.4522 66.443 11.0758C66.5929 10.7012 66.7891 10.3944 67.0245 10.1643C67.2635 9.93067 67.5311 9.74874 67.82 9.62566C68.1054 9.50259 68.398 9.44016 68.6887 9.44016C69.008 9.44016 69.3112 9.49367 69.5912 9.60247C69.8695 9.7095 70.1317 9.87538 70.3689 10.093C70.599 10.3052 70.7881 10.6031 70.9272 10.9777C71.0717 11.363 71.1448 11.8196 71.1448 12.3333C71.1448 12.847 71.0717 13.2965 70.9272 13.6853C70.7863 14.0635 70.599 14.3631 70.3725 14.5754C70.137 14.7948 69.8748 14.9607 69.5912 15.0695C69.0401 15.2817 68.4104 15.3049 67.82 15.0516Z" fill="white"/>
<path d="M81.0782 7.0804C80.3576 7.0804 79.6708 7.27126 79.034 7.64583C78.6541 7.87057 78.3099 8.13456 78.0013 8.43779C77.9995 8.08283 77.8675 7.77069 77.6142 7.51205C77.3556 7.24985 77.0417 7.11607 76.6796 7.11607C76.3175 7.11607 76.0036 7.24807 75.7414 7.51027C75.4792 7.77069 75.3472 8.0864 75.3472 8.44849V16.2628C75.3472 16.6249 75.4792 16.9388 75.7414 17.1975C76.0018 17.4543 76.3175 17.5845 76.6778 17.5845C77.0381 17.5845 77.3538 17.4543 77.6107 17.1957C77.8693 16.9371 77.9995 16.6231 77.9995 16.2628V11.4843C78.2314 10.9064 78.5863 10.4462 79.0555 10.1162C79.5353 9.77912 80.1257 9.6061 80.8124 9.6061H81.1317C81.508 9.6061 81.8291 9.48303 82.0859 9.24223C82.3481 8.99608 82.4819 8.68928 82.4819 8.32898C82.4819 7.96868 82.3481 7.66545 82.0877 7.42643C81.8344 7.19634 81.4938 7.07861 81.0782 7.07861" fill="white"/>
<path d="M91.2506 8.33827C90.7618 7.94051 90.2267 7.62658 89.6595 7.40362C88.6267 6.99872 87.6314 6.96305 86.5826 7.26628C86.1153 7.40184 85.6533 7.61588 85.2056 7.90305C84.7597 8.19023 84.353 8.53804 83.9999 8.9358C83.6396 9.34249 83.3452 9.84727 83.1276 10.4395C82.91 11.0299 82.7994 11.672 82.7994 12.348C82.7994 13.024 82.9118 13.6751 83.133 14.2619C83.3542 14.8505 83.6503 15.3535 84.0106 15.7548C84.3655 16.1508 84.7722 16.4951 85.2217 16.7787C85.673 17.0641 86.1367 17.2745 86.604 17.4065C87.0696 17.5385 87.5316 17.6045 87.9757 17.6045C89.1868 17.6045 90.2463 17.2995 91.1132 16.7038C91.5056 16.4612 91.7125 16.0955 91.7125 15.6443C91.7125 15.2964 91.5984 15.0039 91.3754 14.7756C91.1507 14.5455 90.8581 14.4296 90.5085 14.4296C90.2588 14.4296 89.9966 14.5223 89.7148 14.715C89.2671 15.0574 88.6892 15.2304 87.9953 15.2304C87.4281 15.2304 86.9091 15.0432 86.4096 14.6561C86.0065 14.3439 85.7425 13.9426 85.607 13.4307H91.4485C91.9408 13.4307 92.3047 13.3237 92.5616 13.1025C92.8273 12.8742 92.9629 12.5175 92.9629 12.0448C92.9629 11.2849 92.8024 10.5714 92.4866 9.92218C92.1709 9.2747 91.7571 8.74138 91.2577 8.3347M90.2231 11.1226H85.6409C85.7336 10.8336 85.8745 10.5732 86.0618 10.3467C86.3276 10.0274 86.6272 9.79197 86.9519 9.64928C87.2818 9.5048 87.6207 9.43167 87.9596 9.43167C88.4965 9.43167 88.9853 9.60826 89.4544 9.97391C89.829 10.2647 90.0822 10.6428 90.2214 11.1208" fill="white"/>
<path d="M103.367 8.95154C103.044 8.54843 102.666 8.19704 102.245 7.90809C101.822 7.61913 101.382 7.4033 100.932 7.26774C100.483 7.13218 100.03 7.0644 99.5839 7.0644C98.8151 7.0644 98.1552 7.2071 97.6201 7.4907C97.3703 7.6227 97.1474 7.77074 96.953 7.93484V5.03456C96.953 4.67426 96.8227 4.35855 96.5659 4.09813C96.3073 3.83593 95.9933 3.70215 95.6312 3.70215C95.2692 3.70215 94.9552 3.83415 94.693 4.09635C94.4326 4.35677 94.2988 4.67247 94.2988 5.03456V16.2647C94.2988 16.6267 94.4326 16.9407 94.6948 17.1993C94.9552 17.4562 95.2709 17.5864 95.6312 17.5864C95.9915 17.5864 96.3073 17.4562 96.5641 17.1975C96.7282 17.0334 96.8424 16.8461 96.903 16.6375C97.0475 16.7712 97.2205 16.8997 97.4221 17.0227C98.0499 17.4098 98.7777 17.6042 99.5839 17.6042C100.03 17.6042 100.483 17.5364 100.931 17.4044C101.38 17.2724 101.822 17.0584 102.243 16.773C102.664 16.4876 103.042 16.138 103.365 15.7331C103.694 15.3247 103.957 14.8199 104.154 14.233C104.348 13.6498 104.446 13.0094 104.446 12.3298C104.446 11.6503 104.348 11.0224 104.152 10.4427C103.956 9.86301 103.692 9.36 103.364 8.95154M101.79 12.3281C101.79 12.79 101.714 13.2199 101.562 13.5998C101.412 13.978 101.216 14.283 100.982 14.5095C100.743 14.7414 100.474 14.9215 100.185 15.0464C99.5946 15.3015 98.965 15.2783 98.4156 15.0642C98.132 14.9554 97.868 14.7878 97.6343 14.5702C97.406 14.3579 97.2187 14.0582 97.0796 13.6801C96.9351 13.2913 96.862 12.8364 96.862 12.3281C96.862 11.8197 96.9351 11.3577 97.0796 10.9725C97.2205 10.5979 97.4078 10.3 97.6379 10.0878C97.8751 9.87014 98.1373 9.70426 98.4156 9.59724C98.6956 9.49022 98.9988 9.43492 99.3181 9.43492C99.6089 9.43492 99.9014 9.49735 100.187 9.62042C100.476 9.74528 100.743 9.92544 100.982 10.1591C101.218 10.3892 101.414 10.696 101.564 11.0706C101.715 11.4487 101.792 11.8714 101.792 12.3281" fill="white"/>
<path d="M113.973 7.06282C113.613 7.06282 113.297 7.19303 113.037 7.44988C112.876 7.60863 112.764 7.78699 112.701 7.98498C112.493 7.79948 112.25 7.6336 111.975 7.48733C111.442 7.20373 110.784 7.06104 110.02 7.06104C109.457 7.06104 108.884 7.17519 108.322 7.40172C107.764 7.62646 107.241 7.95109 106.769 8.36669C106.287 8.78942 105.893 9.35307 105.593 10.0398C105.295 10.7247 105.146 11.4953 105.146 12.3283C105.146 13.0078 105.244 13.6482 105.438 14.2315C105.634 14.8183 105.9 15.3231 106.226 15.7315C106.551 16.1364 106.931 16.486 107.354 16.7732C107.778 17.0604 108.222 17.2726 108.672 17.4046C109.121 17.5366 109.573 17.6044 110.019 17.6044C110.825 17.6044 111.553 17.4082 112.177 17.0229C112.377 16.8999 112.548 16.7714 112.691 16.6394C112.751 16.8481 112.865 17.0354 113.033 17.1995C113.293 17.4564 113.609 17.5866 113.969 17.5866C114.33 17.5866 114.645 17.4564 114.902 17.1977C115.161 16.9391 115.291 16.6252 115.291 16.2649V8.38631C115.291 8.02423 115.161 7.71029 114.902 7.45344C114.644 7.19481 114.33 7.0646 113.969 7.0646M109.403 15.0484C109.114 14.9235 108.845 14.7434 108.606 14.5115C108.37 14.285 108.176 13.9782 108.026 13.6018C107.875 13.2219 107.798 12.7938 107.798 12.33C107.798 11.8663 107.875 11.4489 108.026 11.0725C108.176 10.698 108.372 10.3912 108.608 10.1611C108.847 9.92742 109.114 9.74548 109.403 9.62241C109.689 9.49933 109.981 9.4369 110.272 9.4369C110.591 9.4369 110.894 9.49041 111.174 9.59922C111.453 9.70624 111.715 9.87212 111.952 10.0897C112.182 10.302 112.371 10.5999 112.512 10.9744C112.657 11.3597 112.73 11.8163 112.73 12.33C112.73 12.8437 112.657 13.2932 112.512 13.6821C112.371 14.0602 112.184 14.3599 111.957 14.5721C111.722 14.7915 111.458 14.9574 111.176 15.0662C110.625 15.2785 109.997 15.3017 109.405 15.0484" fill="white"/>
<path d="M125.294 7.0625C124.934 7.0625 124.618 7.19271 124.358 7.44956C124.197 7.60831 124.085 7.78668 124.022 7.98645C123.814 7.80095 123.571 7.63507 123.296 7.4888C122.763 7.2052 122.101 7.0625 121.332 7.0625C120.887 7.0625 120.433 7.13028 119.984 7.26584C119.534 7.4014 119.092 7.61723 118.671 7.90619C118.25 8.19514 117.874 8.54653 117.549 8.94964C117.221 9.35811 116.957 9.85932 116.761 10.4408C116.566 11.0187 116.467 11.6537 116.467 12.3262C116.467 12.9986 116.565 13.6461 116.759 14.2294C116.955 14.8162 117.219 15.321 117.547 15.7294C117.872 16.1343 118.25 16.4839 118.669 16.7693C119.092 17.0565 119.533 17.2688 119.984 17.4008C120.433 17.5328 120.885 17.6005 121.331 17.6005C122.137 17.6005 122.865 17.4043 123.493 17.019C123.671 16.9102 123.826 16.7961 123.96 16.6801V17.176C123.96 17.6951 123.773 18.1053 123.389 18.4282C122.995 18.7599 122.46 18.9276 121.803 18.9276C121.192 18.9276 120.592 18.8241 120.034 18.6226C119.936 18.5816 119.811 18.5619 119.654 18.5619C119.34 18.5619 119.069 18.6761 118.846 18.9026C118.625 19.1274 118.512 19.3985 118.512 19.7106C118.512 19.9336 118.573 20.1405 118.693 20.326C118.81 20.5115 118.973 20.6506 119.176 20.7434C120.007 21.1108 120.89 21.2981 121.803 21.2981C122.128 21.2981 122.465 21.2678 122.804 21.2071C123.139 21.1465 123.491 21.0537 123.851 20.9325C124.22 20.8058 124.572 20.6292 124.894 20.4081C125.214 20.1887 125.504 19.9336 125.76 19.6446C126.024 19.3468 126.234 18.9793 126.387 18.553C126.537 18.1303 126.614 17.6647 126.614 17.1724V8.38421C126.614 8.02212 126.484 7.7082 126.225 7.45135C125.966 7.19271 125.653 7.0625 125.292 7.0625M120.726 15.0463C120.437 14.9214 120.169 14.7413 119.929 14.5094C119.695 14.2829 119.499 13.9761 119.349 13.5997C119.197 13.218 119.121 12.7899 119.121 12.3279C119.121 11.866 119.197 11.4468 119.349 11.0704C119.499 10.6959 119.695 10.3891 119.93 10.159C120.169 9.92532 120.437 9.74338 120.726 9.62031C121.011 9.49723 121.304 9.43481 121.595 9.43481C121.914 9.43481 122.217 9.48832 122.497 9.59712C122.775 9.70415 123.038 9.87003 123.275 10.0876C123.505 10.2999 123.694 10.5978 123.833 10.9723C123.978 11.3576 124.051 11.8142 124.051 12.3279C124.051 12.8417 123.978 13.2911 123.833 13.68C123.692 14.0581 123.505 14.3578 123.278 14.57C123.043 14.7894 122.781 14.9553 122.497 15.0641C121.946 15.2764 121.316 15.2996 120.726 15.0463Z" fill="white"/>
<path d="M136.141 8.33827C135.652 7.94051 135.115 7.62658 134.548 7.40362C133.515 6.99872 132.52 6.96305 131.471 7.26628C131.005 7.40184 130.542 7.61588 130.094 7.90305C129.648 8.19023 129.241 8.53804 128.888 8.9358C128.528 9.34248 128.233 9.84727 128.016 10.4395C127.798 11.0281 127.688 11.672 127.688 12.348C127.688 13.024 127.8 13.6751 128.021 14.2637C128.244 14.8523 128.538 15.3553 128.899 15.7566C129.254 16.1526 129.66 16.4969 130.11 16.7805C130.561 17.0659 131.027 17.2763 131.492 17.4083C131.958 17.5403 132.42 17.6063 132.862 17.6063C134.073 17.6063 135.133 17.3013 136 16.7055C136.392 16.463 136.599 16.0973 136.599 15.646C136.599 15.2982 136.485 15.0057 136.262 14.7774C136.037 14.5473 135.745 14.4313 135.395 14.4313C135.145 14.4313 134.883 14.5241 134.601 14.7167C134.153 15.0592 133.576 15.2322 132.882 15.2322C132.315 15.2322 131.795 15.0449 131.296 14.6579C130.893 14.3457 130.629 13.9444 130.493 13.4325H136.335C136.827 13.4325 137.191 13.3255 137.448 13.1043C137.714 12.8742 137.849 12.5192 137.849 12.0466C137.849 11.2867 137.689 10.5732 137.371 9.92397C137.056 9.27649 136.644 8.74317 136.142 8.33649M135.108 11.1244H130.525C130.618 10.8354 130.759 10.575 130.946 10.3485C131.212 10.0292 131.512 9.79554 131.836 9.65106C132.166 9.50659 132.505 9.43345 132.844 9.43345C133.381 9.43345 133.87 9.61004 134.339 9.9757C134.714 10.2664 134.967 10.6446 135.106 11.1226" fill="white"/>
<path d="M141.602 4.09991C141.338 3.83593 141.015 3.70215 140.644 3.70215C140.273 3.70215 139.951 3.83593 139.685 4.09813C139.417 4.36211 139.282 4.68318 139.282 5.05062V16.2433C139.282 16.6125 139.417 16.9318 139.687 17.194C139.952 17.4526 140.275 17.5846 140.644 17.5846C141.014 17.5846 141.336 17.4526 141.6 17.1922C141.866 16.9318 142 16.6125 142 16.2433V5.05062C142 4.68318 141.866 4.3639 141.602 4.09813" fill="white"/>
</svg>
