<svg width="186" height="36" viewBox="0 0 186 36" fill="none" xmlns="http://www.w3.org/2000/svg">
<path d="M32.8105 10.6027C32.83 10.496 31.1986 9.61325 31.229 9.51139C30.9236 9.56232 30.3348 8.23572 30.0124 8.17751C28.9212 7.98228 28.6985 8.57283 28.4309 7.57121C28.1037 7.63547 28.2545 6.67387 27.9066 6.61081C26.4029 6.34161 27.0659 4.82463 27.336 3.32705C27.3993 2.97539 25.6985 2.03683 25.8761 1.75065C25.2241 1.36383 24.5829 2.00045 24.4163 1.26561C23.9114 1.26803 23.7764 1.04976 23.2715 1.04248C21.46 1.01338 19.7739 0.324616 17.9649 0.282174C16.196 0.239733 14.2507 0.346443 12.5792 0.901821C12.2969 0.995192 12.0025 1.04855 11.7033 1.04855C11.7033 1.04855 7.38692 1.02308 7.38449 1.02308C5.2543 1.02308 3.58032 2.51339 2.63992 4.41841C2.11194 5.48914 1.79928 6.37557 1.49028 7.513C1.15086 8.76199 0.947691 10.0122 0.936742 11.3303C0.93066 12.2107 0.813871 13.0328 0.840635 13.9132C0.868616 14.8251 0.658152 15.726 0.583942 16.6355C0.416057 18.6921 0.946475 20.7099 1.32482 22.7143C1.68492 24.6242 0.815087 26.3898 0.815087 28.3069C0.815087 30.2241 2.56328 32.636 4.31877 33.6242C5.28836 34.1699 6.28107 34.2451 7.30906 34.4294C8.66309 34.6719 9.7811 35.2176 11.2069 35.277C12.1485 35.3171 13.2422 35.3134 14.1838 35.2795C15.5135 35.231 16.6583 35.2928 17.9892 35.3061C19.8347 35.3243 21.8798 35.4177 23.6863 35.0976C25.6791 34.7435 27.0623 35.1582 29.0392 35.0976C31.982 35.0078 33.4237 31.5616 34.392 28.3069C34.392 28.3069 34.6305 26.9245 34.6305 26.9209C34.6305 25.8926 35.3422 25.0207 35.5088 24.0131C35.6268 23.3 35.712 22.581 35.7692 21.8582C35.813 21.2932 35.8397 20.7257 35.8507 20.1606C35.9054 17.3243 35.7643 16.7289 35.3653 13.9981C35.1913 14.0005 34.2047 13.302 34.0271 13.2705C32.5234 13.0013 32.5404 12.1015 32.8105 10.6027Z" fill="#01AFBA"/>
<path d="M34.3919 28.3068C34.3919 28.3068 34.6303 26.9244 34.6303 26.9207C34.6303 25.8924 35.342 25.0206 35.5087 24.0129C35.6267 23.2999 35.7118 22.5808 35.769 21.8581C35.8128 21.293 35.8396 20.7255 35.8505 20.1604C35.9053 17.3241 35.7642 16.7287 35.3651 13.9979C35.1972 14.0003 34.2824 13.3576 34.0537 13.2788C34.2045 15.4336 34.4515 18.4349 34.0269 21.3948C33.404 25.7409 32.0537 26.6855 30.9855 30.4895C30.1339 33.521 28.0658 32.7934 23.9295 32.4297C19.4209 32.0331 16.1435 33.8848 9.6958 32.0659C7.03276 31.3153 4.1033 31.6657 0.959717 29.352C1.41228 31.0679 2.86241 32.8044 4.31984 33.6241C5.28944 34.1698 6.28215 34.2449 7.31014 34.4293C8.66416 34.6718 9.78218 35.2175 11.208 35.2769C12.1496 35.3169 13.2433 35.3133 14.1849 35.2793C15.5146 35.2308 16.6594 35.2926 17.9903 35.306C19.8358 35.3242 21.8808 35.4175 23.6874 35.0974C25.6801 34.7433 27.0633 35.158 29.0402 35.0974C31.9831 35.0077 33.4247 31.5614 34.3931 28.3068" fill="#FDFCDD"/>
<path d="M11.7638 21.5161C17.8465 14.3616 21.3745 17.2719 25.0242 18.6058C24.2943 12.5427 19.4427 9.92226 14.5618 11.4514C10.3039 12.7852 9.209 18.7271 11.7638 21.5161Z" fill="#FDFCDD"/>
<path d="M16.4793 35.796C15.0681 35.7451 13.6581 35.6602 12.2518 35.5074C8.80041 35.1327 3.49623 34.5603 1.31129 31.4548C-0.17412 29.3424 -0.0597641 26.4419 0.0716239 23.9912C0.240725 20.8408 0.153132 17.6819 0.336832 14.5315C0.633672 9.45189 1.71032 0.394865 8.32109 0.0189543C9.60699 -0.0538026 10.8929 0.102625 12.1788 0.15598C14.5 0.251777 16.8187 0.0141039 19.1399 0.0698842C21.4489 0.125665 23.5621 0.923566 25.8371 1.08848C26.0427 1.10303 26.2482 1.1188 26.4551 1.13699C26.7239 1.16245 26.9393 1.36981 26.9733 1.6378C27.0487 2.22592 27.3687 2.76674 27.8529 3.11961C27.9782 3.21056 28.0609 3.3488 28.0828 3.50159C28.1047 3.65438 28.0646 3.80959 27.9709 3.93207C27.803 4.15276 27.6801 4.39771 27.6059 4.66085C27.449 5.22229 27.5195 5.81041 27.8054 6.31728C28.0925 6.82537 28.5597 7.19037 29.1218 7.34801C29.3797 7.41955 29.651 7.44259 29.9247 7.41591C30.2276 7.3856 30.5013 7.59538 30.5512 7.8949C30.6899 8.72796 31.3055 9.41309 32.1181 9.63985C32.3566 9.70654 32.6072 9.7308 32.8639 9.71261C33.0634 9.69806 33.2556 9.78779 33.3724 9.94907C33.679 10.3698 33.2082 11.3315 33.3724 11.8977C33.595 12.6593 34.2471 13.3165 35.0415 13.4596C35.2349 13.4948 35.4491 13.5093 35.5938 13.6427C35.7422 13.7797 35.7714 13.9992 35.7921 14.1993C36.1121 17.34 36.0658 20.5182 35.6315 23.6456C35.415 25.2062 35.1023 26.7523 34.6972 28.2753C34.4855 29.072 34.2337 29.8529 33.9868 30.6387C33.8055 31.2171 33.8079 31.8562 33.5403 32.4007C32.7301 34.0498 31.3833 35.3303 29.5585 35.7608C28.196 36.0809 26.7774 36.0033 25.3784 35.956C22.4137 35.8566 19.4416 35.9039 16.4769 35.7984M12.871 34.4609C15.0608 34.6658 17.2555 34.8647 19.4562 34.8416C21.6947 34.8186 23.7993 34.5664 26.0439 34.7786C26.5828 34.8295 27.1388 34.8817 27.7032 34.918C30.2446 35.0817 32.6936 32.9281 32.9442 30.3101L33.078 28.9107C33.1449 28.2171 33.4539 27.6484 33.7532 27.0991C33.9576 26.7244 34.1498 26.3715 34.2459 26.0077C35.0829 22.8634 35.1109 19.7616 34.8371 16.5445C34.7824 15.9018 34.7264 15.2409 34.6863 14.5788C34.6437 14.5691 34.6011 14.5582 34.5585 14.5461C32.9138 14.0865 31.9004 12.4713 32.1546 10.8294C32.0366 10.81 31.9198 10.7846 31.8043 10.7518C30.7252 10.4511 29.8748 9.62287 29.5305 8.5776C29.2872 8.56547 29.0451 8.52667 28.8079 8.45997C27.9478 8.21988 27.2337 7.66086 26.7957 6.88479C26.3577 6.10871 26.2495 5.21016 26.4903 4.35284C26.5548 4.12366 26.6424 3.90418 26.7543 3.69561C26.359 3.29302 26.0694 2.79463 25.9186 2.25259C25.8626 2.24774 25.8054 2.2441 25.7495 2.24047C25.4392 2.21743 25.129 2.1956 24.8212 2.16043C22.9794 1.9555 21.2774 1.18792 19.4246 1.10546C17.4647 1.01694 15.5219 1.39285 13.5693 1.48258C10.2189 1.63658 6.20428 0.0541203 4.03029 3.56828C3.65681 4.17216 3.62518 4.81364 3.43175 5.46724C3.2371 6.12448 2.85389 6.71502 2.62152 7.37347C2.07772 8.91228 1.95485 10.5627 1.77359 12.173C1.50108 14.5873 1.08137 17.0089 1.20302 19.4475C1.32589 21.9018 1.55339 24.1367 1.30764 26.6153L1.24073 27.2931C1.07042 29.0732 1.91106 30.8849 3.3843 31.9095C3.95365 32.3061 4.5084 32.4273 5.15074 32.568C5.4123 32.625 5.68359 32.6844 5.97313 32.7657C7.02424 33.0603 7.9476 33.663 9.03277 33.9249C10.2347 34.2147 11.472 34.3311 12.7007 34.4463C12.7566 34.4512 12.8138 34.4573 12.8698 34.4621" fill="#0081A8"/>
<path d="M24.4671 19.279C24.1764 22.3202 21.0109 24.5065 17.3977 24.1634C13.7846 23.819 11.0923 21.076 11.3831 18.0348C11.675 14.9936 14.8393 12.8072 18.4525 13.1504C22.0656 13.4948 24.7579 16.2377 24.4659 19.2802" fill="white"/>
<path d="M18.5084 12.5769C14.585 12.2034 11.1313 14.6274 10.8101 17.9791C10.4889 21.3308 13.4196 24.3623 17.3442 24.7358C21.2688 25.1093 24.7214 22.6852 25.0426 19.3336C25.3637 15.9807 22.433 12.9504 18.5084 12.5769ZM17.4306 14.4516C22.4695 13.9981 23.3771 16.9071 23.6618 18.9031C23.9294 20.7887 22.5194 21.9007 21.3369 22.7447C19.7201 23.8991 17.5753 23.8287 15.6982 23.1788C13.7201 22.4937 12.04 21.1998 12.478 18.2495C12.8588 15.6788 15.0924 14.6626 17.4318 14.4528" fill="#0081A8"/>
<path d="M28.055 21.6386C27.9406 22.1939 27.6255 22.5977 27.3506 22.542C27.0756 22.4862 26.9455 21.9902 27.0586 21.4361C27.173 20.8819 27.4881 20.4769 27.763 20.5327C28.0379 20.5884 28.1681 21.0844 28.055 21.6386Z" fill="#FDFCDD"/>
<path d="M27.7763 21.5816C27.6619 22.137 27.3468 22.5408 27.0719 22.485C26.797 22.4292 26.6668 21.9333 26.7799 21.3791C26.8943 20.8237 27.2094 20.4199 27.4843 20.4757C27.7593 20.5315 27.8894 21.0274 27.7763 21.5816Z" fill="#0081A8"/>
<path d="M27.3918 27.8134C27.8735 28.1129 28.1448 28.5482 27.9964 28.7859C27.848 29.0235 27.337 28.9738 26.8541 28.6743C26.3711 28.3748 26.101 27.9395 26.2494 27.7018C26.3979 27.4641 26.9088 27.5138 27.3918 27.8134Z" fill="#FDFCDD"/>
<path d="M27.2411 28.0545C27.724 28.354 27.9941 28.7894 27.8457 29.027C27.6973 29.2647 27.1863 29.215 26.7033 28.9155C26.2216 28.6159 25.9503 28.1806 26.0987 27.9429C26.2471 27.7053 26.7581 27.755 27.2411 28.0545Z" fill="#0081A8"/>
<path d="M32.6231 22.4947C32.5087 23.0501 32.1936 23.4539 31.9187 23.3981C31.6437 23.3423 31.5136 22.8464 31.6279 22.291C31.7423 21.7368 32.0574 21.3318 32.3323 21.3888C32.6072 21.4446 32.7374 21.9405 32.6243 22.4947" fill="#FDFCDD"/>
<path d="M32.3431 22.4378C32.2287 22.9932 31.9136 23.397 31.6387 23.3412C31.3637 23.2854 31.2336 22.7895 31.3467 22.2341C31.4611 21.6799 31.7761 21.2749 32.0511 21.3307C32.326 21.3865 32.4562 21.8824 32.3431 22.4366" fill="#0081A8"/>
<path d="M27.7593 13.513C27.645 14.0683 27.3299 14.4721 27.055 14.4164C26.78 14.3606 26.6486 13.8646 26.763 13.3105C26.8773 12.7551 27.1924 12.3513 27.4674 12.4071C27.7423 12.4628 27.8737 12.9588 27.7593 13.513Z" fill="#FDFCDD"/>
<path d="M27.4795 13.4558C27.3651 14.0112 27.0501 14.415 26.7751 14.3592C26.5002 14.3035 26.37 13.8075 26.4844 13.2533C26.5987 12.698 26.9138 12.2942 27.1887 12.3499C27.4637 12.4057 27.5939 12.9017 27.4807 13.4558" fill="#0081A8"/>
<path d="M19.1412 28.6524C19.0268 29.2078 18.7117 29.6116 18.4368 29.5558C18.1618 29.5 18.0317 29.004 18.1448 28.4499C18.2592 27.8945 18.5742 27.4907 18.8492 27.5465C19.1241 27.6022 19.2543 28.0982 19.1412 28.6524Z" fill="#FDFCDD"/>
<path d="M18.8611 28.5954C18.7468 29.1508 18.4317 29.5546 18.1568 29.4988C17.8818 29.4431 17.7504 28.9471 17.8648 28.3929C17.9791 27.8388 18.2942 27.4338 18.5692 27.4895C18.8441 27.5453 18.9755 28.0413 18.8611 28.5954Z" fill="#0081A8"/>
<path d="M23.1608 9.35964C22.7521 9.64218 22.3056 9.70887 22.1657 9.50636C22.0258 9.30507 22.2435 8.91218 22.6523 8.62843C23.0623 8.34589 23.5075 8.2792 23.6474 8.4817C23.7873 8.68421 23.5696 9.07589 23.1608 9.35964Z" fill="#FDFCDD"/>
<path d="M23.0182 9.15483C22.6095 9.43737 22.163 9.50407 22.0231 9.30156C21.8832 9.10027 22.101 8.70738 22.5097 8.42363C22.9197 8.14109 23.365 8.07439 23.5049 8.2769C23.6448 8.47941 23.427 8.87108 23.0182 9.15483Z" fill="#0081A8"/>
<path d="M12.691 26.6575C12.1545 26.8455 11.6448 26.7837 11.5511 26.5205C11.4574 26.2562 11.8163 25.89 12.3528 25.702C12.8893 25.514 13.3991 25.5759 13.4927 25.839C13.5864 26.1034 13.2275 26.4696 12.691 26.6575Z" fill="#FDFCDD"/>
<path d="M12.5972 26.3896C12.0607 26.5776 11.5509 26.5157 11.4572 26.2526C11.3636 25.9882 11.7225 25.622 12.259 25.4341C12.7955 25.2461 13.3052 25.3079 13.3989 25.5711C13.4925 25.8354 13.1337 26.2016 12.5972 26.3896Z" fill="#0081A8"/>
<path d="M5.9889 21.2229C5.49498 20.9428 5.20666 20.5184 5.34534 20.2759C5.48403 20.0321 5.99742 20.0624 6.49134 20.3413C6.98526 20.6214 7.27358 21.0459 7.1349 21.2884C6.99621 21.5321 6.48282 21.5018 5.9889 21.2229Z" fill="#FDFCDD"/>
<path d="M6.13014 20.9755C5.63622 20.6954 5.34789 20.2709 5.48658 20.0284C5.62527 19.7847 6.13865 19.815 6.63257 20.0939C7.1265 20.374 7.41482 20.7984 7.27613 21.041C7.13745 21.2847 6.62406 21.2544 6.13014 20.9755Z" fill="#0081A8"/>
<path d="M5.91462 12.6543C5.50951 12.2565 5.34041 11.7727 5.53749 11.5738C5.73457 11.3738 6.22241 11.535 6.62753 11.9316C7.03264 12.3281 7.20174 12.8119 7.00466 13.012C6.80758 13.2121 6.31974 13.052 5.91462 12.6543Z" fill="#FDFCDD"/>
<path d="M6.11409 12.4508C5.70897 12.0542 5.53987 11.5704 5.73695 11.3703C5.93404 11.1702 6.42187 11.3315 6.82699 11.728C7.2321 12.1246 7.4012 12.6084 7.20412 12.8085C7.00704 13.0086 6.5192 12.8473 6.11409 12.4508Z" fill="#0081A8"/>
<path d="M7.32816 30.3065C6.88777 30.6642 6.38533 30.777 6.20893 30.56C6.03253 30.3429 6.24543 29.8773 6.68704 29.5195C7.12865 29.1618 7.62987 29.049 7.80627 29.2661C7.98389 29.4832 7.76977 29.9488 7.32816 30.3065Z" fill="#FDFCDD"/>
<path d="M7.14811 30.0859C6.70772 30.4436 6.2065 30.5564 6.02888 30.3393C5.85248 30.1223 6.06538 29.6566 6.50699 29.2989C6.94859 28.9412 7.44982 28.8284 7.62622 29.0455C7.80383 29.2625 7.58972 29.7282 7.14811 30.0859Z" fill="#0081A8"/>
<path d="M8.66652 5.99482C8.11055 5.87599 7.70909 5.55707 7.76748 5.28302C7.82709 5.00896 8.32467 4.88407 8.88063 5.00411C9.4366 5.12295 9.83806 5.44187 9.77967 5.71592C9.72006 5.98997 9.22248 6.11487 8.66652 5.99603" fill="#FDFCDD"/>
<path d="M8.72609 5.71598C8.17012 5.59715 7.76866 5.27823 7.82705 5.00418C7.88666 4.73013 8.38423 4.60523 8.9402 4.72528C9.49617 4.84411 9.89763 5.16303 9.83923 5.43708C9.77962 5.71113 9.28205 5.83603 8.72609 5.7172" fill="#0081A8"/>
<path d="M18.9573 4.66215C18.3916 4.72036 17.9099 4.5421 17.8819 4.2632C17.8527 3.9843 18.2882 3.71146 18.8527 3.65326C19.4184 3.59505 19.9001 3.7733 19.9281 4.05221C19.9573 4.33111 19.5218 4.60395 18.9573 4.66215Z" fill="#FDFCDD"/>
<path d="M18.9284 4.37953C18.3627 4.43773 17.8809 4.25948 17.8529 3.98058C17.8238 3.70168 18.2593 3.42884 18.8238 3.37063C19.3895 3.31243 19.8712 3.49068 19.8992 3.76958C19.9284 4.04848 19.4929 4.32132 18.9284 4.37953Z" fill="#0081A8"/>
<path d="M14.1436 8.82021C14.0451 9.29919 13.7726 9.64843 13.5353 9.59992C13.2981 9.55142 13.185 9.12336 13.2835 8.64438C13.3821 8.1654 13.6546 7.81616 13.8918 7.86467C14.129 7.91317 14.2422 8.34123 14.1436 8.82021Z" fill="#FDFCDD"/>
<path d="M13.9014 8.77047C13.8029 9.24945 13.5304 9.59868 13.2932 9.55018C13.0559 9.50167 12.9428 9.07362 13.0413 8.59464C13.1399 8.11565 13.4124 7.76642 13.6496 7.81492C13.8868 7.86343 14 8.29148 13.9014 8.77047Z" fill="#0081A8"/>
<path d="M31.7752 15.8133C31.6913 16.2183 31.4613 16.513 31.2606 16.4717C31.0599 16.4305 30.965 16.0691 31.0477 15.6641C31.1316 15.2591 31.3616 14.9645 31.5623 15.0057C31.763 15.0469 31.8579 15.4083 31.7752 15.8133Z" fill="#FDFCDD"/>
<path d="M31.5706 15.7721C31.4867 16.1771 31.2567 16.4718 31.056 16.4305C30.8553 16.3893 30.7604 16.0279 30.8431 15.6229C30.927 15.2179 31.157 14.9233 31.3577 14.9645C31.5584 15.0057 31.6533 15.3671 31.5706 15.7721Z" fill="#0081A8"/>
<path d="M55.0329 17.6629C54.6583 17.3677 54.2588 17.1248 53.8456 16.9432C53.4461 16.7684 52.9535 16.5982 52.3837 16.4393L50.6674 15.9648C49.7594 15.7151 49.6527 15.2883 49.6527 14.9909C49.6527 14.8456 49.689 14.6277 49.9977 14.3961C50.2611 14.1986 50.6107 14.0987 51.042 14.0987C51.7616 14.0987 52.311 14.3235 52.7242 14.7889C53.0602 15.1702 53.4756 15.3632 53.9591 15.3632C54.4018 15.3632 54.7855 15.2043 55.101 14.8933C55.4188 14.58 55.58 14.1986 55.58 13.7605C55.58 13.3723 55.4347 13.0091 55.1419 12.6754C54.6447 12.1351 54.0749 11.7287 53.4506 11.4676C52.8309 11.2088 51.9977 11.0794 50.9716 11.0794C50.1884 11.0794 49.4325 11.2338 48.7219 11.5357C48 11.8422 47.3961 12.3008 46.924 12.8978C46.4381 13.513 46.1907 14.21 46.1907 14.9705C46.1907 15.9943 46.5062 16.8297 47.126 17.4517C47.7208 18.0465 48.6515 18.521 49.8933 18.8615L51.6027 19.3337C52.0522 19.4676 52.37 19.6288 52.5448 19.815C52.7015 19.9807 52.7764 20.1941 52.7764 20.471C52.7764 20.6345 52.731 20.8819 52.3451 21.1407C52.0091 21.3655 51.5846 21.479 51.0851 21.479C50.5857 21.479 50.143 21.3995 49.7934 21.2406C49.4506 21.084 49.1305 20.8184 48.8558 20.462C48.5607 20.0511 48.1135 19.8331 47.5687 19.8331C47.1237 19.8331 46.7446 19.9875 46.4472 20.2894C46.1498 20.5914 46 20.9523 46 21.3655C46 21.8309 46.1771 22.269 46.5153 22.6527C46.9784 23.2179 47.6186 23.672 48.4154 24.0034C49.2009 24.3303 50.0749 24.496 51.0102 24.496C51.6322 24.496 52.2497 24.4075 52.8513 24.2304C53.4529 24.0533 54.0091 23.8014 54.5062 23.479C55.0193 23.1475 55.4393 22.7162 55.7571 22.1986C56.0795 21.6697 56.2406 21.0885 56.2406 20.4688C56.2406 19.849 56.1408 19.3155 55.9432 18.8524C55.7412 18.378 55.437 17.9784 55.0352 17.6629" fill="#0081A8"/>
<path d="M68.6016 11.0794C68.143 11.0794 67.7412 11.2452 67.4098 11.5721C67.2055 11.7741 67.0625 12.0011 66.983 12.2554C66.7174 12.0193 66.4086 11.8082 66.059 11.6243C65.3803 11.2633 64.5426 11.0817 63.571 11.0817C62.8536 11.0817 62.1272 11.227 61.4098 11.5153C60.6992 11.8013 60.0341 12.2145 59.4325 12.7435C58.8195 13.2815 58.3178 13.9989 57.9365 14.8729C57.5573 15.7446 57.3644 16.7253 57.3644 17.7855C57.3644 18.6504 57.4892 19.4654 57.7367 20.2077C57.9864 20.9546 58.3224 21.597 58.7401 22.1169C59.1533 22.6322 59.6368 23.0794 60.1748 23.4427C60.7151 23.8082 61.2804 24.0783 61.8525 24.2463C62.4223 24.4143 62.9989 24.5006 63.5664 24.5006C64.5925 24.5006 65.5165 24.2508 66.3133 23.7605C66.5358 23.622 66.7333 23.479 66.9013 23.3314V27.3042C66.9013 27.765 67.0715 28.1668 67.4052 28.4937C67.7367 28.8207 68.1385 28.9864 68.5971 28.9864C69.0556 28.9864 69.4575 28.8206 69.7844 28.4915C70.1135 28.1623 70.2793 27.7628 70.2793 27.3042V12.7684C70.2793 12.3076 70.1135 11.908 69.7844 11.5811C69.4552 11.252 69.0556 11.0862 68.5971 11.0862M62.7855 21.2474C62.4177 21.0885 62.0772 20.8592 61.7707 20.5641C61.4711 20.2758 61.2236 19.8853 61.0329 19.4063C60.84 18.9205 60.7424 18.3757 60.7424 17.7877C60.7424 17.1998 60.84 16.6663 61.0329 16.1873C61.2236 15.7105 61.4733 15.3201 61.773 15.0272C62.0772 14.7298 62.4177 14.4983 62.7855 14.3416C63.1487 14.185 63.521 14.1055 63.8911 14.1055C64.2974 14.1055 64.6833 14.1737 65.0397 14.3121C65.3939 14.4483 65.7276 14.6595 66.0295 14.9364C66.3224 15.2066 66.563 15.5857 66.7401 16.0624C66.924 16.5528 67.017 17.1339 67.017 17.7877C67.017 18.4415 66.924 19.0136 66.7401 19.5085C66.5607 19.9898 66.3224 20.3712 66.0341 20.6413C65.7344 20.9205 65.4007 21.1317 65.0397 21.2701C64.3383 21.5403 63.5369 21.5698 62.7855 21.2474Z" fill="#0081A8"/>
<path d="M82.8762 11.1498C82.4176 11.1498 82.0158 11.3178 81.6843 11.6515C81.3529 11.983 81.1849 12.3848 81.1849 12.8433V18.3621C81.1123 18.7662 80.9306 19.2043 80.6446 19.6651C80.354 20.1351 79.9386 20.5596 79.4074 20.9251C78.8921 21.2815 78.3677 21.454 77.8001 21.454C77.1781 21.454 76.6923 21.2429 76.3177 20.8116C75.9341 20.3689 75.7388 19.6334 75.7388 18.63V12.8456C75.7388 12.387 75.5708 11.9852 75.2371 11.6515C74.9057 11.3201 74.5039 11.1498 74.043 11.1498C73.5822 11.1498 73.1826 11.3201 72.8535 11.6538C72.5266 11.9852 72.3608 12.387 72.3608 12.8456V18.7798C72.3608 19.7469 72.497 20.6141 72.7672 21.3519C73.0419 22.1078 73.4323 22.7185 73.925 23.168C74.4085 23.6107 74.9624 23.9421 75.5686 24.1555C76.1679 24.3666 76.8285 24.4733 77.5345 24.4733C78.1384 24.4733 78.7218 24.3575 79.2712 24.1305C79.816 23.9035 80.2746 23.6152 80.631 23.2701C80.8353 23.0726 81.0215 22.8729 81.1849 22.6731V22.7684C81.1849 23.2293 81.3529 23.6288 81.6866 23.958C82.018 24.2849 82.4176 24.4529 82.8762 24.4529C83.3347 24.4529 83.732 24.2872 84.0635 23.958C84.3949 23.6288 84.5652 23.2293 84.5652 22.7684V12.8456C84.5652 12.387 84.3972 11.9852 84.0657 11.6538C83.7343 11.3201 83.3347 11.1521 82.8762 11.1521" fill="#0081A8"/>
<path d="M97.4051 11.0794C96.9466 11.0794 96.5447 11.2452 96.2133 11.5721C96.009 11.7741 95.866 12.0011 95.7865 12.2554C95.5209 12.0193 95.2122 11.8082 94.8626 11.6243C94.1838 11.2633 93.3461 11.0817 92.3745 11.0817C91.6571 11.0817 90.9307 11.227 90.2133 11.5153C89.5027 11.8013 88.8376 12.2145 88.236 12.7435C87.6231 13.2815 87.1214 13.9989 86.74 14.8729C86.3609 15.7446 86.1702 16.7253 86.1702 17.7855C86.1702 18.6504 86.295 19.4654 86.5425 20.2077C86.7922 20.9546 87.1282 21.597 87.5459 22.1169C87.959 22.6322 88.4426 23.0794 88.9806 23.4427C89.5209 23.8082 90.0862 24.0783 90.6582 24.2463C91.2281 24.4143 91.8047 24.5006 92.3722 24.5006C93.3983 24.5006 94.3223 24.2508 95.1191 23.7605C95.3733 23.6038 95.5913 23.4404 95.7729 23.2724C95.8501 23.538 95.9976 23.7764 96.2088 23.9852C96.5402 24.3121 96.942 24.4779 97.4006 24.4779C97.8592 24.4779 98.261 24.3121 98.5879 23.983C98.917 23.6538 99.0828 23.2542 99.0828 22.7957V12.7684C99.0828 12.3076 98.9148 11.908 98.5879 11.5811C98.2587 11.252 97.8592 11.0862 97.4006 11.0862M91.589 21.2474C91.2212 21.0885 90.8807 20.8592 90.5743 20.5641C90.2746 20.2758 90.0271 19.8853 89.8365 19.4063C89.6435 18.9205 89.5459 18.3757 89.5459 17.7877C89.5459 17.1998 89.6435 16.6663 89.8365 16.1873C90.0271 15.7105 90.2769 15.3201 90.5765 15.0272C90.8807 14.7298 91.2212 14.4983 91.589 14.3416C91.9522 14.185 92.3245 14.1055 92.6946 14.1055C93.1009 14.1055 93.4869 14.1737 93.8433 14.3121C94.1974 14.4483 94.5311 14.6595 94.8331 14.9364C95.1259 15.2066 95.3665 15.5857 95.5436 16.0624C95.7275 16.5528 95.8206 17.1339 95.8206 17.7877C95.8206 18.4415 95.7275 19.0136 95.5436 19.5085C95.3643 19.9898 95.1259 20.3712 94.8376 20.6413C94.5379 20.9205 94.2042 21.1317 93.8433 21.2701C93.1418 21.5403 92.3404 21.5698 91.589 21.2474Z" fill="#0081A8"/>
<path d="M108.463 11.1022C107.546 11.1022 106.672 11.3451 105.862 11.8218C105.378 12.1078 104.94 12.4438 104.547 12.8297C104.545 12.378 104.377 11.9807 104.055 11.6515C103.725 11.3178 103.326 11.1476 102.865 11.1476C102.404 11.1476 102.005 11.3156 101.671 11.6493C101.337 11.9807 101.169 12.3825 101.169 12.8434V22.7889C101.169 23.2497 101.337 23.6493 101.671 23.9784C102.002 24.3053 102.404 24.4711 102.863 24.4711C103.321 24.4711 103.723 24.3053 104.05 23.9762C104.379 23.647 104.545 23.2475 104.545 22.7889V16.7072C104.84 15.9716 105.292 15.3859 105.889 14.966C106.499 14.5369 107.251 14.3167 108.125 14.3167H108.531C109.01 14.3167 109.419 14.16 109.746 13.8536C110.08 13.5403 110.25 13.1498 110.25 12.6913C110.25 12.2327 110.08 11.8468 109.748 11.5426C109.426 11.2497 108.992 11.0999 108.463 11.0999" fill="#0081A8"/>
<path d="M121.41 12.7026C120.788 12.1964 120.107 11.7968 119.385 11.5131C118.07 10.9977 116.804 10.9523 115.469 11.3383C114.874 11.5108 114.286 11.7832 113.716 12.1487C113.149 12.5142 112.631 12.9569 112.182 13.4631C111.723 13.9807 111.348 14.6232 111.072 15.3769C110.795 16.1283 110.654 16.9455 110.654 17.8059C110.654 18.6663 110.797 19.4949 111.078 20.2418C111.36 20.9909 111.737 21.6311 112.195 22.1419C112.647 22.6459 113.165 23.084 113.737 23.445C114.311 23.8082 114.901 24.0761 115.496 24.2441C116.089 24.412 116.677 24.496 117.242 24.496C118.783 24.496 120.132 24.1078 121.235 23.3496C121.734 23.0409 121.998 22.5755 121.998 22.0011C121.998 21.5585 121.852 21.1862 121.569 20.8956C121.283 20.6027 120.91 20.4552 120.465 20.4552C120.148 20.4552 119.814 20.5732 119.455 20.8184C118.885 21.2543 118.15 21.4745 117.267 21.4745C116.545 21.4745 115.884 21.2361 115.249 20.7435C114.736 20.3462 114.4 19.8354 114.227 19.1839H121.662C122.288 19.1839 122.751 19.0477 123.078 18.7662C123.417 18.4756 123.589 18.0216 123.589 17.42C123.589 16.4529 123.385 15.5448 122.983 14.7185C122.581 13.8944 122.054 13.2157 121.419 12.6981M120.102 16.2463H114.27C114.388 15.8786 114.568 15.5471 114.806 15.2588C115.144 14.8524 115.526 14.5528 115.939 14.3712C116.359 14.1873 116.79 14.0942 117.221 14.0942C117.905 14.0942 118.527 14.319 119.124 14.7843C119.6 15.1544 119.923 15.6356 120.1 16.244" fill="#0081A8"/>
<path d="M136.831 13.4835C136.42 12.9705 135.939 12.5233 135.403 12.1555C134.865 11.7877 134.304 11.5131 133.732 11.3405C133.16 11.168 132.584 11.0817 132.016 11.0817C131.038 11.0817 130.198 11.2633 129.517 11.6243C129.199 11.7923 128.915 11.9807 128.668 12.1896V8.49829C128.668 8.03972 128.502 7.6379 128.175 7.30646C127.846 6.97275 127.446 6.80249 126.985 6.80249C126.525 6.80249 126.125 6.97049 125.791 7.3042C125.46 7.63564 125.29 8.03745 125.29 8.49829V22.7911C125.29 23.252 125.46 23.6515 125.794 23.9807C126.125 24.3076 126.527 24.4733 126.985 24.4733C127.444 24.4733 127.846 24.3076 128.173 23.9784C128.381 23.7696 128.527 23.5312 128.604 23.2656C128.788 23.4359 129.008 23.5993 129.265 23.756C130.064 24.2486 130.99 24.496 132.016 24.496C132.584 24.496 133.16 24.4098 133.73 24.2418C134.302 24.0738 134.865 23.8014 135.401 23.4381C135.937 23.0749 136.418 22.63 136.829 22.1146C137.246 21.5948 137.582 20.9523 137.832 20.2054C138.08 19.4631 138.204 18.6481 138.204 17.7832C138.204 16.9183 138.08 16.1192 137.83 15.3814C137.58 14.6436 137.244 14.0034 136.826 13.4835M134.824 17.7809C134.824 18.3689 134.727 18.916 134.534 19.3995C134.343 19.8808 134.093 20.269 133.796 20.5573C133.492 20.8524 133.149 21.0817 132.781 21.2406C132.03 21.5653 131.228 21.5358 130.529 21.2633C130.168 21.1249 129.832 20.9115 129.535 20.6345C129.244 20.3644 129.006 19.983 128.829 19.5017C128.645 19.0068 128.552 18.4279 128.552 17.7809C128.552 17.1339 128.645 16.546 128.829 16.0556C129.008 15.5789 129.246 15.1998 129.539 14.9296C129.841 14.6527 130.175 14.4415 130.529 14.3053C130.885 14.1691 131.271 14.0987 131.678 14.0987C132.048 14.0987 132.42 14.1782 132.783 14.3348C133.151 14.4937 133.492 14.723 133.796 15.0204C134.095 15.3133 134.345 15.7037 134.536 16.1805C134.729 16.6617 134.826 17.1998 134.826 17.7809" fill="#0081A8"/>
<path d="M150.329 11.0794C149.871 11.0794 149.469 11.2452 149.137 11.5721C148.933 11.7741 148.79 12.0011 148.711 12.2531C148.445 12.017 148.136 11.8059 147.787 11.6197C147.108 11.2588 146.27 11.0772 145.299 11.0772C144.581 11.0772 143.852 11.2225 143.137 11.5108C142.427 11.7968 141.762 12.21 141.16 12.7389C140.547 13.2769 140.045 13.9943 139.664 14.8683C139.285 15.7401 139.094 16.7208 139.094 17.7809C139.094 18.6459 139.219 19.4608 139.467 20.2032C139.716 20.95 140.055 21.5925 140.47 22.1124C140.883 22.6277 141.367 23.0726 141.905 23.4381C142.445 23.8036 143.01 24.0738 143.582 24.2418C144.154 24.4098 144.729 24.496 145.296 24.496C146.322 24.496 147.249 24.2463 148.043 23.7559C148.297 23.5993 148.515 23.4359 148.697 23.2679C148.774 23.5335 148.919 23.7718 149.133 23.9807C149.464 24.3076 149.866 24.4733 150.325 24.4733C150.783 24.4733 151.185 24.3076 151.512 23.9784C151.841 23.6493 152.007 23.2497 152.007 22.7911V12.7639C152.007 12.3031 151.841 11.9035 151.512 11.5766C151.183 11.2474 150.783 11.0817 150.325 11.0817M144.513 21.2429C144.145 21.084 143.803 20.8547 143.498 20.5596C143.199 20.2713 142.951 19.8808 142.761 19.4018C142.568 18.9183 142.47 18.3734 142.47 17.7832C142.47 17.193 142.568 16.6617 142.761 16.1827C142.951 15.706 143.201 15.3155 143.501 15.0227C143.805 14.7253 144.145 14.4937 144.513 14.3371C144.876 14.1805 145.249 14.101 145.619 14.101C146.025 14.101 146.411 14.1691 146.767 14.3076C147.121 14.4438 147.455 14.6549 147.757 14.9319C148.05 15.202 148.291 15.5812 148.47 16.0579C148.654 16.5482 148.747 17.1294 148.747 17.7832C148.747 18.437 148.654 19.0091 148.47 19.504C148.291 19.9852 148.052 20.3666 147.764 20.6368C147.464 20.916 147.128 21.1271 146.77 21.2656C146.068 21.5358 145.269 21.5653 144.515 21.2429" fill="#0081A8"/>
<path d="M164.738 11.0794C164.279 11.0794 163.878 11.2452 163.546 11.5721C163.342 11.7741 163.199 12.0011 163.119 12.2554C162.854 12.0193 162.545 11.8082 162.195 11.622C161.517 11.2611 160.674 11.0794 159.696 11.0794C159.128 11.0794 158.552 11.1657 157.98 11.3382C157.408 11.5108 156.845 11.7855 156.309 12.1532C155.773 12.521 155.294 12.9682 154.881 13.4813C154.463 14.0011 154.127 14.639 153.878 15.3791C153.63 16.1146 153.503 16.9228 153.503 17.7786C153.503 18.6345 153.628 19.4586 153.875 20.2009C154.125 20.9478 154.461 21.5902 154.879 22.1101C155.292 22.6254 155.773 23.0704 156.307 23.4336C156.845 23.7991 157.405 24.0692 157.98 24.2372C158.552 24.4052 159.126 24.4915 159.694 24.4915C160.72 24.4915 161.646 24.2418 162.445 23.7514C162.672 23.6129 162.87 23.4676 163.04 23.3201V23.9512C163.04 24.6118 162.801 25.1339 162.313 25.5448C161.812 25.9671 161.131 26.1805 160.295 26.1805C159.517 26.1805 158.754 26.0488 158.043 25.7923C157.918 25.7401 157.759 25.7151 157.56 25.7151C157.16 25.7151 156.815 25.8604 156.531 26.1487C156.25 26.4347 156.107 26.7798 156.107 27.1771C156.107 27.4608 156.184 27.7242 156.336 27.9603C156.486 28.1964 156.692 28.3734 156.951 28.4915C158.009 28.9591 159.133 29.1975 160.295 29.1975C160.708 29.1975 161.137 29.1589 161.569 29.0817C161.996 29.0045 162.443 28.8865 162.901 28.7321C163.371 28.5709 163.818 28.3462 164.229 28.0647C164.636 27.7855 165.006 27.4608 165.33 27.0931C165.666 26.7139 165.934 26.2463 166.129 25.7037C166.32 25.1657 166.418 24.5732 166.418 23.9466V12.7616C166.418 12.3008 166.252 11.9012 165.923 11.5743C165.594 11.2452 165.194 11.0794 164.736 11.0794M158.924 21.2406C158.556 21.0817 158.216 20.8524 157.909 20.5573C157.612 20.269 157.362 19.8785 157.171 19.3995C156.979 18.9137 156.881 18.3689 156.881 17.7809C156.881 17.1929 156.979 16.6595 157.171 16.1805C157.362 15.7037 157.612 15.3133 157.912 15.0204C158.216 14.723 158.556 14.4915 158.924 14.3348C159.287 14.1782 159.66 14.0987 160.03 14.0987C160.436 14.0987 160.822 14.1668 161.178 14.3053C161.532 14.4415 161.866 14.6527 162.168 14.9296C162.461 15.1998 162.702 15.5789 162.879 16.0556C163.063 16.546 163.156 17.1271 163.156 17.7809C163.156 18.4347 163.063 19.0068 162.879 19.5017C162.699 19.983 162.461 20.3643 162.173 20.6345C161.873 20.9137 161.539 21.1248 161.178 21.2633C160.477 21.5335 159.675 21.563 158.924 21.2406Z" fill="#0081A8"/>
<path d="M178.543 12.7026C177.921 12.1964 177.237 11.7968 176.515 11.5131C175.201 10.9977 173.934 10.9523 172.599 11.3383C172.007 11.5108 171.417 11.7832 170.847 12.1487C170.279 12.5142 169.762 12.9569 169.312 13.4631C168.854 13.9807 168.479 14.6232 168.202 15.3769C167.925 16.126 167.784 16.9455 167.784 17.8059C167.784 18.6663 167.927 19.4949 168.209 20.2441C168.493 20.9932 168.867 21.6334 169.326 22.1442C169.778 22.6481 170.295 23.0863 170.867 23.4472C171.442 23.8105 172.034 24.0783 172.627 24.2463C173.219 24.4143 173.807 24.4983 174.37 24.4983C175.912 24.4983 177.26 24.1101 178.363 23.3519C178.863 23.0431 179.126 22.5778 179.126 22.0034C179.126 21.5607 178.981 21.1884 178.697 20.8979C178.411 20.605 178.039 20.4574 177.594 20.4574C177.276 20.4574 176.942 20.5755 176.584 20.8207C176.014 21.2565 175.278 21.4767 174.395 21.4767C173.673 21.4767 173.013 21.2384 172.377 20.7458C171.864 20.3485 171.528 19.8377 171.355 19.1862H178.79C179.417 19.1862 179.88 19.05 180.207 18.7685C180.545 18.4756 180.717 18.0238 180.717 17.4223C180.717 16.4552 180.513 15.5471 180.109 14.7208C179.707 13.8967 179.183 13.2179 178.545 12.7004M177.228 16.2486H171.396C171.514 15.8808 171.694 15.5494 171.932 15.2611C172.27 14.8547 172.652 14.5573 173.065 14.3734C173.485 14.1896 173.916 14.0965 174.347 14.0965C175.031 14.0965 175.653 14.3212 176.25 14.7866C176.727 15.1567 177.049 15.6379 177.226 16.2463" fill="#0081A8"/>
<path d="M185.494 7.30874C185.158 6.97275 184.747 6.80249 184.275 6.80249C183.802 6.80249 183.392 6.97275 183.053 7.30646C182.713 7.64245 182.54 8.05107 182.54 8.51872V22.7639C182.54 23.2338 182.713 23.6402 183.056 23.9739C183.394 24.3031 183.805 24.4711 184.275 24.4711C184.745 24.4711 185.155 24.3031 185.491 23.9716C185.83 23.6402 186 23.2338 186 22.7639V8.51872C186 8.05107 185.83 7.64472 185.494 7.30646" fill="#0081A8"/>
</svg>
