<svg width="480" height="751" viewBox="0 0 480 751" fill="none" xmlns="http://www.w3.org/2000/svg">
<g clip-path="url(#clip0_166_1235)">
<rect width="480" height="751" fill="#393939"/>
<path d="M471.26 629.511C471.036 629.048 462.323 630.227 462.154 629.752C461.128 630.8 455.165 627.367 453.768 628.045C449.045 630.347 449.843 633.23 446.018 630.143C444.945 631.304 442.835 627.201 441.327 627.932C434.817 631.103 433.116 623.442 429.965 616.953C429.224 615.43 420.089 616.589 419.969 614.997C416.391 615.339 415.716 619.568 413.024 617.22C411.098 618.64 409.971 618.182 408.017 619.565C401 624.516 392.619 626.592 385.574 631.485C378.683 636.266 371.533 642.111 366.685 648.91C365.865 650.056 364.887 651.083 363.741 651.919C363.741 651.919 347.143 663.885 347.134 663.892C338.977 669.845 336.733 680.23 338.457 690.152C339.427 695.728 340.708 699.996 342.703 705.214C344.895 710.945 347.611 716.3 351.253 721.377C353.69 724.765 355.54 728.239 358.103 731.535C360.759 734.949 362.471 738.987 364.729 742.676C369.834 751.02 377.504 757.263 384.555 763.881C391.271 770.187 392.875 779.378 398.233 786.719C403.591 794.059 417.026 798.408 426.509 797.286C431.747 796.665 435.758 794.179 440.209 792.012C446.071 789.156 451.877 788.121 457.502 784.363C461.219 781.885 465.397 778.814 468.907 776.053C473.863 772.151 478.419 769.188 483.552 765.52C490.669 760.431 498.76 755.073 504.783 748.799C511.423 741.874 517.878 739.596 525.278 733.838C536.295 725.27 532.183 708.046 526.795 692.878C526.795 692.878 523.845 686.918 523.834 686.904C520.961 682.967 521.249 677.64 519.071 673.316C517.53 670.256 515.846 667.265 514.045 664.338C512.634 662.052 511.15 659.804 509.613 657.61C501.895 646.597 499.691 644.712 490.531 635.371C489.872 635.866 484.142 635.949 483.374 636.325C476.864 639.497 474.415 636.004 471.26 629.511Z" fill="#01AFBA"/>
<path d="M526.794 692.877C526.794 692.877 523.843 686.918 523.833 686.904C520.959 682.967 521.247 677.64 519.069 673.315C517.528 670.256 515.845 667.264 514.044 664.337C512.632 662.051 511.149 659.804 509.611 657.609C501.894 646.597 499.69 644.711 490.53 635.37C489.894 635.849 484.595 635.945 483.499 636.282C490.098 644.111 499.432 654.912 506.079 667.433C515.84 685.814 513.31 693.205 519.851 710.755C525.063 724.742 515.111 727.737 498.257 737.904C479.886 748.986 472.512 765.235 442.741 776.291C430.447 780.86 420.21 790.389 401.707 790.316C408.236 795.621 418.641 798.217 426.512 797.282C431.75 796.662 435.761 794.175 440.212 792.008C446.074 789.152 451.88 788.117 457.505 784.359C461.223 781.881 465.4 778.811 468.91 776.049C473.866 772.147 478.422 769.184 483.555 765.516C490.672 760.428 498.764 755.07 504.786 748.795C511.426 741.87 517.882 739.592 525.281 733.835C536.298 725.266 532.187 708.042 526.798 692.874" fill="#FDFCDD"/>
<path d="M421.175 730.117C424.47 685.724 446.112 687.007 463.814 681.914C444.074 660.739 418.174 664.265 403.76 683.761C391.184 700.768 403.598 726.579 421.175 730.117Z" fill="#FDFCDD"/>
<path d="M479.14 771.615C473.594 775.364 467.958 778.979 462.147 782.325C447.884 790.536 425.976 803.169 408.931 797.385C397.34 793.448 389.671 782.022 383.325 772.272C375.168 759.737 366.004 747.887 357.902 735.311C344.842 715.032 323.652 677.345 347.913 657.43C352.634 653.557 357.994 650.562 363.067 647.173C372.222 641.052 380.436 633.662 389.48 627.388C398.477 621.148 408.798 618.298 417.969 612.571C418.797 612.052 419.628 611.538 420.471 611.03C421.571 610.376 422.975 610.568 423.855 611.499C425.787 613.54 428.524 614.716 431.364 614.714C432.098 614.712 432.801 615.01 433.312 615.534C433.823 616.058 434.103 616.764 434.086 617.495C434.06 618.809 434.275 620.091 434.726 621.306C435.694 623.894 437.608 625.948 440.119 627.09C442.638 628.233 445.447 628.325 448.04 627.358C449.227 626.911 450.33 626.241 451.304 625.374C452.379 624.411 454.013 624.449 455.041 625.457C457.901 628.259 462.172 629.162 465.918 627.759C467.017 627.348 468.044 626.74 468.977 625.953C469.7 625.34 470.687 625.146 471.584 625.437C473.934 626.192 474.819 631.189 477.031 632.899C480.011 635.192 484.345 635.886 487.786 634.214C488.625 633.808 489.486 633.265 490.413 633.371C491.364 633.481 492.089 634.24 492.728 634.948C502.73 646.079 511.436 658.378 518.513 671.566C522.046 678.146 525.17 684.94 527.875 691.904C529.291 695.546 530.51 699.24 531.76 702.938C532.683 705.66 534.478 708.1 534.975 710.933C536.482 719.511 534.904 728.178 529.12 734.926C524.798 739.96 519.15 743.628 513.661 747.356C502.031 755.262 490.784 763.749 479.137 771.631M461.593 776.587C470.55 771.252 479.509 765.88 487.871 759.641C496.377 753.297 503.731 746.449 512.918 740.988C515.124 739.677 517.398 738.323 519.661 736.885C529.849 730.409 533.207 715.319 526.85 704.594L523.451 698.862C521.769 696.019 521.363 692.978 520.973 690.039C520.709 688.033 520.458 686.144 519.81 684.483C514.227 670.104 505.665 658.15 495.626 646.597C493.62 644.289 491.559 641.915 489.554 639.492C489.364 639.574 489.171 639.651 488.974 639.724C481.392 642.561 472.997 639.209 469.382 632.212C468.876 632.467 468.358 632.696 467.824 632.894C462.852 634.758 457.281 633.963 453.041 630.923C452.076 631.557 451.04 632.085 449.946 632.493C445.981 633.977 441.685 633.833 437.839 632.085C433.993 630.338 431.067 627.2 429.594 623.244C429.2 622.186 428.922 621.101 428.768 619.99C426.128 619.553 423.627 618.454 421.535 616.801C421.307 616.938 421.078 617.084 420.853 617.227C419.601 618.005 418.352 618.789 417.075 619.514C409.45 623.877 400.789 625.695 393.464 630.558C385.712 635.696 379.324 642.565 372.099 648.366C359.701 658.319 339.907 663.48 341.404 683.011C341.662 686.367 343.334 688.912 344.42 691.955C345.511 695.016 345.694 698.348 346.645 701.518C348.863 708.93 353.005 715.592 356.812 722.265C362.516 732.271 367.677 742.716 374.958 751.713C382.288 760.767 389.405 768.688 395.391 778.865L397.029 781.647C401.352 788.939 409.634 793.526 418.139 793.332C421.427 793.259 423.89 792.173 426.743 790.916C427.903 790.404 429.108 789.873 430.444 789.375C435.292 787.565 440.512 787.292 445.399 785.262C450.811 783.013 455.873 780.001 460.9 777.008C461.128 776.87 461.364 776.733 461.592 776.595" fill="#0081A8"/>
<path d="M463.562 686.049C470.949 698.506 464.939 715.724 450.145 724.508C435.349 733.287 417.374 730.309 409.988 717.852C402.606 705.392 408.611 688.177 423.405 679.393C438.202 670.613 456.176 673.591 463.561 686.057" fill="#393939"/>
<path d="M422.016 677.04C405.95 686.575 399.5 705.509 407.638 719.24C415.775 732.971 435.469 736.387 451.54 726.849C467.611 717.311 474.055 698.38 465.918 684.649C457.777 670.914 438.087 667.502 422.016 677.04ZM423.128 687.231C441.154 671.411 452.76 680.013 459.428 686.86C465.723 693.332 463.432 701.53 461.263 708.066C458.299 717.005 449.89 722.73 440.886 725.488C431.397 728.393 421.348 728.134 414.78 715.614C409.053 704.707 414.765 694.573 423.136 687.232" fill="#0081A8"/>
<path d="M483.894 685.057C485.009 687.503 484.931 689.929 483.722 690.484C482.514 691.039 480.629 689.504 479.513 687.066C478.403 684.624 478.477 682.193 479.686 681.638C480.894 681.083 482.779 682.619 483.894 685.057Z" fill="#FDFCDD"/>
<path d="M482.668 685.617C483.782 688.063 483.705 690.489 482.496 691.044C481.287 691.599 479.403 690.064 478.287 687.626C477.173 685.18 477.251 682.753 478.459 682.198C479.668 681.643 481.553 683.179 482.668 685.617Z" fill="#0081A8"/>
<path d="M460.053 654.77C461.167 657.216 461.089 659.643 459.88 660.198C458.672 660.753 456.783 659.221 455.672 656.779C454.557 654.333 454.635 651.907 455.844 651.352C457.053 650.797 458.942 652.329 460.053 654.77Z" fill="#FDFCDD"/>
<path d="M458.822 655.333C459.936 657.78 459.858 660.206 458.65 660.761C457.441 661.316 455.557 659.781 454.446 657.339C453.331 654.893 453.409 652.467 454.618 651.912C455.826 651.357 457.711 652.892 458.827 655.33" fill="#0081A8"/>
<path d="M469.367 736.823C470.481 739.269 470.403 741.696 469.194 742.25C467.986 742.805 466.101 741.27 464.986 738.832C463.871 736.386 463.949 733.959 465.158 733.404C466.366 732.85 468.251 734.385 469.367 736.823Z" fill="#FDFCDD"/>
<path d="M468.136 737.388C469.25 739.834 469.172 742.261 467.963 742.816C466.755 743.371 464.866 741.839 463.755 739.397C462.644 736.956 462.718 734.525 463.927 733.97C465.135 733.415 467.025 734.947 468.136 737.388Z" fill="#0081A8"/>
<path d="M430.838 651.72C430.063 653.944 428.54 655.447 427.438 655.063C426.34 654.683 426.075 652.57 426.848 650.341C427.628 648.114 429.146 646.614 430.248 646.998C431.349 647.383 431.61 649.491 430.838 651.72Z" fill="#FDFCDD"/>
<path d="M429.72 651.335C428.944 653.559 427.421 655.062 426.32 654.678C425.221 654.298 424.957 652.185 425.729 649.956C426.509 647.729 428.028 646.229 429.129 646.613C430.231 646.997 430.492 649.106 429.72 651.335Z" fill="#0081A8"/>
<path d="M439.095 747.212C437.566 749.431 435.441 750.619 434.347 749.873C433.25 749.123 433.6 746.718 435.129 744.499C436.658 742.28 438.783 741.092 439.877 741.838C440.974 742.588 440.624 744.993 439.095 747.212Z" fill="#FDFCDD"/>
<path d="M437.986 746.448C436.457 748.668 434.333 749.855 433.238 749.11C432.141 748.359 432.492 745.954 434.02 743.735C435.549 741.516 437.674 740.328 438.768 741.074C439.865 741.824 439.515 744.229 437.986 746.448Z" fill="#0081A8"/>
<path d="M398.244 745.134C395.57 745.442 393.28 744.623 393.133 743.307C392.983 741.986 395.033 740.667 397.704 740.354C400.378 740.047 402.668 740.866 402.815 742.182C402.965 743.503 400.915 744.822 398.244 745.134Z" fill="#FDFCDD"/>
<path d="M398.094 743.793C395.42 744.101 393.13 743.281 392.983 741.965C392.833 740.644 394.883 739.326 397.554 739.013C400.228 738.705 402.518 739.524 402.665 740.841C402.815 742.162 400.764 743.48 398.094 743.793Z" fill="#0081A8"/>
<path d="M374.012 712.534C371.349 712.143 369.35 710.763 369.549 709.451C369.744 708.134 372.063 707.388 374.722 707.774C377.381 708.16 379.381 709.54 379.186 710.857C378.99 712.174 376.675 712.924 374.012 712.534Z" fill="#FDFCDD"/>
<path d="M374.207 711.198C371.548 710.812 369.548 709.432 369.744 708.115C369.939 706.798 372.258 706.052 374.917 706.438C377.577 706.824 379.576 708.204 379.381 709.521C379.185 710.838 376.867 711.584 374.207 711.198Z" fill="#0081A8"/>
<path d="M365.937 679.345C363.476 680.444 361.048 680.345 360.506 679.132C359.968 677.916 361.524 676.047 363.988 674.953C366.449 673.854 368.878 673.954 369.42 675.166C369.958 676.382 368.401 678.251 365.941 679.35" fill="#FDFCDD"/>
<path d="M365.386 678.111C362.925 679.209 360.497 679.11 359.955 677.898C359.417 676.682 360.973 674.813 363.437 673.719C365.898 672.62 368.326 672.719 368.869 673.932C369.406 675.148 367.85 677.016 365.39 678.115" fill="#0081A8"/>
<path d="M401.615 645.482C399.612 647.286 397.269 647.95 396.383 646.96C395.491 645.974 396.396 643.712 398.395 641.911C400.398 640.108 402.741 639.444 403.628 640.433C404.519 641.42 403.614 643.682 401.615 645.482Z" fill="#FDFCDD"/>
<path d="M400.714 644.48C398.711 646.284 396.368 646.948 395.482 645.958C394.59 644.972 395.496 642.71 397.494 640.91C399.497 639.106 401.84 638.442 402.727 639.431C403.618 640.418 402.713 642.68 400.714 644.48Z" fill="#0081A8"/>
<path d="M394.805 674.855C395.766 676.965 395.699 679.063 394.655 679.541C393.611 680.018 391.981 678.695 391.02 676.586C390.059 674.476 390.126 672.378 391.17 671.9C392.214 671.423 393.843 672.746 394.805 674.855Z" fill="#FDFCDD"/>
<path d="M393.738 675.341C394.699 677.45 394.632 679.549 393.588 680.026C392.544 680.504 390.915 679.181 389.953 677.072C388.992 674.962 389.059 672.863 390.103 672.386C391.147 671.909 392.777 673.232 393.738 675.341Z" fill="#0081A8"/>
<path d="M481.858 652.355C482.669 654.14 482.612 655.911 481.728 656.314C480.844 656.717 479.471 655.599 478.656 653.817C477.845 652.032 477.902 650.261 478.786 649.858C479.67 649.455 481.043 650.573 481.858 652.355Z" fill="#FDFCDD"/>
<path d="M480.96 652.769C481.771 654.554 481.714 656.325 480.83 656.728C479.946 657.131 478.573 656.013 477.758 654.231C476.947 652.445 477.004 650.674 477.888 650.271C478.772 649.868 480.145 650.987 480.96 652.769Z" fill="#0081A8"/>
<path d="M449 329L454 334L459 329" stroke="white" stroke-width="2" stroke-linecap="round" stroke-linejoin="round"/>
<path d="M449 389L454 394L459 389" stroke="white" stroke-width="2" stroke-linecap="round" stroke-linejoin="round"/>
<path d="M449 449L454 454L459 449" stroke="white" stroke-width="2" stroke-linecap="round" stroke-linejoin="round"/>
<path d="M449 511L454 516L459 511" stroke="white" stroke-width="2" stroke-linecap="round" stroke-linejoin="round"/>
</g>
<defs>
<clipPath id="clip0_166_1235">
<rect width="480" height="751" fill="white"/>
</clipPath>
</defs>
</svg>
