<svg width="198" height="233" viewBox="0 0 198 233" fill="none" xmlns="http://www.w3.org/2000/svg">
<g clip-path="url(#clip0_10_847)">
<path d="M34.8104 45.1816C34.8377 44.9094 34.8649 44.6303 34.9125 44.3581C34.9398 44.2016 34.9806 44.0519 35.0078 43.8953C35.0555 43.6503 35.1031 43.4122 35.1644 43.174C35.212 42.997 35.2733 42.8269 35.3209 42.6499C35.389 42.4322 35.4435 42.2144 35.5183 42.0034C35.6749 41.5611 35.8587 41.1255 36.0561 40.6899C36.1378 40.513 36.2263 40.3429 36.3148 40.1727C36.4169 39.9686 36.519 39.7644 36.6279 39.567C36.7436 39.3561 36.8661 39.1519 36.9954 38.9477C37.0771 38.8116 37.1588 38.6687 37.2473 38.5326C37.4311 38.2468 37.6285 37.9677 37.8327 37.6955C37.8667 37.6479 37.894 37.6071 37.928 37.5594C38.1662 37.2464 38.4113 36.9401 38.67 36.6407C38.7448 36.5522 38.8197 36.4705 38.9014 36.3889C39.092 36.1779 39.2826 35.9737 39.48 35.7764C39.5821 35.6743 39.6842 35.579 39.7863 35.4769C39.9701 35.3 40.1607 35.123 40.3513 34.9529C40.467 34.8508 40.5759 34.7556 40.6916 34.6603C40.8822 34.5037 41.0796 34.3472 41.277 34.1975C41.4063 34.0954 41.5357 33.9933 41.6718 33.8981C41.842 33.7756 42.019 33.6599 42.1959 33.5442C42.3797 33.4217 42.5635 33.2992 42.7541 33.1835C42.8903 33.1018 43.0264 33.027 43.1625 32.9521C43.462 32.782 43.7615 32.6254 44.0678 32.4757C44.2721 32.3804 44.4763 32.2783 44.6873 32.1899C44.7894 32.149 44.8915 32.1014 45.0004 32.0606C45.3544 31.9177 45.7083 31.7884 46.0759 31.6795C46.5047 31.5502 46.9268 31.4481 47.3488 31.3664C47.4849 31.3392 47.6143 31.3256 47.7504 31.3052C48.0363 31.2575 48.3154 31.2167 48.5945 31.1963C48.7442 31.1827 48.894 31.1759 49.0437 31.1691C49.3024 31.1554 49.5542 31.1554 49.8061 31.1554C49.949 31.1554 50.0988 31.1622 50.2417 31.1759C50.5821 31.1963 50.9156 31.2303 51.2355 31.2847C51.2696 31.2847 51.3104 31.2984 51.3445 31.3052C51.6235 31.3596 51.889 31.4277 52.1477 31.5025C52.2974 31.5434 52.454 31.591 52.6037 31.6386C52.8284 31.7135 53.053 31.802 53.264 31.8972C53.3593 31.9381 53.4614 31.9789 53.5567 32.0265C53.8562 32.1763 54.1489 32.3396 54.428 32.5233C54.4688 32.5506 54.5029 32.5778 54.5437 32.605C54.8228 32.7956 55.0883 32.9929 55.3401 33.2175L20.5976 2.07553C20.5023 1.98705 20.407 1.90539 20.3049 1.82372C20.1415 1.69442 19.9781 1.57872 19.808 1.45623C19.7671 1.429 19.7331 1.40178 19.6922 1.37456C19.6786 1.36775 19.6718 1.36095 19.6582 1.34734C19.4268 1.19762 19.1817 1.0547 18.9299 0.925396C18.8958 0.904979 18.855 0.891368 18.8209 0.877757C18.7256 0.830119 18.6235 0.789286 18.5282 0.748453C18.3853 0.687203 18.2492 0.612343 18.0994 0.557899C18.0245 0.530677 17.9429 0.51026 17.868 0.489844C17.7182 0.4354 17.5685 0.394566 17.4119 0.353733C17.303 0.319706 17.2009 0.278873 17.092 0.251651C16.9354 0.210818 16.7721 0.183596 16.6087 0.156374C16.5747 0.149568 16.5338 0.142763 16.4998 0.135957C16.2547 0.0951244 16.0097 0.0610969 15.7578 0.0338748C15.6761 0.0270693 15.5877 0.0338748 15.506 0.0270693C15.363 0.0202638 15.2201 0.0134583 15.0703 0.00665283C14.8185 0.00665283 14.5666 0.00665283 14.308 0.0202638C14.1582 0.0270693 14.0084 0.0338748 13.8587 0.0474859C13.5796 0.0747079 13.3005 0.115541 13.0146 0.156374C12.8785 0.17679 12.7492 0.197207 12.613 0.217623C12.191 0.299289 11.769 0.401372 11.3401 0.530677C10.9794 0.639565 10.6186 0.775675 10.2646 0.911785C10.1625 0.952618 10.0536 1.00026 9.95152 1.04109C9.82218 1.09553 9.68605 1.14317 9.55671 1.20442C9.48184 1.23845 9.40696 1.28609 9.33209 1.32011C9.02577 1.46984 8.72627 1.62636 8.42676 1.7965C8.33827 1.85094 8.23617 1.89178 8.14768 1.93942C8.10003 1.96664 8.05919 2.00067 8.01835 2.02108C7.82775 2.13678 7.64397 2.25927 7.46018 2.38177C7.33085 2.47024 7.1879 2.54511 7.05857 2.64038C7.01773 2.6676 6.97689 2.70163 6.93605 2.73566C6.79991 2.83094 6.67058 2.93302 6.54124 3.0351C6.40511 3.13718 6.26897 3.23246 6.13964 3.34135C6.07837 3.38899 6.02392 3.44343 5.96266 3.49788C5.84694 3.59315 5.73122 3.69524 5.62231 3.79051C5.5202 3.87898 5.4181 3.96065 5.3228 4.04912C5.23431 4.13079 5.14582 4.22606 5.05733 4.30773C4.95523 4.40301 4.85312 4.50509 4.75102 4.60717C4.68976 4.66842 4.6285 4.72287 4.57404 4.78412C4.4379 4.92703 4.30857 5.07675 4.17924 5.21967C4.10436 5.30133 4.02268 5.383 3.9478 5.47147C3.92738 5.49869 3.90015 5.52592 3.87293 5.55314C3.64149 5.81855 3.42367 6.09077 3.21265 6.3698L3.19904 6.38341C3.16501 6.43105 3.13778 6.47188 3.10374 6.51952C2.92676 6.76452 2.74978 7.00271 2.57961 7.25451C2.55919 7.28854 2.53877 7.32257 2.51835 7.3566C2.42986 7.49271 2.34817 7.62882 2.26649 7.77173C2.17119 7.92826 2.06228 8.08478 1.97379 8.24812C1.94657 8.29576 1.92614 8.34339 1.89892 8.39103C1.79001 8.58839 1.6879 8.79256 1.5858 8.99672C1.51773 9.13283 1.44285 9.26214 1.37478 9.39825C1.35436 9.43227 1.34756 9.47311 1.32714 9.50713C1.12973 9.93588 0.945947 10.3782 0.789387 10.8206C0.714511 11.0384 0.660056 11.2561 0.591986 11.4671C0.537531 11.6441 0.476269 11.8142 0.435427 11.9911C0.374165 12.2225 0.333323 12.4539 0.285675 12.6853C0.25164 12.8486 0.210798 13.012 0.183571 13.1753C0.142729 13.4271 0.122308 13.6721 0.0950806 13.9239C0.0814667 14.0736 0.054239 14.2165 0.0406251 14.3663C0.0133974 14.761 -0.000216437 15.1625 0.0133974 15.5572C0.0882737 18.259 1.10931 20.4504 2.75659 21.9204L37.4924 53.0896C35.8519 51.6128 34.8308 49.4282 34.7492 46.7264C34.7355 46.3317 34.7492 45.937 34.7764 45.5355C34.7832 45.413 34.8104 45.2905 34.824 45.168L34.8104 45.1816Z" fill="url(#paint0_linear_10_847)"/>
<path d="M46.0761 31.7068C52.5222 29.7401 57.8929 33.2789 58.0767 39.608C58.2605 45.944 53.1825 52.6746 46.7432 54.6414C40.3038 56.6082 34.9331 53.0761 34.7493 46.7402C34.5656 40.4111 39.6435 33.6736 46.0829 31.7068H46.0761Z" fill="url(#paint1_linear_10_847)"/>
<path d="M73.6169 210.528C73.896 210.521 74.1683 210.508 74.4473 210.521C74.6039 210.521 74.7605 210.549 74.917 210.555C75.1621 210.576 75.4071 210.583 75.6522 210.617C75.8292 210.637 76.0129 210.678 76.1899 210.705C76.4145 210.739 76.6392 210.773 76.857 210.821C77.3131 210.916 77.7759 211.039 78.2252 211.182C78.409 211.236 78.5928 211.304 78.7697 211.365C78.9808 211.44 79.1986 211.515 79.4096 211.597C79.6342 211.685 79.852 211.78 80.0699 211.876C80.2196 211.944 80.3694 212.005 80.5123 212.073C80.8186 212.223 81.1181 212.379 81.4176 212.543C81.4653 212.57 81.5197 212.59 81.5674 212.618C81.9077 212.808 82.2413 213.019 82.5748 213.237C82.6701 213.298 82.7586 213.366 82.8539 213.427C83.0853 213.584 83.3168 213.747 83.5346 213.917C83.6503 214.006 83.7592 214.087 83.8681 214.176C84.0723 214.339 84.2697 214.503 84.4603 214.673C84.5761 214.768 84.685 214.87 84.7939 214.972C84.9777 215.142 85.1546 215.313 85.3248 215.489C85.4405 215.605 85.5563 215.721 85.672 215.837C85.8149 215.993 85.9511 216.15 86.094 216.313C86.237 216.483 86.3867 216.646 86.5228 216.817C86.6181 216.939 86.7134 217.068 86.8019 217.191C87.0061 217.463 87.2035 217.742 87.3873 218.028C87.5098 218.218 87.6324 218.409 87.7481 218.606C87.8025 218.702 87.8638 218.797 87.9183 218.899C88.1021 219.232 88.279 219.566 88.4356 219.913C88.6194 220.321 88.7759 220.73 88.9189 221.131C88.9665 221.26 88.9938 221.39 89.0346 221.519C89.1163 221.791 89.198 222.07 89.2524 222.336C89.2865 222.486 89.3137 222.628 89.3409 222.778C89.3886 223.03 89.4226 223.282 89.4498 223.534C89.4634 223.676 89.4839 223.826 89.4907 223.969C89.5111 224.309 89.5247 224.643 89.5111 224.97C89.5111 225.01 89.5111 225.044 89.5043 225.078C89.4907 225.357 89.4566 225.63 89.4158 225.902C89.3954 226.058 89.3681 226.215 89.3341 226.371C89.2865 226.603 89.2252 226.834 89.1639 227.059C89.1367 227.161 89.1095 227.27 89.0754 227.372C88.9665 227.692 88.844 228.005 88.7011 228.304C88.6806 228.345 88.6534 228.386 88.633 228.427C88.4832 228.726 88.3199 229.019 88.1293 229.291L114.472 190.765C114.547 190.656 114.615 190.554 114.683 190.438C114.792 190.261 114.887 190.078 114.976 189.894C114.996 189.853 115.023 189.812 115.044 189.771C115.044 189.758 115.057 189.744 115.064 189.737C115.187 189.486 115.289 189.227 115.384 188.962C115.398 188.921 115.405 188.88 115.418 188.846C115.452 188.744 115.48 188.642 115.507 188.533C115.548 188.383 115.602 188.233 115.636 188.084C115.657 188.009 115.663 187.92 115.677 187.845C115.711 187.689 115.731 187.532 115.759 187.376C115.772 187.267 115.799 187.158 115.813 187.042C115.833 186.879 115.84 186.716 115.847 186.552C115.847 186.512 115.847 186.478 115.854 186.444C115.861 186.199 115.868 185.947 115.854 185.695C115.854 185.613 115.833 185.525 115.833 185.443C115.827 185.3 115.806 185.157 115.793 185.008C115.765 184.756 115.731 184.511 115.684 184.252C115.657 184.102 115.629 183.96 115.595 183.81C115.534 183.538 115.459 183.265 115.377 182.993C115.337 182.864 115.303 182.735 115.262 182.605C115.126 182.204 114.969 181.795 114.778 181.387C114.622 181.04 114.445 180.707 114.261 180.373C114.207 180.278 114.145 180.176 114.091 180.08C114.016 179.958 113.955 179.835 113.873 179.713C113.825 179.638 113.771 179.577 113.723 179.502C113.54 179.216 113.342 178.944 113.138 178.672C113.077 178.59 113.022 178.495 112.954 178.413C112.92 178.372 112.886 178.331 112.852 178.297C112.716 178.127 112.566 177.957 112.423 177.794C112.321 177.671 112.226 177.549 112.117 177.433C112.083 177.392 112.042 177.358 112.008 177.324C111.892 177.202 111.777 177.093 111.661 176.97C111.538 176.848 111.429 176.725 111.307 176.61C111.252 176.555 111.191 176.508 111.13 176.453C111.021 176.351 110.905 176.256 110.79 176.154C110.687 176.065 110.592 175.977 110.49 175.888C110.395 175.807 110.293 175.738 110.197 175.657C110.088 175.568 109.973 175.48 109.864 175.398C109.796 175.351 109.734 175.296 109.666 175.242C109.51 175.126 109.34 175.017 109.183 174.908C109.088 174.847 108.999 174.779 108.904 174.718C108.877 174.697 108.843 174.677 108.816 174.656C108.523 174.466 108.223 174.282 107.917 174.112H107.897C107.849 174.078 107.801 174.051 107.747 174.024C107.481 173.881 107.216 173.738 106.95 173.602C106.916 173.581 106.876 173.568 106.842 173.554C106.699 173.486 106.549 173.425 106.399 173.357C106.229 173.282 106.059 173.2 105.889 173.125C105.841 173.105 105.786 173.091 105.739 173.071C105.528 172.989 105.31 172.914 105.099 172.839C104.956 172.792 104.813 172.73 104.67 172.683C104.629 172.669 104.588 172.662 104.554 172.649C104.098 172.506 103.642 172.383 103.186 172.288H103.179C102.962 172.24 102.737 172.213 102.519 172.172C102.342 172.145 102.158 172.104 101.981 172.084C101.743 172.057 101.512 172.043 101.273 172.029C101.11 172.016 100.94 171.995 100.777 171.989C100.525 171.982 100.273 171.989 100.021 171.995C99.8712 171.995 99.7215 171.995 99.5785 171.995C99.1837 172.023 98.7889 172.064 98.3941 172.125C95.7258 172.56 93.6905 173.853 92.4449 175.677L66.1021 214.203C67.3477 212.379 69.383 211.086 72.0513 210.651C72.4393 210.589 72.8341 210.542 73.2357 210.521C73.3582 210.515 73.4808 210.521 73.6033 210.521L73.6169 210.528Z" fill="url(#paint2_linear_10_847)"/>
<path d="M88.4629 219.92C91.2605 226.052 88.4629 231.836 82.2073 232.85C75.9449 233.864 68.6071 229.72 65.8094 223.588C63.0118 217.463 65.8094 211.678 72.0718 210.664C78.3273 209.65 85.672 213.795 88.4697 219.92H88.4629Z" fill="url(#paint3_linear_10_847)"/>
<path d="M198 87.2193L190.437 95.9372L106.978 134.456L114.54 125.745L198 87.2193Z" fill="url(#paint4_linear_10_847)"/>
<path d="M114.54 125.745L106.978 134.456L99.5105 125.834L107.073 117.116L114.54 125.745Z" fill="url(#paint5_linear_10_847)"/>
<path d="M190.54 78.5899L198 87.2193L114.54 125.745L107.073 117.116L190.54 78.5899Z" fill="url(#paint6_linear_10_847)"/>
<g style="mix-blend-mode:multiply" opacity="0.59">
<path d="M114.54 125.745L106.978 134.456L99.5105 125.834L107.073 117.116L114.54 125.745Z" fill="url(#paint7_linear_10_847)"/>
</g>
</g>
<defs>
<linearGradient id="paint0_linear_10_847" x1="-0.000216437" y1="26.5481" x2="55.3333" y2="26.5481" gradientUnits="userSpaceOnUse">
<stop/>
<stop offset="0.99" stop-color="#5BC2D6"/>
</linearGradient>
<linearGradient id="paint1_linear_10_847" x1="39.2487" y1="36.0147" x2="53.5607" y2="50.3365" gradientUnits="userSpaceOnUse">
<stop stop-color="#8083CC"/>
<stop offset="0.99" stop-color="#5BC2D6"/>
</linearGradient>
<linearGradient id="paint2_linear_10_847" x1="87.4245" y1="173.458" x2="94.6928" y2="228.307" gradientUnits="userSpaceOnUse">
<stop stop-color="#D288B7"/>
<stop offset="0.99"/>
</linearGradient>
<linearGradient id="paint3_linear_10_847" x1="83.1961" y1="213.609" x2="70.8893" y2="229.68" gradientUnits="userSpaceOnUse">
<stop stop-color="#8083CC"/>
<stop offset="0.99"/>
</linearGradient>
<linearGradient id="paint4_linear_10_847" x1="106.978" y1="110.841" x2="198" y2="110.841" gradientUnits="userSpaceOnUse">
<stop offset="0.01" stop-color="#5BC2D6"/>
<stop offset="1" stop-color="#8083CC"/>
</linearGradient>
<linearGradient id="paint5_linear_10_847" x1="99.5105" y1="125.786" x2="114.54" y2="125.786" gradientUnits="userSpaceOnUse">
<stop offset="0.01" stop-color="#5BC2D6"/>
<stop offset="1" stop-color="#8083CC"/>
</linearGradient>
<linearGradient id="paint6_linear_10_847" x1="107.073" y1="102.171" x2="198" y2="102.171" gradientUnits="userSpaceOnUse">
<stop/>
<stop offset="0.99" stop-color="#5BC2D6"/>
</linearGradient>
<linearGradient id="paint7_linear_10_847" x1="99.5105" y1="125.786" x2="114.54" y2="125.786" gradientUnits="userSpaceOnUse">
<stop offset="0.01" stop-color="#5BC2D6"/>
<stop offset="1" stop-color="#8083CC"/>
</linearGradient>
<clipPath id="clip0_10_847">
<rect width="198" height="233" fill="white"/>
</clipPath>
</defs>
</svg>
