<svg width="186" height="36" viewBox="0 0 186 36" fill="none" xmlns="http://www.w3.org/2000/svg">
<path d="M32.8105 10.6028C32.83 10.4961 31.1986 9.61334 31.229 9.51148C30.9236 9.56241 30.3348 8.23581 30.0124 8.17761C28.9212 7.98237 28.6985 8.57292 28.4309 7.5713C28.1037 7.63557 28.2545 6.67396 27.9066 6.61091C26.4029 6.34171 27.0659 4.82472 27.336 3.32714C27.3993 2.97548 25.6985 2.03692 25.8761 1.75074C25.2241 1.36392 24.5829 2.00054 24.4163 1.2657C23.9114 1.26812 23.7764 1.04985 23.2715 1.04258C21.46 1.01347 19.7739 0.324707 17.9649 0.282266C16.196 0.239824 14.2507 0.346534 12.5792 0.901912C12.2969 0.995284 12.0025 1.04864 11.7033 1.04864C11.7033 1.04864 7.38692 1.02317 7.38449 1.02317C5.2543 1.02317 3.58032 2.51348 2.63992 4.4185C2.11194 5.48924 1.79928 6.37566 1.49028 7.51309C1.15086 8.76209 0.947691 10.0123 0.936742 11.3304C0.93066 12.2108 0.813871 13.0329 0.840635 13.9133C0.868616 14.8252 0.658152 15.7261 0.583942 16.6356C0.416057 18.6922 0.946475 20.71 1.32482 22.7144C1.68492 24.6243 0.815087 26.3899 0.815087 28.307C0.815087 30.2242 2.56328 32.6361 4.31877 33.6243C5.28836 34.17 6.28107 34.2452 7.30906 34.4295C8.66309 34.672 9.7811 35.2177 11.2069 35.2771C12.1485 35.3172 13.2422 35.3135 14.1838 35.2796C15.5135 35.2311 16.6583 35.2929 17.9892 35.3062C19.8347 35.3244 21.8798 35.4178 23.6863 35.0977C25.6791 34.7436 27.0623 35.1583 29.0392 35.0977C31.982 35.0079 33.4237 31.5617 34.392 28.307C34.392 28.307 34.6305 26.9246 34.6305 26.921C34.6305 25.8927 35.3422 25.0208 35.5088 24.0131C35.6268 23.3001 35.712 22.581 35.7692 21.8583C35.813 21.2933 35.8397 20.7257 35.8507 20.1607C35.9054 17.3244 35.7643 16.729 35.3653 13.9982C35.1913 14.0006 34.2047 13.3021 34.0271 13.2706C32.5234 13.0014 32.5404 12.1016 32.8105 10.6028Z" fill="#01AFBA"/>
<path d="M34.3918 28.3068C34.3918 28.3068 34.6303 26.9244 34.6303 26.9207C34.6303 25.8924 35.3419 25.0206 35.5086 24.0129C35.6266 23.2999 35.7118 22.5808 35.769 21.8581C35.8128 21.293 35.8395 20.7255 35.8505 20.1604C35.9052 17.3241 35.7641 16.7287 35.3651 13.9979C35.1972 14.0003 34.2823 13.3576 34.0536 13.2788C34.2045 15.4336 34.4514 18.4349 34.0268 21.3948C33.404 25.7409 32.0536 26.6855 30.9855 30.4895C30.1339 33.521 28.0657 32.7934 23.9294 32.4297C19.4209 32.0331 16.1435 33.8848 9.69574 32.0659C7.0327 31.3153 4.10324 31.6657 0.959656 29.352C1.41221 31.0679 2.86235 32.8044 4.31978 33.6241C5.28938 34.1698 6.28209 34.2449 7.31007 34.4293C8.6641 34.6718 9.78211 35.2175 11.2079 35.2769C12.1495 35.3169 13.2432 35.3133 14.1848 35.2793C15.5145 35.2308 16.6593 35.2926 17.9902 35.306C19.8357 35.3242 21.8808 35.4175 23.6873 35.0974C25.6801 34.7433 27.0633 35.158 29.0402 35.0974C31.983 35.0077 33.4247 31.5614 34.393 28.3068" fill="#FDFCDD"/>
<path d="M11.7638 21.516C17.8466 14.3616 21.3746 17.2719 25.0243 18.6057C24.2943 12.5427 19.4427 9.9222 14.5619 11.4513C10.304 12.7852 9.20906 18.727 11.7638 21.516Z" fill="#FDFCDD"/>
<path d="M16.4793 35.796C15.0681 35.7451 13.6581 35.6602 12.2518 35.5074C8.80041 35.1327 3.49623 34.5603 1.31129 31.4548C-0.17412 29.3424 -0.0597641 26.4419 0.0716239 23.9912C0.240725 20.8408 0.153132 17.6819 0.336832 14.5315C0.633672 9.45189 1.71032 0.394865 8.32109 0.0189543C9.60699 -0.0538026 10.8929 0.102625 12.1788 0.15598C14.5 0.251777 16.8187 0.0141039 19.1399 0.0698842C21.4489 0.125665 23.5621 0.923566 25.8371 1.08848C26.0427 1.10303 26.2482 1.1188 26.4551 1.13699C26.7239 1.16245 26.9393 1.36981 26.9733 1.6378C27.0487 2.22592 27.3687 2.76674 27.8529 3.11961C27.9782 3.21056 28.0609 3.3488 28.0828 3.50159C28.1047 3.65438 28.0646 3.80959 27.9709 3.93207C27.803 4.15276 27.6801 4.39771 27.6059 4.66085C27.449 5.22229 27.5195 5.81041 27.8054 6.31728C28.0925 6.82537 28.5597 7.19037 29.1218 7.34801C29.3797 7.41955 29.651 7.44259 29.9247 7.41591C30.2276 7.3856 30.5013 7.59538 30.5512 7.8949C30.6899 8.72796 31.3055 9.41309 32.1181 9.63985C32.3566 9.70654 32.6072 9.7308 32.8639 9.71261C33.0634 9.69806 33.2556 9.78779 33.3724 9.94907C33.679 10.3698 33.2082 11.3315 33.3724 11.8977C33.595 12.6593 34.2471 13.3165 35.0415 13.4596C35.2349 13.4948 35.4491 13.5093 35.5938 13.6427C35.7422 13.7797 35.7714 13.9992 35.7921 14.1993C36.1121 17.34 36.0658 20.5182 35.6315 23.6456C35.415 25.2062 35.1023 26.7523 34.6972 28.2753C34.4855 29.072 34.2337 29.8529 33.9868 30.6387C33.8055 31.2171 33.8079 31.8562 33.5403 32.4007C32.7301 34.0498 31.3833 35.3303 29.5585 35.7608C28.196 36.0809 26.7774 36.0033 25.3784 35.956C22.4137 35.8566 19.4416 35.9039 16.4769 35.7984M12.871 34.4609C15.0608 34.6658 17.2555 34.8647 19.4562 34.8416C21.6947 34.8186 23.7993 34.5664 26.0439 34.7786C26.5828 34.8295 27.1388 34.8817 27.7032 34.918C30.2446 35.0817 32.6936 32.9281 32.9442 30.3101L33.078 28.9107C33.1449 28.2171 33.4539 27.6484 33.7532 27.0991C33.9576 26.7244 34.1498 26.3715 34.2459 26.0077C35.0829 22.8634 35.1109 19.7616 34.8371 16.5445C34.7824 15.9018 34.7264 15.2409 34.6863 14.5788C34.6437 14.5691 34.6011 14.5582 34.5585 14.5461C32.9138 14.0865 31.9004 12.4713 32.1546 10.8294C32.0366 10.81 31.9198 10.7846 31.8043 10.7518C30.7252 10.4511 29.8748 9.62287 29.5305 8.5776C29.2872 8.56547 29.0451 8.52667 28.8079 8.45997C27.9478 8.21988 27.2337 7.66086 26.7957 6.88479C26.3577 6.10871 26.2495 5.21016 26.4903 4.35284C26.5548 4.12366 26.6424 3.90418 26.7543 3.69561C26.359 3.29302 26.0694 2.79463 25.9186 2.25259C25.8626 2.24774 25.8054 2.2441 25.7495 2.24047C25.4392 2.21743 25.129 2.1956 24.8212 2.16043C22.9794 1.9555 21.2774 1.18792 19.4246 1.10546C17.4647 1.01694 15.5219 1.39285 13.5693 1.48258C10.2189 1.63658 6.20428 0.0541203 4.03029 3.56828C3.65681 4.17216 3.62518 4.81364 3.43175 5.46724C3.2371 6.12448 2.85389 6.71502 2.62152 7.37347C2.07772 8.91228 1.95485 10.5627 1.77359 12.173C1.50108 14.5873 1.08137 17.0089 1.20302 19.4475C1.32589 21.9018 1.55339 24.1367 1.30764 26.6153L1.24073 27.2931C1.07042 29.0732 1.91106 30.8849 3.3843 31.9095C3.95365 32.3061 4.5084 32.4273 5.15074 32.568C5.4123 32.625 5.68359 32.6844 5.97313 32.7657C7.02424 33.0603 7.9476 33.663 9.03277 33.9249C10.2347 34.2147 11.472 34.3311 12.7007 34.4463C12.7566 34.4512 12.8138 34.4573 12.8698 34.4621" fill="#0081A8"/>
<path d="M24.4672 19.279C24.1764 22.3203 21.0109 24.5066 17.3978 24.1634C13.7846 23.819 11.0923 21.0761 11.3831 18.0349C11.6751 14.9936 14.8393 12.8073 18.4525 13.1504C22.0657 13.4948 24.7579 16.2378 24.4659 19.2802" fill="#393939"/>
<path d="M18.5085 12.5768C14.5851 12.2033 11.1313 14.6273 10.8101 17.979C10.4889 21.3307 13.4196 24.3622 17.3442 24.7357C21.2688 25.1092 24.7214 22.6852 25.0426 19.3335C25.3638 15.9806 22.4331 12.9503 18.5085 12.5768ZM17.4306 14.4515C22.4696 13.998 23.3771 16.907 23.6618 18.903C23.9294 20.7886 22.5195 21.9006 21.337 22.7446C19.7202 23.899 17.5754 23.8287 15.6982 23.1787C13.7201 22.4936 12.04 21.1997 12.478 18.2494C12.8588 15.6787 15.0924 14.6625 17.4318 14.4527" fill="#0081A8"/>
<path d="M28.0549 21.6386C27.9406 22.194 27.6255 22.5978 27.3505 22.542C27.0756 22.4862 26.9454 21.9903 27.0586 21.4361C27.1729 20.882 27.488 20.4769 27.7629 20.5327C28.0379 20.5885 28.1681 21.0845 28.0549 21.6386Z" fill="#FDFCDD"/>
<path d="M27.7763 21.5815C27.662 22.1369 27.3469 22.5407 27.0719 22.4849C26.797 22.4291 26.6668 21.9332 26.78 21.379C26.8943 20.8236 27.2094 20.4198 27.4843 20.4756C27.7593 20.5314 27.8895 21.0273 27.7763 21.5815Z" fill="#0081A8"/>
<path d="M27.3917 27.8133C27.8735 28.1128 28.1448 28.5481 27.9964 28.7858C27.8479 29.0235 27.337 28.9737 26.854 28.6742C26.371 28.3747 26.101 27.9394 26.2494 27.7017C26.3978 27.464 26.9088 27.5137 27.3917 27.8133Z" fill="#FDFCDD"/>
<path d="M27.2411 28.0545C27.7241 28.354 27.9941 28.7893 27.8457 29.027C27.6973 29.2647 27.1863 29.2149 26.7034 28.9154C26.2216 28.6159 25.9503 28.1806 26.0987 27.9429C26.2472 27.7052 26.7581 27.755 27.2411 28.0545Z" fill="#0081A8"/>
<path d="M32.6231 22.4948C32.5087 23.0502 32.1936 23.454 31.9187 23.3982C31.6438 23.3424 31.5136 22.8465 31.6279 22.2911C31.7423 21.7369 32.0574 21.3319 32.3323 21.3889C32.6073 21.4447 32.7374 21.9406 32.6243 22.4948" fill="#FDFCDD"/>
<path d="M32.343 22.4379C32.2287 22.9933 31.9136 23.3971 31.6386 23.3413C31.3637 23.2856 31.2335 22.7896 31.3467 22.2342C31.461 21.6801 31.7761 21.275 32.0511 21.3308C32.326 21.3866 32.4562 21.8826 32.343 22.4367" fill="#0081A8"/>
<path d="M27.7594 13.5129C27.645 14.0683 27.3299 14.4721 27.055 14.4163C26.78 14.3605 26.6487 13.8646 26.763 13.3104C26.8774 12.755 27.1925 12.3512 27.4674 12.407C27.7423 12.4628 27.8737 12.9587 27.7594 13.5129Z" fill="#FDFCDD"/>
<path d="M27.4796 13.4558C27.3652 14.0112 27.0501 14.415 26.7752 14.3592C26.5002 14.3034 26.3701 13.8074 26.4844 13.2533C26.5988 12.6979 26.9139 12.2941 27.1888 12.3499C27.4637 12.4057 27.5939 12.9016 27.4808 13.4558" fill="#0081A8"/>
<path d="M19.1412 28.6523C19.0269 29.2077 18.7118 29.6115 18.4368 29.5557C18.1619 29.4999 18.0317 29.004 18.1449 28.4498C18.2592 27.8944 18.5743 27.4906 18.8492 27.5464C19.1242 27.6022 19.2544 28.0981 19.1412 28.6523Z" fill="#FDFCDD"/>
<path d="M18.8612 28.5954C18.7468 29.1508 18.4317 29.5546 18.1568 29.4988C17.8819 29.443 17.7505 28.9471 17.8648 28.3929C17.9792 27.8387 18.2943 27.4337 18.5692 27.4895C18.8441 27.5453 18.9755 28.0413 18.8612 28.5954Z" fill="#0081A8"/>
<path d="M23.1608 9.3597C22.752 9.64224 22.3055 9.70893 22.1656 9.50643C22.0257 9.30513 22.2435 8.91224 22.6522 8.62849C23.0622 8.34595 23.5075 8.27926 23.6474 8.48176C23.7873 8.68427 23.5695 9.07595 23.1608 9.3597Z" fill="#FDFCDD"/>
<path d="M23.0182 9.15486C22.6094 9.4374 22.1629 9.5041 22.023 9.30159C21.8831 9.1003 22.1009 8.70741 22.5097 8.42366C22.9196 8.14112 23.3649 8.07442 23.5048 8.27693C23.6447 8.47944 23.4269 8.87111 23.0182 9.15486Z" fill="#0081A8"/>
<path d="M12.6911 26.6576C12.1546 26.8456 11.6448 26.7837 11.5511 26.5206C11.4575 26.2562 11.8164 25.89 12.3529 25.7021C12.8894 25.5141 13.3991 25.576 13.4928 25.8391C13.5864 26.1034 13.2276 26.4696 12.6911 26.6576Z" fill="#FDFCDD"/>
<path d="M12.5971 26.3895C12.0606 26.5775 11.5509 26.5157 11.4572 26.2525C11.3635 25.9882 11.7224 25.622 12.2589 25.434C12.7954 25.246 13.3051 25.3079 13.3988 25.571C13.4925 25.8354 13.1336 26.2016 12.5971 26.3895Z" fill="#0081A8"/>
<path d="M5.9889 21.2228C5.49498 20.9427 5.20666 20.5183 5.34534 20.2757C5.48403 20.032 5.99742 20.0623 6.49134 20.3412C6.98526 20.6213 7.27358 21.0457 7.1349 21.2883C6.99621 21.532 6.48282 21.5017 5.9889 21.2228Z" fill="#FDFCDD"/>
<path d="M6.13011 20.9755C5.63619 20.6954 5.34786 20.2709 5.48655 20.0284C5.62524 19.7847 6.13862 19.815 6.63254 20.0939C7.12647 20.374 7.41479 20.7984 7.2761 21.041C7.13742 21.2847 6.62403 21.2544 6.13011 20.9755Z" fill="#0081A8"/>
<path d="M5.91465 12.6542C5.50954 12.2565 5.34044 11.7726 5.53752 11.5738C5.7346 11.3737 6.22244 11.535 6.62756 11.9315C7.03267 12.328 7.20177 12.8119 7.00469 13.0119C6.80761 13.212 6.31977 13.052 5.91465 12.6542Z" fill="#FDFCDD"/>
<path d="M6.11409 12.4508C5.70897 12.0543 5.53987 11.5705 5.73695 11.3704C5.93404 11.1703 6.42187 11.3316 6.82699 11.7281C7.2321 12.1246 7.4012 12.6085 7.20412 12.8086C7.00704 13.0086 6.5192 12.8474 6.11409 12.4508Z" fill="#0081A8"/>
<path d="M7.32822 30.3066C6.88783 30.6643 6.38539 30.777 6.20899 30.56C6.03259 30.3429 6.24549 29.8773 6.6871 29.5196C7.12871 29.1618 7.62993 29.0491 7.80633 29.2661C7.98395 29.4832 7.76983 29.9488 7.32822 30.3066Z" fill="#FDFCDD"/>
<path d="M7.14814 30.0859C6.70775 30.4436 6.20653 30.5563 6.02891 30.3393C5.85251 30.1222 6.06541 29.6566 6.50702 29.2989C6.94863 28.9411 7.44985 28.8284 7.62625 29.0454C7.80386 29.2625 7.58975 29.7281 7.14814 30.0859Z" fill="#0081A8"/>
<path d="M8.66652 5.99485C8.11055 5.87602 7.70909 5.5571 7.76748 5.28305C7.82709 5.009 8.32467 4.8841 8.88063 5.00414C9.4366 5.12298 9.83806 5.4419 9.77967 5.71595C9.72006 5.99 9.22248 6.1149 8.66652 5.99607" fill="#FDFCDD"/>
<path d="M8.72609 5.71604C8.17012 5.59721 7.76866 5.27829 7.82705 5.00424C7.88666 4.73019 8.38423 4.60529 8.9402 4.72534C9.49617 4.84417 9.89763 5.16309 9.83923 5.43714C9.77962 5.71119 9.28205 5.83609 8.72609 5.71726" fill="#0081A8"/>
<path d="M18.9573 4.66224C18.3916 4.72045 17.9099 4.54219 17.8819 4.26329C17.8527 3.98439 18.2882 3.71155 18.8527 3.65335C19.4184 3.59514 19.9001 3.7734 19.9281 4.0523C19.9573 4.3312 19.5218 4.60404 18.9573 4.66224Z" fill="#FDFCDD"/>
<path d="M18.9284 4.37953C18.3627 4.43773 17.8809 4.25948 17.8529 3.98058C17.8238 3.70168 18.2593 3.42884 18.8238 3.37063C19.3895 3.31243 19.8712 3.49068 19.8992 3.76958C19.9284 4.04848 19.4929 4.32132 18.9284 4.37953Z" fill="#0081A8"/>
<path d="M14.1436 8.82015C14.0451 9.29913 13.7725 9.64836 13.5353 9.59986C13.2981 9.55136 13.185 9.1233 13.2835 8.64432C13.382 8.16534 13.6545 7.8161 13.8918 7.86461C14.129 7.91311 14.2421 8.34116 14.1436 8.82015Z" fill="#FDFCDD"/>
<path d="M13.9014 8.77034C13.8029 9.24933 13.5304 9.59856 13.2932 9.55006C13.0559 9.50155 12.9428 9.0735 13.0413 8.59451C13.1399 8.11553 13.4124 7.7663 13.6496 7.8148C13.8868 7.86331 14 8.29136 13.9014 8.77034Z" fill="#0081A8"/>
<path d="M31.7751 15.8134C31.6912 16.2184 31.4613 16.5131 31.2605 16.4719C31.0598 16.4306 30.9649 16.0693 31.0476 15.6643C31.1316 15.2592 31.3615 14.9646 31.5622 15.0058C31.763 15.047 31.8579 15.4084 31.7751 15.8134Z" fill="#FDFCDD"/>
<path d="M31.5707 15.7721C31.4867 16.1772 31.2568 16.4718 31.0561 16.4306C30.8553 16.3894 30.7604 16.028 30.8432 15.623C30.9271 15.218 31.157 14.9233 31.3578 14.9645C31.5585 15.0058 31.6534 15.3671 31.5707 15.7721Z" fill="#0081A8"/>
<path d="M55.0329 17.6628C54.6583 17.3677 54.2588 17.1248 53.8456 16.9431C53.4461 16.7683 52.9535 16.5981 52.3837 16.4392L50.6674 15.9647C49.7594 15.715 49.6527 15.2882 49.6527 14.9908C49.6527 14.8455 49.689 14.6276 49.9977 14.396C50.2611 14.1985 50.6107 14.0986 51.042 14.0986C51.7616 14.0986 52.311 14.3234 52.7242 14.7888C53.0602 15.1702 53.4756 15.3631 53.9591 15.3631C54.4018 15.3631 54.7855 15.2042 55.101 14.8932C55.4188 14.5799 55.58 14.1985 55.58 13.7604C55.58 13.3722 55.4347 13.009 55.1419 12.6753C54.6447 12.135 54.0749 11.7286 53.4506 11.4675C52.8309 11.2087 51.9977 11.0793 50.9716 11.0793C50.1884 11.0793 49.4325 11.2337 48.7219 11.5356C48 11.8421 47.3961 12.3007 46.924 12.8977C46.4381 13.5129 46.1907 14.2099 46.1907 14.9704C46.1907 15.9942 46.5062 16.8296 47.126 17.4517C47.7208 18.0464 48.6515 18.5209 49.8933 18.8614L51.6027 19.3336C52.0522 19.4675 52.37 19.6287 52.5448 19.8149C52.7015 19.9806 52.7764 20.194 52.7764 20.471C52.7764 20.6344 52.731 20.8818 52.3451 21.1406C52.0091 21.3654 51.5846 21.4789 51.0851 21.4789C50.5857 21.4789 50.143 21.3994 49.7934 21.2405C49.4506 21.0839 49.1305 20.8183 48.8558 20.4619C48.5607 20.051 48.1135 19.833 47.5687 19.833C47.1237 19.833 46.7446 19.9874 46.4472 20.2893C46.1498 20.5913 46 20.9522 46 21.3654C46 21.8308 46.1771 22.2689 46.5153 22.6526C46.9784 23.2178 47.6186 23.6719 48.4154 24.0033C49.2009 24.3302 50.0749 24.4959 51.0102 24.4959C51.6322 24.4959 52.2497 24.4074 52.8513 24.2303C53.4529 24.0532 54.0091 23.8013 54.5062 23.4789C55.0193 23.1475 55.4393 22.7161 55.7571 22.1985C56.0795 21.6696 56.2406 21.0884 56.2406 20.4687C56.2406 19.8489 56.1408 19.3154 55.9432 18.8523C55.7412 18.3779 55.437 17.9783 55.0352 17.6628" fill="white"/>
<path d="M68.6016 11.0793C68.143 11.0793 67.7412 11.2451 67.4098 11.572C67.2055 11.774 67.0624 12.001 66.983 12.2553C66.7174 12.0192 66.4086 11.8081 66.059 11.6242C65.3803 11.2632 64.5426 11.0816 63.571 11.0816C62.8536 11.0816 62.1271 11.2269 61.4098 11.5152C60.6992 11.8013 60.0341 12.2144 59.4325 12.7434C58.8195 13.2814 58.3178 13.9988 57.9364 14.8728C57.5573 15.7445 57.3644 16.7252 57.3644 17.7854C57.3644 18.6503 57.4892 19.4653 57.7367 20.2076C57.9864 20.9545 58.3224 21.5969 58.7401 22.1168C59.1532 22.6321 59.6368 23.0794 60.1748 23.4426C60.7151 23.8081 61.2804 24.0782 61.8525 24.2462C62.4223 24.4142 62.9989 24.5005 63.5664 24.5005C64.5925 24.5005 65.5165 24.2507 66.3133 23.7604C66.5358 23.6219 66.7333 23.4789 66.9013 23.3313V27.3041C66.9013 27.7649 67.0715 28.1668 67.4052 28.4937C67.7367 28.8206 68.1385 28.9863 68.5971 28.9863C69.0556 28.9863 69.4574 28.8206 69.7844 28.4914C70.1135 28.1622 70.2792 27.7627 70.2792 27.3041V12.7683C70.2792 12.3075 70.1135 11.908 69.7844 11.5811C69.4552 11.2519 69.0556 11.0862 68.5971 11.0862M62.7855 21.2473C62.4177 21.0884 62.0772 20.8591 61.7707 20.564C61.4711 20.2757 61.2236 19.8853 61.0329 19.4063C60.84 18.9204 60.7424 18.3756 60.7424 17.7876C60.7424 17.1997 60.84 16.6662 61.0329 16.1872C61.2236 15.7104 61.4733 15.32 61.773 15.0271C62.0772 14.7297 62.4177 14.4982 62.7855 14.3416C63.1487 14.1849 63.521 14.1055 63.891 14.1055C64.2974 14.1055 64.6833 14.1736 65.0397 14.312C65.3939 14.4483 65.7276 14.6594 66.0295 14.9363C66.3224 15.2065 66.563 15.5856 66.7401 16.0623C66.924 16.5527 67.017 17.1338 67.017 17.7876C67.017 18.4414 66.924 19.0135 66.7401 19.5084C66.5607 19.9897 66.3224 20.3711 66.0341 20.6412C65.7344 20.9204 65.4007 21.1316 65.0397 21.27C64.3383 21.5402 63.5369 21.5697 62.7855 21.2473Z" fill="white"/>
<path d="M82.8763 11.1499C82.4177 11.1499 82.0159 11.3179 81.6845 11.6516C81.353 11.9831 81.185 12.3849 81.185 12.8434V18.3622C81.1124 18.7663 80.9308 19.2044 80.6447 19.6652C80.3542 20.1351 79.9387 20.5597 79.4075 20.9252C78.8922 21.2816 78.3678 21.4541 77.8002 21.4541C77.1782 21.4541 76.6924 21.243 76.3178 20.8117C75.9342 20.369 75.7389 19.6334 75.7389 18.63V12.8457C75.7389 12.3871 75.571 11.9853 75.2372 11.6516C74.9058 11.3202 74.504 11.1499 74.0431 11.1499C73.5823 11.1499 73.1828 11.3202 72.8536 11.6539C72.5267 11.9853 72.361 12.3871 72.361 12.8457V18.7799C72.361 19.747 72.4972 20.6142 72.7673 21.3519C73.042 22.1079 73.4325 22.7186 73.9251 23.1681C74.4086 23.6107 74.9626 23.9422 75.5687 24.1556C76.168 24.3667 76.8286 24.4734 77.5346 24.4734C78.1385 24.4734 78.7219 24.3576 79.2713 24.1306C79.8161 23.9036 80.2747 23.6153 80.6311 23.2702C80.8354 23.0727 81.0216 22.8729 81.185 22.6732V22.7685C81.185 23.2294 81.353 23.6289 81.6867 23.9581C82.0182 24.285 82.4177 24.453 82.8763 24.453C83.3349 24.453 83.7321 24.2873 84.0636 23.9581C84.395 23.6289 84.5653 23.2294 84.5653 22.7685V12.8457C84.5653 12.3871 84.3973 11.9853 84.0658 11.6539C83.7344 11.3202 83.3349 11.1522 82.8763 11.1522" fill="white"/>
<path d="M97.4052 11.0793C96.9467 11.0793 96.5448 11.2451 96.2134 11.572C96.0091 11.774 95.8661 12.001 95.7866 12.2553C95.521 12.0192 95.2123 11.8081 94.8627 11.6242C94.1839 11.2632 93.3462 11.0816 92.3746 11.0816C91.6572 11.0816 90.9308 11.2269 90.2134 11.5152C89.5028 11.8013 88.8377 12.2144 88.2361 12.7434C87.6232 13.2814 87.1215 13.9988 86.7401 14.8728C86.361 15.7445 86.1703 16.7252 86.1703 17.7854C86.1703 18.6503 86.2951 19.4653 86.5426 20.2076C86.7923 20.9545 87.1283 21.5969 87.546 22.1168C87.9591 22.6321 88.4427 23.0794 88.9807 23.4426C89.521 23.8081 90.0863 24.0782 90.6583 24.2462C91.2282 24.4142 91.8048 24.5005 92.3723 24.5005C93.3984 24.5005 94.3224 24.2507 95.1192 23.7604C95.3734 23.6038 95.5914 23.4403 95.773 23.2723C95.8502 23.5379 95.9977 23.7763 96.2089 23.9851C96.5403 24.312 96.9421 24.4778 97.4007 24.4778C97.8593 24.4778 98.2611 24.312 98.588 23.9829C98.9171 23.6537 99.0829 23.2542 99.0829 22.7956V12.7683C99.0829 12.3075 98.9149 11.908 98.588 11.5811C98.2588 11.2519 97.8593 11.0862 97.4007 11.0862M91.5891 21.2473C91.2213 21.0884 90.8808 20.8591 90.5744 20.564C90.2747 20.2757 90.0272 19.8853 89.8366 19.4063C89.6436 18.9204 89.546 18.3756 89.546 17.7876C89.546 17.1997 89.6436 16.6662 89.8366 16.1872C90.0272 15.7104 90.277 15.32 90.5766 15.0271C90.8808 14.7297 91.2213 14.4982 91.5891 14.3416C91.9523 14.1849 92.3246 14.1055 92.6947 14.1055C93.101 14.1055 93.487 14.1736 93.8434 14.312C94.1975 14.4483 94.5312 14.6594 94.8332 14.9363C95.126 15.2065 95.3666 15.5856 95.5437 16.0623C95.7276 16.5527 95.8207 17.1338 95.8207 17.7876C95.8207 18.4414 95.7276 19.0135 95.5437 19.5084C95.3644 19.9897 95.126 20.3711 94.8377 20.6412C94.538 20.9204 94.2043 21.1316 93.8434 21.27C93.1419 21.5402 92.3405 21.5697 91.5891 21.2473Z" fill="white"/>
<path d="M108.463 11.1021C107.546 11.1021 106.672 11.345 105.862 11.8218C105.378 12.1078 104.94 12.4438 104.547 12.8297C104.545 12.378 104.377 11.9807 104.054 11.6515C103.725 11.3178 103.326 11.1475 102.865 11.1475C102.404 11.1475 102.005 11.3155 101.671 11.6492C101.337 11.9807 101.169 12.3825 101.169 12.8433V22.7888C101.169 23.2497 101.337 23.6492 101.671 23.9784C102.002 24.3053 102.404 24.471 102.863 24.471C103.321 24.471 103.723 24.3053 104.05 23.9761C104.379 23.647 104.545 23.2474 104.545 22.7888V16.7071C104.84 15.9716 105.292 15.3859 105.889 14.9659C106.499 14.5369 107.251 14.3167 108.125 14.3167H108.531C109.01 14.3167 109.419 14.16 109.746 13.8535C110.079 13.5403 110.25 13.1498 110.25 12.6912C110.25 12.2327 110.079 11.8467 109.748 11.5425C109.426 11.2497 108.992 11.0999 108.463 11.0999" fill="white"/>
<path d="M121.41 12.7025C120.788 12.1963 120.107 11.7967 119.385 11.5129C118.07 10.9976 116.804 10.9522 115.469 11.3381C114.874 11.5107 114.286 11.7831 113.716 12.1486C113.149 12.5141 112.631 12.9568 112.182 13.463C111.723 13.9806 111.348 14.623 111.072 15.3767C110.795 16.1282 110.654 16.9454 110.654 17.8058C110.654 18.6662 110.797 19.4948 111.078 20.2417C111.36 20.9908 111.737 21.631 112.195 22.1418C112.647 22.6457 113.165 23.0839 113.737 23.4448C114.311 23.8081 114.901 24.0759 115.496 24.2439C116.089 24.4119 116.677 24.4959 117.242 24.4959C118.783 24.4959 120.132 24.1077 121.235 23.3495C121.734 23.0408 121.998 22.5754 121.998 22.001C121.998 21.5583 121.852 21.186 121.569 20.8955C121.283 20.6026 120.91 20.4551 120.465 20.4551C120.148 20.4551 119.814 20.5731 119.455 20.8183C118.885 21.2541 118.15 21.4743 117.267 21.4743C116.545 21.4743 115.884 21.236 115.249 20.7434C114.736 20.3461 114.4 19.8353 114.227 19.1838H121.662C122.288 19.1838 122.751 19.0476 123.078 18.7661C123.417 18.4755 123.589 18.0215 123.589 17.4199C123.589 16.4528 123.385 15.5447 122.983 14.7184C122.581 13.8943 122.054 13.2156 121.419 12.698M120.102 16.2462H114.27C114.388 15.8784 114.568 15.547 114.806 15.2587C115.144 14.8523 115.526 14.5527 115.939 14.3711C116.359 14.1872 116.79 14.0941 117.221 14.0941C117.905 14.0941 118.527 14.3188 119.124 14.7842C119.6 15.1543 119.923 15.6355 120.1 16.2439" fill="white"/>
<path d="M136.831 13.4835C136.42 12.9705 135.939 12.5233 135.403 12.1555C134.865 11.7877 134.304 11.5131 133.732 11.3405C133.16 11.168 132.583 11.0817 132.016 11.0817C131.037 11.0817 130.198 11.2633 129.516 11.6243C129.199 11.7923 128.915 11.9807 128.667 12.1896V8.49829C128.667 8.03972 128.502 7.6379 128.175 7.30646C127.846 6.97275 127.446 6.80249 126.985 6.80249C126.524 6.80249 126.125 6.97049 125.791 7.3042C125.46 7.63564 125.289 8.03745 125.289 8.49829V22.7911C125.289 23.252 125.46 23.6515 125.793 23.9807C126.125 24.3076 126.527 24.4733 126.985 24.4733C127.444 24.4733 127.846 24.3076 128.173 23.9784C128.381 23.7696 128.527 23.5312 128.604 23.2656C128.788 23.4359 129.008 23.5993 129.264 23.756C130.064 24.2486 130.99 24.496 132.016 24.496C132.583 24.496 133.16 24.4098 133.73 24.2418C134.302 24.0738 134.865 23.8014 135.401 23.4381C135.936 23.0749 136.418 22.63 136.829 22.1146C137.246 21.5948 137.582 20.9523 137.832 20.2054C138.079 19.4631 138.204 18.6481 138.204 17.7832C138.204 16.9183 138.079 16.1192 137.83 15.3814C137.58 14.6436 137.244 14.0034 136.826 13.4835M134.824 17.7809C134.824 18.3689 134.726 18.916 134.534 19.3995C134.343 19.8808 134.093 20.269 133.796 20.5573C133.492 20.8524 133.149 21.0817 132.781 21.2406C132.03 21.5653 131.228 21.5358 130.529 21.2633C130.168 21.1249 129.832 20.9115 129.535 20.6345C129.244 20.3644 129.006 19.983 128.829 19.5017C128.645 19.0068 128.552 18.4279 128.552 17.7809C128.552 17.1339 128.645 16.546 128.829 16.0556C129.008 15.5789 129.246 15.1998 129.539 14.9296C129.841 14.6527 130.175 14.4415 130.529 14.3053C130.885 14.1691 131.271 14.0987 131.678 14.0987C132.048 14.0987 132.42 14.1782 132.783 14.3348C133.151 14.4937 133.492 14.723 133.796 15.0204C134.095 15.3133 134.345 15.7037 134.536 16.1805C134.729 16.6617 134.826 17.1998 134.826 17.7809" fill="white"/>
<path d="M150.329 11.0794C149.871 11.0794 149.469 11.2451 149.137 11.572C148.933 11.7741 148.79 12.0011 148.711 12.2531C148.445 12.017 148.136 11.8059 147.787 11.6197C147.108 11.2588 146.27 11.0771 145.299 11.0771C144.581 11.0771 143.852 11.2224 143.137 11.5107C142.427 11.7968 141.762 12.2099 141.16 12.7389C140.547 13.2769 140.045 13.9943 139.664 14.8683C139.285 15.74 139.094 16.7207 139.094 17.7809C139.094 18.6458 139.219 19.4608 139.467 20.2031C139.716 20.95 140.054 21.5925 140.47 22.1123C140.883 22.6277 141.367 23.0726 141.905 23.4381C142.445 23.8036 143.01 24.0737 143.582 24.2417C144.154 24.4097 144.729 24.496 145.296 24.496C146.322 24.496 147.249 24.2463 148.043 23.7559C148.297 23.5993 148.515 23.4358 148.697 23.2678C148.774 23.5334 148.919 23.7718 149.133 23.9807C149.464 24.3076 149.866 24.4733 150.325 24.4733C150.783 24.4733 151.185 24.3076 151.512 23.9784C151.841 23.6492 152.007 23.2497 152.007 22.7911V12.7639C152.007 12.303 151.841 11.9035 151.512 11.5766C151.183 11.2474 150.783 11.0817 150.325 11.0817M144.513 21.2429C144.145 21.084 143.803 20.8547 143.498 20.5596C143.199 20.2712 142.951 19.8808 142.761 19.4018C142.568 18.9182 142.47 18.3734 142.47 17.7832C142.47 17.1929 142.568 16.6617 142.761 16.1827C142.951 15.706 143.201 15.3155 143.501 15.0227C143.805 14.7253 144.145 14.4937 144.513 14.3371C144.876 14.1804 145.249 14.101 145.619 14.101C146.025 14.101 146.411 14.1691 146.767 14.3076C147.121 14.4438 147.455 14.6549 147.757 14.9319C148.05 15.202 148.291 15.5811 148.47 16.0579C148.654 16.5482 148.747 17.1294 148.747 17.7832C148.747 18.437 148.654 19.009 148.47 19.5039C148.291 19.9852 148.052 20.3666 147.764 20.6367C147.464 20.916 147.128 21.1271 146.77 21.2656C146.068 21.5357 145.269 21.5652 144.515 21.2429" fill="white"/>
<path d="M164.738 11.0793C164.279 11.0793 163.877 11.2451 163.546 11.572C163.342 11.774 163.199 12.001 163.119 12.2553C162.854 12.0192 162.545 11.8081 162.195 11.6219C161.516 11.261 160.674 11.0793 159.696 11.0793C159.128 11.0793 158.552 11.1656 157.98 11.3381C157.408 11.5107 156.845 11.7854 156.309 12.1531C155.773 12.5209 155.294 12.9681 154.881 13.4812C154.463 14.001 154.127 14.6389 153.877 15.379C153.63 16.1145 153.503 16.9227 153.503 17.7786C153.503 18.6344 153.628 19.4585 153.875 20.2008C154.125 20.9477 154.461 21.5901 154.879 22.11C155.292 22.6253 155.773 23.0703 156.307 23.4335C156.845 23.799 157.405 24.0691 157.98 24.2371C158.552 24.4051 159.126 24.4914 159.694 24.4914C160.72 24.4914 161.646 24.2417 162.445 23.7513C162.672 23.6128 162.87 23.4675 163.04 23.32V23.9511C163.04 24.6117 162.801 25.1338 162.313 25.5447C161.812 25.967 161.131 26.1804 160.295 26.1804C159.516 26.1804 158.754 26.0487 158.043 25.7922C157.918 25.74 157.759 25.715 157.56 25.715C157.16 25.715 156.815 25.8603 156.531 26.1486C156.25 26.4346 156.107 26.7797 156.107 27.177C156.107 27.4607 156.184 27.7241 156.336 27.9602C156.486 28.1963 156.692 28.3733 156.951 28.4914C158.009 28.959 159.133 29.1974 160.295 29.1974C160.708 29.1974 161.137 29.1588 161.569 29.0816C161.995 29.0044 162.443 28.8864 162.901 28.732C163.371 28.5708 163.818 28.3461 164.229 28.0646C164.636 27.7854 165.006 27.4607 165.33 27.093C165.666 26.7139 165.934 26.2462 166.129 25.7036C166.32 25.1656 166.418 24.5731 166.418 23.9465V12.7615C166.418 12.3007 166.252 11.9011 165.923 11.5742C165.594 11.2451 165.194 11.0793 164.736 11.0793M158.924 21.2405C158.556 21.0816 158.216 20.8523 157.909 20.5572C157.612 20.2689 157.362 19.8784 157.171 19.3994C156.978 18.9136 156.881 18.3688 156.881 17.7808C156.881 17.1929 156.978 16.6594 157.171 16.1804C157.362 15.7036 157.612 15.3132 157.911 15.0203C158.216 14.7229 158.556 14.4914 158.924 14.3347C159.287 14.1781 159.66 14.0986 160.03 14.0986C160.436 14.0986 160.822 14.1668 161.178 14.3052C161.532 14.4414 161.866 14.6526 162.168 14.9295C162.461 15.1997 162.702 15.5788 162.879 16.0555C163.062 16.5459 163.156 17.127 163.156 17.7808C163.156 18.4346 163.062 19.0067 162.879 19.5016C162.699 19.9829 162.461 20.3642 162.173 20.6344C161.873 20.9136 161.539 21.1248 161.178 21.2632C160.477 21.5334 159.675 21.5629 158.924 21.2405Z" fill="white"/>
<path d="M178.543 12.7025C177.921 12.1963 177.237 11.7967 176.515 11.5129C175.201 10.9976 173.934 10.9522 172.599 11.3381C172.007 11.5107 171.417 11.7831 170.847 12.1486C170.279 12.5141 169.762 12.9568 169.312 13.463C168.854 13.9806 168.479 14.623 168.202 15.3767C167.925 16.1259 167.784 16.9454 167.784 17.8058C167.784 18.6662 167.927 19.4948 168.209 20.2439C168.493 20.9931 168.867 21.6333 169.326 22.144C169.778 22.648 170.295 23.0862 170.867 23.4471C171.442 23.8103 172.034 24.0782 172.627 24.2462C173.219 24.4142 173.807 24.4982 174.37 24.4982C175.911 24.4982 177.26 24.11 178.363 23.3518C178.863 23.043 179.126 22.5776 179.126 22.0033C179.126 21.5606 178.981 21.1883 178.697 20.8977C178.411 20.6049 178.039 20.4573 177.594 20.4573C177.276 20.4573 176.942 20.5754 176.583 20.8205C176.014 21.2564 175.278 21.4766 174.395 21.4766C173.673 21.4766 173.013 21.2383 172.377 20.7456C171.864 20.3484 171.528 19.8376 171.355 19.186H178.79C179.417 19.186 179.88 19.0498 180.207 18.7683C180.545 18.4755 180.717 18.0237 180.717 17.4221C180.717 16.4551 180.513 15.547 180.109 14.7207C179.707 13.8966 179.183 13.2178 178.545 12.7002M177.228 16.2485H171.396C171.514 15.8807 171.694 15.5493 171.932 15.261C172.27 14.8546 172.652 14.5572 173.065 14.3733C173.485 14.1894 173.916 14.0964 174.347 14.0964C175.031 14.0964 175.653 14.3211 176.25 14.7865C176.726 15.1565 177.049 15.6378 177.226 16.2462" fill="white"/>
<path d="M185.494 7.30874C185.158 6.97275 184.747 6.80249 184.275 6.80249C183.803 6.80249 183.392 6.97275 183.053 7.30646C182.713 7.64245 182.54 8.05107 182.54 8.51872V22.7639C182.54 23.2338 182.713 23.6402 183.056 23.9739C183.394 24.3031 183.805 24.4711 184.275 24.4711C184.745 24.4711 185.156 24.3031 185.491 23.9716C185.83 23.6402 186 23.2338 186 22.7639V8.51872C186 8.05107 185.83 7.64472 185.494 7.30646" fill="white"/>
</svg>
