<svg width="61" height="38" viewBox="0 0 61 38" fill="none" xmlns="http://www.w3.org/2000/svg">
<g clip-path="url(#clip0_10_879)">
<path d="M18.9802 6.13373C19.0565 6.38086 19.1393 6.62164 19.2029 6.8751C19.2411 7.01451 19.2601 7.16024 19.292 7.30598C19.3429 7.52776 19.3938 7.75588 19.4319 7.98399C19.4574 8.14874 19.4701 8.31982 19.4892 8.49091C19.5147 8.70001 19.5465 8.90912 19.5592 9.11822C19.591 9.55544 19.5974 9.99266 19.5846 10.4362C19.5846 10.6136 19.5656 10.7974 19.5592 10.9748C19.5465 11.1839 19.5401 11.393 19.5147 11.6085C19.4956 11.8302 19.4638 12.052 19.4319 12.2738C19.4129 12.4259 19.3938 12.5716 19.3683 12.7237C19.3174 13.0342 19.2538 13.3447 19.1838 13.6552C19.1711 13.7059 19.1647 13.7565 19.152 13.8072C19.0693 14.1621 18.9675 14.5169 18.8593 14.8654C18.8275 14.9668 18.7893 15.0682 18.7575 15.1632C18.6748 15.4104 18.5857 15.6575 18.4902 15.8983C18.4457 16.0187 18.3948 16.1454 18.3439 16.2658C18.2548 16.4876 18.153 16.703 18.0512 16.9248C17.9939 17.0515 17.9303 17.1783 17.8731 17.305C17.7713 17.5141 17.6567 17.7169 17.5422 17.9133C17.4658 18.0464 17.3958 18.1794 17.3195 18.3125C17.2177 18.4836 17.1095 18.642 17.0014 18.8067C16.8868 18.9778 16.7787 19.1552 16.6578 19.32C16.575 19.4404 16.4796 19.5544 16.3905 19.6685C16.1996 19.922 16.0024 20.1691 15.7924 20.4099C15.6524 20.5683 15.5125 20.7267 15.3661 20.8788C15.2961 20.9548 15.2198 21.0308 15.1498 21.1069C14.9016 21.3603 14.6408 21.6011 14.3735 21.8356C14.0554 22.108 13.7309 22.3488 13.4 22.577C13.2919 22.653 13.19 22.71 13.0819 22.7797C12.8592 22.9255 12.6301 23.0649 12.4011 23.1853C12.2802 23.255 12.1529 23.312 12.0257 23.3754C11.8093 23.4831 11.593 23.5781 11.3767 23.6668C11.2494 23.7175 11.1221 23.7682 10.9949 23.8126C10.6958 23.9203 10.3968 24.0153 10.1041 24.0914C10.0723 24.0977 10.0341 24.104 10.0023 24.1104C9.74778 24.1674 9.49327 24.2054 9.23876 24.2435C9.09242 24.2625 8.94607 24.2815 8.79973 24.2941C8.57703 24.3132 8.35433 24.3195 8.13164 24.3195C8.02983 24.3195 7.92803 24.3195 7.83259 24.3195C7.52081 24.3068 7.20903 24.2751 6.89726 24.2244C6.85272 24.2181 6.81454 24.2054 6.77 24.1991C6.46459 24.1421 6.15917 24.066 5.86012 23.971L47.2755 37.6515C47.39 37.6895 47.5045 37.7212 47.6191 37.7529C47.8036 37.8036 47.9945 37.8416 48.1854 37.8796C48.2299 37.8859 48.2681 37.8986 48.3126 37.9049C48.3253 37.9049 48.3381 37.9113 48.3508 37.9113C48.6053 37.9556 48.8662 37.981 49.1334 38C49.1716 38 49.2098 38 49.2479 38C49.3497 38 49.4515 38 49.5533 38C49.6997 38 49.846 38.0127 49.9924 38C50.0687 38 50.1451 37.981 50.2151 37.9747C50.3614 37.962 50.5078 37.943 50.6541 37.924C50.7623 37.9113 50.8641 37.9049 50.9659 37.8859C51.1186 37.8606 51.2649 37.8226 51.4176 37.7909C51.4495 37.7846 51.4876 37.7782 51.5195 37.7719C51.7421 37.7149 51.9712 37.6578 52.1939 37.5818C52.2703 37.5564 52.3402 37.5248 52.4166 37.4994C52.5439 37.4551 52.6711 37.4044 52.7984 37.3537C53.0147 37.265 53.231 37.1699 53.4474 37.0622C53.5746 36.9988 53.6955 36.9418 53.8228 36.8721C54.0518 36.7454 54.2745 36.606 54.5036 36.4666C54.6118 36.3969 54.7199 36.3335 54.8217 36.2638C55.1526 36.0357 55.4771 35.7949 55.7952 35.5224C56.0625 35.2943 56.3234 35.0472 56.5715 34.7937C56.6479 34.7177 56.7178 34.6416 56.7878 34.5656C56.8769 34.4706 56.9724 34.3755 57.0614 34.2805C57.1123 34.2234 57.1569 34.1537 57.2141 34.0967C57.4241 33.8559 57.6214 33.6088 57.8122 33.3553C57.8695 33.2793 57.9395 33.2096 57.9968 33.1272C58.0222 33.0892 58.0477 33.0449 58.0795 33.0068C58.2004 32.8357 58.3085 32.6647 58.4231 32.4936C58.5058 32.3668 58.5885 32.2528 58.6712 32.1261C58.6967 32.0817 58.7158 32.0373 58.7412 31.9993C58.8176 31.8663 58.8939 31.7332 58.9703 31.6001C59.0466 31.4607 59.1293 31.3277 59.1993 31.1883C59.2311 31.1249 59.263 31.0552 59.2948 30.9918C59.3584 30.8651 59.4157 30.7384 59.4793 30.6116C59.5302 30.4976 59.5875 30.3899 59.6384 30.2758C59.6829 30.1681 59.7274 30.0604 59.772 29.9526C59.8229 29.8322 59.8738 29.7119 59.9183 29.5851C59.9438 29.5154 59.982 29.4394 60.0074 29.3697C60.071 29.1986 60.1283 29.0212 60.1856 28.8501C60.2174 28.7487 60.2556 28.6537 60.2874 28.5523C60.3001 28.5206 60.3128 28.4889 60.3192 28.4572C60.4146 28.1467 60.5037 27.8299 60.5801 27.5131V27.4941C60.5991 27.4434 60.6055 27.3927 60.6182 27.342C60.6819 27.0695 60.7391 26.7971 60.79 26.5183C60.7964 26.4802 60.7964 26.4486 60.8027 26.4105C60.8282 26.2648 60.8473 26.1127 60.8664 25.9606C60.8918 25.7896 60.9236 25.6185 60.9427 25.4474C60.9427 25.3967 60.9427 25.346 60.9555 25.3016C60.9745 25.0925 60.9873 24.8771 61 24.668C61.0064 24.5286 61.0254 24.3829 61.0318 24.2435C61.0318 24.2054 61.0318 24.1674 61.0318 24.1294C61.0382 23.6858 61.0318 23.2486 61.0064 22.8114C60.9936 22.596 60.9618 22.3869 60.9364 22.1841C60.9173 22.013 60.9046 21.8483 60.8791 21.6772C60.8473 21.4554 60.7964 21.2463 60.7455 21.0308C60.7137 20.8788 60.6882 20.7267 60.65 20.5746C60.5928 20.3465 60.5164 20.1247 60.4464 19.9029C60.4019 19.7699 60.3701 19.6368 60.3255 19.5037C60.2046 19.1552 60.0583 18.8131 59.9056 18.4772C58.8303 16.2024 57.1378 14.7134 55.1781 14.067L13.7372 0.367516C15.697 1.01384 17.3895 2.50292 18.4648 4.77772C18.6239 5.11355 18.7638 5.44939 18.8847 5.80423C18.9229 5.91195 18.9484 6.02601 18.9865 6.13373H18.9802Z" fill="url(#paint0_linear_10_879)"/>
<path d="M14.367 21.8295C9.58214 25.9102 3.65203 24.8837 1.13237 19.5483C-1.39366 14.2067 0.445185 6.57752 5.23 2.49682C10.0084 -1.57755 15.9322 -0.557377 18.4582 4.78429C20.9842 10.1196 19.1518 17.7551 14.367 21.8295Z" fill="url(#paint1_linear_10_879)"/>
</g>
<defs>
<linearGradient id="paint0_linear_10_879" x1="55.5876" y1="9.43492" x2="8.24476" y2="30.1648" gradientUnits="userSpaceOnUse">
<stop stop-color="#D288B7"/>
<stop offset="0.99"/>
</linearGradient>
<linearGradient id="paint1_linear_10_879" x1="18.4259" y1="15.9572" x2="0.825628" y2="9.02167" gradientUnits="userSpaceOnUse">
<stop stop-color="#8083CC"/>
<stop offset="0.99"/>
</linearGradient>
<clipPath id="clip0_10_879">
<rect width="61" height="38" fill="white"/>
</clipPath>
</defs>
</svg>
