<svg width="186" height="36" viewBox="0 0 186 36" fill="none" xmlns="http://www.w3.org/2000/svg">
<path d="M32.8105 10.6027C32.83 10.496 31.1986 9.61325 31.229 9.51139C30.9236 9.56232 30.3348 8.23572 30.0124 8.17751C28.9212 7.98228 28.6985 8.57283 28.4309 7.57121C28.1037 7.63547 28.2545 6.67387 27.9066 6.61081C26.4029 6.34161 27.0659 4.82463 27.336 3.32705C27.3993 2.97539 25.6985 2.03683 25.8761 1.75065C25.2241 1.36383 24.5829 2.00045 24.4163 1.26561C23.9114 1.26803 23.7764 1.04976 23.2715 1.04248C21.46 1.01338 19.7739 0.324616 17.9649 0.282174C16.196 0.239733 14.2507 0.346443 12.5792 0.901821C12.2969 0.995192 12.0025 1.04855 11.7033 1.04855C11.7033 1.04855 7.38692 1.02308 7.38449 1.02308C5.2543 1.02308 3.58032 2.51339 2.63992 4.41841C2.11194 5.48914 1.79928 6.37557 1.49028 7.513C1.15086 8.76199 0.947691 10.0122 0.936742 11.3303C0.93066 12.2107 0.813871 13.0328 0.840635 13.9132C0.868616 14.8251 0.658152 15.726 0.583942 16.6355C0.416057 18.6921 0.946475 20.7099 1.32482 22.7143C1.68492 24.6242 0.815087 26.3898 0.815087 28.3069C0.815087 30.2241 2.56328 32.636 4.31877 33.6242C5.28836 34.1699 6.28107 34.2451 7.30906 34.4294C8.66309 34.6719 9.7811 35.2176 11.2069 35.277C12.1485 35.3171 13.2422 35.3134 14.1838 35.2795C15.5135 35.231 16.6583 35.2928 17.9892 35.3061C19.8347 35.3243 21.8798 35.4177 23.6863 35.0976C25.6791 34.7435 27.0623 35.1582 29.0392 35.0976C31.982 35.0078 33.4237 31.5616 34.392 28.3069C34.392 28.3069 34.6305 26.9245 34.6305 26.9209C34.6305 25.8926 35.3422 25.0207 35.5088 24.0131C35.6268 23.3 35.712 22.581 35.7692 21.8582C35.813 21.2932 35.8397 20.7257 35.8507 20.1606C35.9054 17.3243 35.7643 16.7289 35.3653 13.9981C35.1913 14.0005 34.2047 13.302 34.0271 13.2705C32.5234 13.0013 32.5404 12.1015 32.8105 10.6027Z" fill="#01AFBA"/>
<path d="M34.3918 28.3068C34.3918 28.3068 34.6303 26.9244 34.6303 26.9207C34.6303 25.8924 35.3419 25.0206 35.5086 24.0129C35.6266 23.2999 35.7118 22.5808 35.769 21.8581C35.8128 21.293 35.8395 20.7255 35.8505 20.1604C35.9052 17.3241 35.7641 16.7287 35.3651 13.9979C35.1972 14.0003 34.2823 13.3576 34.0536 13.2788C34.2045 15.4336 34.4514 18.4349 34.0268 21.3948C33.404 25.7409 32.0536 26.6855 30.9855 30.4895C30.1339 33.521 28.0657 32.7934 23.9294 32.4297C19.4209 32.0331 16.1435 33.8848 9.69574 32.0659C7.0327 31.3153 4.10324 31.6657 0.959656 29.352C1.41221 31.0679 2.86235 32.8044 4.31978 33.6241C5.28938 34.1698 6.28209 34.2449 7.31007 34.4293C8.6641 34.6718 9.78211 35.2175 11.2079 35.2769C12.1495 35.3169 13.2432 35.3133 14.1848 35.2793C15.5145 35.2308 16.6593 35.2926 17.9902 35.306C19.8357 35.3242 21.8808 35.4175 23.6873 35.0974C25.6801 34.7433 27.0633 35.158 29.0402 35.0974C31.983 35.0077 33.4247 31.5614 34.393 28.3068" fill="#FDFCDD"/>
<path d="M11.7638 21.5161C17.8466 14.3616 21.3746 17.2719 25.0243 18.6058C24.2943 12.5427 19.4427 9.92226 14.5619 11.4514C10.304 12.7852 9.20906 18.7271 11.7638 21.5161Z" fill="#FDFCDD"/>
<path d="M16.4793 35.796C15.0681 35.7451 13.6581 35.6602 12.2518 35.5074C8.80041 35.1327 3.49623 34.5603 1.31129 31.4548C-0.17412 29.3424 -0.0597641 26.4419 0.0716239 23.9912C0.240725 20.8408 0.153132 17.6819 0.336832 14.5315C0.633672 9.45189 1.71032 0.394865 8.32109 0.0189543C9.60699 -0.0538026 10.8929 0.102625 12.1788 0.15598C14.5 0.251777 16.8187 0.0141039 19.1399 0.0698842C21.4489 0.125665 23.5621 0.923566 25.8371 1.08848C26.0427 1.10303 26.2482 1.1188 26.4551 1.13699C26.7239 1.16245 26.9393 1.36981 26.9733 1.6378C27.0487 2.22592 27.3687 2.76674 27.8529 3.11961C27.9782 3.21056 28.0609 3.3488 28.0828 3.50159C28.1047 3.65438 28.0646 3.80959 27.9709 3.93207C27.803 4.15276 27.6801 4.39771 27.6059 4.66085C27.449 5.22229 27.5195 5.81041 27.8054 6.31728C28.0925 6.82537 28.5597 7.19037 29.1218 7.34801C29.3797 7.41955 29.651 7.44259 29.9247 7.41591C30.2276 7.3856 30.5013 7.59538 30.5512 7.8949C30.6899 8.72796 31.3055 9.41309 32.1181 9.63985C32.3566 9.70654 32.6072 9.7308 32.8639 9.71261C33.0634 9.69806 33.2556 9.78779 33.3724 9.94907C33.679 10.3698 33.2082 11.3315 33.3724 11.8977C33.595 12.6593 34.2471 13.3165 35.0415 13.4596C35.2349 13.4948 35.4491 13.5093 35.5938 13.6427C35.7422 13.7797 35.7714 13.9992 35.7921 14.1993C36.1121 17.34 36.0658 20.5182 35.6315 23.6456C35.415 25.2062 35.1023 26.7523 34.6972 28.2753C34.4855 29.072 34.2337 29.8529 33.9868 30.6387C33.8055 31.2171 33.8079 31.8562 33.5403 32.4007C32.7301 34.0498 31.3833 35.3303 29.5585 35.7608C28.196 36.0809 26.7774 36.0033 25.3784 35.956C22.4137 35.8566 19.4416 35.9039 16.4769 35.7984M12.871 34.4609C15.0608 34.6658 17.2555 34.8647 19.4562 34.8416C21.6947 34.8186 23.7993 34.5664 26.0439 34.7786C26.5828 34.8295 27.1388 34.8817 27.7032 34.918C30.2446 35.0817 32.6936 32.9281 32.9442 30.3101L33.078 28.9107C33.1449 28.2171 33.4539 27.6484 33.7532 27.0991C33.9576 26.7244 34.1498 26.3715 34.2459 26.0077C35.0829 22.8634 35.1109 19.7616 34.8371 16.5445C34.7824 15.9018 34.7264 15.2409 34.6863 14.5788C34.6437 14.5691 34.6011 14.5582 34.5585 14.5461C32.9138 14.0865 31.9004 12.4713 32.1546 10.8294C32.0366 10.81 31.9198 10.7846 31.8043 10.7518C30.7252 10.4511 29.8748 9.62287 29.5305 8.5776C29.2872 8.56547 29.0451 8.52667 28.8079 8.45997C27.9478 8.21988 27.2337 7.66086 26.7957 6.88479C26.3577 6.10871 26.2495 5.21016 26.4903 4.35284C26.5548 4.12366 26.6424 3.90418 26.7543 3.69561C26.359 3.29302 26.0694 2.79463 25.9186 2.25259C25.8626 2.24774 25.8054 2.2441 25.7495 2.24047C25.4392 2.21743 25.129 2.1956 24.8212 2.16043C22.9794 1.9555 21.2774 1.18792 19.4246 1.10546C17.4647 1.01694 15.5219 1.39285 13.5693 1.48258C10.2189 1.63658 6.20428 0.0541203 4.03029 3.56828C3.65681 4.17216 3.62518 4.81364 3.43175 5.46724C3.2371 6.12448 2.85389 6.71502 2.62152 7.37347C2.07772 8.91228 1.95485 10.5627 1.77359 12.173C1.50108 14.5873 1.08137 17.0089 1.20302 19.4475C1.32589 21.9018 1.55339 24.1367 1.30764 26.6153L1.24073 27.2931C1.07042 29.0732 1.91106 30.8849 3.3843 31.9095C3.95365 32.3061 4.5084 32.4273 5.15074 32.568C5.4123 32.625 5.68359 32.6844 5.97313 32.7657C7.02424 33.0603 7.9476 33.663 9.03277 33.9249C10.2347 34.2147 11.472 34.3311 12.7007 34.4463C12.7566 34.4512 12.8138 34.4573 12.8698 34.4621" fill="#0081A8"/>
<path d="M24.4672 19.279C24.1764 22.3202 21.0109 24.5065 17.3978 24.1634C13.7846 23.819 11.0923 21.076 11.3831 18.0348C11.6751 14.9936 14.8393 12.8072 18.4525 13.1504C22.0657 13.4948 24.7579 16.2377 24.4659 19.2802" fill="white"/>
<path d="M18.5085 12.5769C14.5851 12.2034 11.1313 14.6274 10.8101 17.9791C10.4889 21.3308 13.4196 24.3623 17.3442 24.7358C21.2688 25.1093 24.7214 22.6852 25.0426 19.3336C25.3638 15.9807 22.4331 12.9504 18.5085 12.5769ZM17.4306 14.4516C22.4696 13.9981 23.3771 16.9071 23.6618 18.9031C23.9294 20.7887 22.5195 21.9007 21.337 22.7447C19.7202 23.8991 17.5754 23.8287 15.6982 23.1788C13.7201 22.4937 12.04 21.1998 12.478 18.2495C12.8588 15.6788 15.0924 14.6626 17.4318 14.4528" fill="#0081A8"/>
<path d="M28.0549 21.6386C27.9406 22.1939 27.6255 22.5977 27.3505 22.542C27.0756 22.4862 26.9454 21.9902 27.0586 21.4361C27.1729 20.8819 27.488 20.4769 27.7629 20.5327C28.0379 20.5884 28.1681 21.0844 28.0549 21.6386Z" fill="#FDFCDD"/>
<path d="M27.7763 21.5816C27.662 22.137 27.3469 22.5408 27.0719 22.485C26.797 22.4292 26.6668 21.9333 26.78 21.3791C26.8943 20.8237 27.2094 20.4199 27.4843 20.4757C27.7593 20.5315 27.8895 21.0274 27.7763 21.5816Z" fill="#0081A8"/>
<path d="M27.3917 27.8134C27.8735 28.1129 28.1448 28.5482 27.9964 28.7859C27.8479 29.0235 27.337 28.9738 26.854 28.6743C26.371 28.3748 26.101 27.9395 26.2494 27.7018C26.3978 27.4641 26.9088 27.5138 27.3917 27.8134Z" fill="#FDFCDD"/>
<path d="M27.2411 28.0545C27.7241 28.354 27.9941 28.7894 27.8457 29.027C27.6973 29.2647 27.1863 29.215 26.7034 28.9155C26.2216 28.6159 25.9503 28.1806 26.0987 27.9429C26.2472 27.7053 26.7581 27.755 27.2411 28.0545Z" fill="#0081A8"/>
<path d="M32.6231 22.4947C32.5087 23.0501 32.1936 23.4539 31.9187 23.3981C31.6438 23.3423 31.5136 22.8464 31.6279 22.291C31.7423 21.7368 32.0574 21.3318 32.3323 21.3888C32.6073 21.4446 32.7374 21.9405 32.6243 22.4947" fill="#FDFCDD"/>
<path d="M32.343 22.4378C32.2287 22.9932 31.9136 23.397 31.6386 23.3412C31.3637 23.2854 31.2335 22.7895 31.3467 22.2341C31.461 21.6799 31.7761 21.2749 32.0511 21.3307C32.326 21.3865 32.4562 21.8824 32.343 22.4366" fill="#0081A8"/>
<path d="M27.7594 13.513C27.645 14.0683 27.3299 14.4721 27.055 14.4164C26.78 14.3606 26.6487 13.8646 26.763 13.3105C26.8774 12.7551 27.1925 12.3513 27.4674 12.4071C27.7423 12.4628 27.8737 12.9588 27.7594 13.513Z" fill="#FDFCDD"/>
<path d="M27.4796 13.4558C27.3652 14.0112 27.0501 14.415 26.7752 14.3592C26.5002 14.3035 26.3701 13.8075 26.4844 13.2533C26.5988 12.698 26.9139 12.2942 27.1888 12.3499C27.4637 12.4057 27.5939 12.9017 27.4808 13.4558" fill="#0081A8"/>
<path d="M19.1412 28.6524C19.0269 29.2078 18.7118 29.6116 18.4368 29.5558C18.1619 29.5 18.0317 29.004 18.1449 28.4499C18.2592 27.8945 18.5743 27.4907 18.8492 27.5465C19.1242 27.6022 19.2544 28.0982 19.1412 28.6524Z" fill="#FDFCDD"/>
<path d="M18.8612 28.5954C18.7468 29.1508 18.4317 29.5546 18.1568 29.4988C17.8819 29.4431 17.7505 28.9471 17.8648 28.3929C17.9792 27.8388 18.2943 27.4338 18.5692 27.4895C18.8441 27.5453 18.9755 28.0413 18.8612 28.5954Z" fill="#0081A8"/>
<path d="M23.1608 9.35964C22.752 9.64218 22.3055 9.70887 22.1656 9.50636C22.0257 9.30507 22.2435 8.91218 22.6522 8.62843C23.0622 8.34589 23.5075 8.2792 23.6474 8.4817C23.7873 8.68421 23.5695 9.07589 23.1608 9.35964Z" fill="#FDFCDD"/>
<path d="M23.0182 9.15483C22.6094 9.43737 22.1629 9.50407 22.023 9.30156C21.8831 9.10027 22.1009 8.70738 22.5097 8.42363C22.9196 8.14109 23.3649 8.07439 23.5048 8.2769C23.6447 8.47941 23.4269 8.87108 23.0182 9.15483Z" fill="#0081A8"/>
<path d="M12.6911 26.6575C12.1546 26.8455 11.6448 26.7837 11.5511 26.5205C11.4575 26.2562 11.8164 25.89 12.3529 25.702C12.8894 25.514 13.3991 25.5759 13.4928 25.839C13.5864 26.1034 13.2276 26.4696 12.6911 26.6575Z" fill="#FDFCDD"/>
<path d="M12.5971 26.3896C12.0606 26.5776 11.5509 26.5157 11.4572 26.2526C11.3635 25.9882 11.7224 25.622 12.2589 25.4341C12.7954 25.2461 13.3051 25.3079 13.3988 25.5711C13.4925 25.8354 13.1336 26.2016 12.5971 26.3896Z" fill="#0081A8"/>
<path d="M5.9889 21.2229C5.49498 20.9428 5.20666 20.5184 5.34534 20.2759C5.48403 20.0321 5.99742 20.0624 6.49134 20.3413C6.98526 20.6214 7.27358 21.0459 7.1349 21.2884C6.99621 21.5321 6.48282 21.5018 5.9889 21.2229Z" fill="#FDFCDD"/>
<path d="M6.13011 20.9755C5.63619 20.6954 5.34786 20.2709 5.48655 20.0284C5.62524 19.7847 6.13862 19.815 6.63254 20.0939C7.12647 20.374 7.41479 20.7984 7.2761 21.041C7.13742 21.2847 6.62403 21.2544 6.13011 20.9755Z" fill="#0081A8"/>
<path d="M5.91465 12.6543C5.50954 12.2565 5.34044 11.7727 5.53752 11.5738C5.7346 11.3738 6.22244 11.535 6.62756 11.9316C7.03267 12.3281 7.20177 12.8119 7.00469 13.012C6.80761 13.2121 6.31977 13.052 5.91465 12.6543Z" fill="#FDFCDD"/>
<path d="M6.11409 12.4508C5.70897 12.0542 5.53987 11.5704 5.73695 11.3703C5.93404 11.1702 6.42187 11.3315 6.82699 11.728C7.2321 12.1246 7.4012 12.6084 7.20412 12.8085C7.00704 13.0086 6.5192 12.8473 6.11409 12.4508Z" fill="#0081A8"/>
<path d="M7.32822 30.3065C6.88783 30.6642 6.38539 30.777 6.20899 30.56C6.03259 30.3429 6.24549 29.8773 6.6871 29.5195C7.12871 29.1618 7.62993 29.049 7.80633 29.2661C7.98395 29.4832 7.76983 29.9488 7.32822 30.3065Z" fill="#FDFCDD"/>
<path d="M7.14814 30.0859C6.70775 30.4436 6.20653 30.5564 6.02891 30.3393C5.85251 30.1223 6.06541 29.6566 6.50702 29.2989C6.94863 28.9412 7.44985 28.8284 7.62625 29.0455C7.80386 29.2625 7.58975 29.7282 7.14814 30.0859Z" fill="#0081A8"/>
<path d="M8.66652 5.99482C8.11055 5.87599 7.70909 5.55707 7.76748 5.28302C7.82709 5.00896 8.32467 4.88407 8.88063 5.00411C9.4366 5.12295 9.83806 5.44187 9.77967 5.71592C9.72006 5.98997 9.22248 6.11487 8.66652 5.99603" fill="#FDFCDD"/>
<path d="M8.72609 5.71598C8.17012 5.59715 7.76866 5.27823 7.82705 5.00418C7.88666 4.73013 8.38423 4.60523 8.9402 4.72528C9.49617 4.84411 9.89763 5.16303 9.83923 5.43708C9.77962 5.71113 9.28205 5.83603 8.72609 5.7172" fill="#0081A8"/>
<path d="M18.9573 4.66215C18.3916 4.72036 17.9099 4.5421 17.8819 4.2632C17.8527 3.9843 18.2882 3.71146 18.8527 3.65326C19.4184 3.59505 19.9001 3.7733 19.9281 4.05221C19.9573 4.33111 19.5218 4.60395 18.9573 4.66215Z" fill="#FDFCDD"/>
<path d="M18.9284 4.37953C18.3627 4.43773 17.8809 4.25948 17.8529 3.98058C17.8238 3.70168 18.2593 3.42884 18.8238 3.37063C19.3895 3.31243 19.8712 3.49068 19.8992 3.76958C19.9284 4.04848 19.4929 4.32132 18.9284 4.37953Z" fill="#0081A8"/>
<path d="M14.1436 8.82021C14.0451 9.29919 13.7725 9.64843 13.5353 9.59992C13.2981 9.55142 13.185 9.12336 13.2835 8.64438C13.382 8.1654 13.6545 7.81616 13.8918 7.86467C14.129 7.91317 14.2421 8.34123 14.1436 8.82021Z" fill="#FDFCDD"/>
<path d="M13.9014 8.77047C13.8029 9.24945 13.5304 9.59868 13.2932 9.55018C13.0559 9.50167 12.9428 9.07362 13.0413 8.59464C13.1399 8.11565 13.4124 7.76642 13.6496 7.81492C13.8868 7.86343 14 8.29148 13.9014 8.77047Z" fill="#0081A8"/>
<path d="M31.7751 15.8133C31.6912 16.2183 31.4613 16.513 31.2605 16.4717C31.0598 16.4305 30.9649 16.0691 31.0476 15.6641C31.1316 15.2591 31.3615 14.9645 31.5622 15.0057C31.763 15.0469 31.8579 15.4083 31.7751 15.8133Z" fill="#FDFCDD"/>
<path d="M31.5707 15.7721C31.4867 16.1771 31.2568 16.4718 31.0561 16.4305C30.8553 16.3893 30.7604 16.0279 30.8432 15.6229C30.9271 15.2179 31.157 14.9233 31.3578 14.9645C31.5585 15.0057 31.6534 15.3671 31.5707 15.7721Z" fill="#0081A8"/>
<path d="M55.0329 17.6629C54.6583 17.3677 54.2588 17.1248 53.8456 16.9432C53.4461 16.7684 52.9535 16.5982 52.3837 16.4393L50.6674 15.9648C49.7594 15.7151 49.6527 15.2883 49.6527 14.9909C49.6527 14.8456 49.689 14.6277 49.9977 14.3961C50.2611 14.1986 50.6107 14.0987 51.042 14.0987C51.7616 14.0987 52.311 14.3235 52.7242 14.7889C53.0602 15.1702 53.4756 15.3632 53.9591 15.3632C54.4018 15.3632 54.7855 15.2043 55.101 14.8933C55.4188 14.58 55.58 14.1986 55.58 13.7605C55.58 13.3723 55.4347 13.0091 55.1419 12.6754C54.6447 12.1351 54.0749 11.7287 53.4506 11.4676C52.8309 11.2088 51.9977 11.0794 50.9716 11.0794C50.1884 11.0794 49.4325 11.2338 48.7219 11.5357C48 11.8422 47.3961 12.3008 46.924 12.8978C46.4381 13.513 46.1907 14.21 46.1907 14.9705C46.1907 15.9943 46.5062 16.8297 47.126 17.4517C47.7208 18.0465 48.6515 18.521 49.8933 18.8615L51.6027 19.3337C52.0522 19.4676 52.37 19.6288 52.5448 19.815C52.7015 19.9807 52.7764 20.1941 52.7764 20.471C52.7764 20.6345 52.731 20.8819 52.3451 21.1407C52.0091 21.3655 51.5846 21.479 51.0851 21.479C50.5857 21.479 50.143 21.3995 49.7934 21.2406C49.4506 21.084 49.1305 20.8184 48.8558 20.462C48.5607 20.0511 48.1135 19.8331 47.5687 19.8331C47.1237 19.8331 46.7446 19.9875 46.4472 20.2894C46.1498 20.5914 46 20.9523 46 21.3655C46 21.8309 46.1771 22.269 46.5153 22.6527C46.9784 23.2179 47.6186 23.672 48.4154 24.0034C49.2009 24.3303 50.0749 24.496 51.0102 24.496C51.6322 24.496 52.2497 24.4075 52.8513 24.2304C53.4529 24.0533 54.0091 23.8014 54.5062 23.479C55.0193 23.1475 55.4393 22.7162 55.7571 22.1986C56.0795 21.6697 56.2406 21.0885 56.2406 20.4688C56.2406 19.849 56.1408 19.3155 55.9432 18.8524C55.7412 18.378 55.437 17.9784 55.0352 17.6629" fill="#0081A8"/>
<path d="M68.6016 11.0794C68.143 11.0794 67.7412 11.2452 67.4098 11.5721C67.2055 11.7741 67.0624 12.0011 66.983 12.2554C66.7174 12.0193 66.4086 11.8082 66.059 11.6243C65.3803 11.2633 64.5426 11.0817 63.571 11.0817C62.8536 11.0817 62.1271 11.227 61.4098 11.5153C60.6992 11.8013 60.0341 12.2145 59.4325 12.7435C58.8195 13.2815 58.3178 13.9989 57.9364 14.8729C57.5573 15.7446 57.3644 16.7253 57.3644 17.7855C57.3644 18.6504 57.4892 19.4654 57.7367 20.2077C57.9864 20.9546 58.3224 21.597 58.7401 22.1169C59.1532 22.6322 59.6368 23.0794 60.1748 23.4427C60.7151 23.8082 61.2804 24.0783 61.8525 24.2463C62.4223 24.4143 62.9989 24.5006 63.5664 24.5006C64.5925 24.5006 65.5165 24.2508 66.3133 23.7605C66.5358 23.622 66.7333 23.479 66.9013 23.3314V27.3042C66.9013 27.765 67.0715 28.1668 67.4052 28.4937C67.7367 28.8207 68.1385 28.9864 68.5971 28.9864C69.0556 28.9864 69.4574 28.8206 69.7844 28.4915C70.1135 28.1623 70.2792 27.7628 70.2792 27.3042V12.7684C70.2792 12.3076 70.1135 11.908 69.7844 11.5811C69.4552 11.252 69.0556 11.0862 68.5971 11.0862M62.7855 21.2474C62.4177 21.0885 62.0772 20.8592 61.7707 20.5641C61.4711 20.2758 61.2236 19.8853 61.0329 19.4063C60.84 18.9205 60.7424 18.3757 60.7424 17.7877C60.7424 17.1998 60.84 16.6663 61.0329 16.1873C61.2236 15.7105 61.4733 15.3201 61.773 15.0272C62.0772 14.7298 62.4177 14.4983 62.7855 14.3416C63.1487 14.185 63.521 14.1055 63.891 14.1055C64.2974 14.1055 64.6833 14.1737 65.0397 14.3121C65.3939 14.4483 65.7276 14.6595 66.0295 14.9364C66.3224 15.2066 66.563 15.5857 66.7401 16.0624C66.924 16.5528 67.017 17.1339 67.017 17.7877C67.017 18.4415 66.924 19.0136 66.7401 19.5085C66.5607 19.9898 66.3224 20.3712 66.0341 20.6413C65.7344 20.9205 65.4007 21.1317 65.0397 21.2701C64.3383 21.5403 63.5369 21.5698 62.7855 21.2474Z" fill="#0081A8"/>
<path d="M82.8763 11.1498C82.4177 11.1498 82.0159 11.3178 81.6845 11.6515C81.353 11.983 81.185 12.3848 81.185 12.8433V18.3621C81.1124 18.7662 80.9308 19.2043 80.6447 19.6651C80.3542 20.1351 79.9387 20.5596 79.4075 20.9251C78.8922 21.2815 78.3678 21.454 77.8002 21.454C77.1782 21.454 76.6924 21.2429 76.3178 20.8116C75.9342 20.3689 75.7389 19.6334 75.7389 18.63V12.8456C75.7389 12.387 75.571 11.9852 75.2372 11.6515C74.9058 11.3201 74.504 11.1498 74.0431 11.1498C73.5823 11.1498 73.1828 11.3201 72.8536 11.6538C72.5267 11.9852 72.361 12.387 72.361 12.8456V18.7798C72.361 19.7469 72.4972 20.6141 72.7673 21.3519C73.042 22.1078 73.4325 22.7185 73.9251 23.168C74.4086 23.6107 74.9626 23.9421 75.5687 24.1555C76.168 24.3666 76.8286 24.4733 77.5346 24.4733C78.1385 24.4733 78.7219 24.3575 79.2713 24.1305C79.8161 23.9035 80.2747 23.6152 80.6311 23.2701C80.8354 23.0726 81.0216 22.8729 81.185 22.6731V22.7684C81.185 23.2293 81.353 23.6288 81.6867 23.958C82.0182 24.2849 82.4177 24.4529 82.8763 24.4529C83.3349 24.4529 83.7321 24.2872 84.0636 23.958C84.395 23.6288 84.5653 23.2293 84.5653 22.7684V12.8456C84.5653 12.387 84.3973 11.9852 84.0658 11.6538C83.7344 11.3201 83.3349 11.1521 82.8763 11.1521" fill="#0081A8"/>
<path d="M97.4052 11.0794C96.9467 11.0794 96.5448 11.2452 96.2134 11.5721C96.0091 11.7741 95.8661 12.0011 95.7866 12.2554C95.521 12.0193 95.2123 11.8082 94.8627 11.6243C94.1839 11.2633 93.3462 11.0817 92.3746 11.0817C91.6572 11.0817 90.9308 11.227 90.2134 11.5153C89.5028 11.8013 88.8377 12.2145 88.2361 12.7435C87.6232 13.2815 87.1215 13.9989 86.7401 14.8729C86.361 15.7446 86.1703 16.7253 86.1703 17.7855C86.1703 18.6504 86.2951 19.4654 86.5426 20.2077C86.7923 20.9546 87.1283 21.597 87.546 22.1169C87.9591 22.6322 88.4427 23.0794 88.9807 23.4427C89.521 23.8082 90.0863 24.0783 90.6583 24.2463C91.2282 24.4143 91.8048 24.5006 92.3723 24.5006C93.3984 24.5006 94.3224 24.2508 95.1192 23.7605C95.3734 23.6038 95.5914 23.4404 95.773 23.2724C95.8502 23.538 95.9977 23.7764 96.2089 23.9852C96.5403 24.3121 96.9421 24.4779 97.4007 24.4779C97.8593 24.4779 98.2611 24.3121 98.588 23.983C98.9171 23.6538 99.0829 23.2542 99.0829 22.7957V12.7684C99.0829 12.3076 98.9149 11.908 98.588 11.5811C98.2588 11.252 97.8593 11.0862 97.4007 11.0862M91.5891 21.2474C91.2213 21.0885 90.8808 20.8592 90.5744 20.5641C90.2747 20.2758 90.0272 19.8853 89.8366 19.4063C89.6436 18.9205 89.546 18.3757 89.546 17.7877C89.546 17.1998 89.6436 16.6663 89.8366 16.1873C90.0272 15.7105 90.277 15.3201 90.5766 15.0272C90.8808 14.7298 91.2213 14.4983 91.5891 14.3416C91.9523 14.185 92.3246 14.1055 92.6947 14.1055C93.101 14.1055 93.487 14.1737 93.8434 14.3121C94.1975 14.4483 94.5312 14.6595 94.8332 14.9364C95.126 15.2066 95.3666 15.5857 95.5437 16.0624C95.7276 16.5528 95.8207 17.1339 95.8207 17.7877C95.8207 18.4415 95.7276 19.0136 95.5437 19.5085C95.3644 19.9898 95.126 20.3712 94.8377 20.6413C94.538 20.9205 94.2043 21.1317 93.8434 21.2701C93.1419 21.5403 92.3405 21.5698 91.5891 21.2474Z" fill="#0081A8"/>
<path d="M108.463 11.1022C107.546 11.1022 106.672 11.3451 105.862 11.8218C105.378 12.1078 104.94 12.4438 104.547 12.8297C104.545 12.378 104.377 11.9807 104.054 11.6515C103.725 11.3178 103.326 11.1476 102.865 11.1476C102.404 11.1476 102.005 11.3156 101.671 11.6493C101.337 11.9807 101.169 12.3825 101.169 12.8434V22.7889C101.169 23.2497 101.337 23.6493 101.671 23.9784C102.002 24.3053 102.404 24.4711 102.863 24.4711C103.321 24.4711 103.723 24.3053 104.05 23.9762C104.379 23.647 104.545 23.2475 104.545 22.7889V16.7072C104.84 15.9716 105.292 15.3859 105.889 14.966C106.499 14.5369 107.251 14.3167 108.125 14.3167H108.531C109.01 14.3167 109.419 14.16 109.746 13.8536C110.079 13.5403 110.25 13.1498 110.25 12.6913C110.25 12.2327 110.079 11.8468 109.748 11.5426C109.426 11.2497 108.992 11.0999 108.463 11.0999" fill="#0081A8"/>
<path d="M121.41 12.7026C120.788 12.1964 120.107 11.7968 119.385 11.5131C118.07 10.9977 116.804 10.9523 115.469 11.3383C114.874 11.5108 114.286 11.7832 113.716 12.1487C113.149 12.5142 112.631 12.9569 112.182 13.4631C111.723 13.9807 111.348 14.6232 111.072 15.3769C110.795 16.1283 110.654 16.9455 110.654 17.8059C110.654 18.6663 110.797 19.4949 111.078 20.2418C111.36 20.9909 111.737 21.6311 112.195 22.1419C112.647 22.6459 113.165 23.084 113.737 23.445C114.311 23.8082 114.901 24.0761 115.496 24.2441C116.089 24.412 116.677 24.496 117.242 24.496C118.783 24.496 120.132 24.1078 121.235 23.3496C121.734 23.0409 121.998 22.5755 121.998 22.0011C121.998 21.5585 121.852 21.1862 121.569 20.8956C121.283 20.6027 120.91 20.4552 120.465 20.4552C120.148 20.4552 119.814 20.5732 119.455 20.8184C118.885 21.2543 118.15 21.4745 117.267 21.4745C116.545 21.4745 115.884 21.2361 115.249 20.7435C114.736 20.3462 114.4 19.8354 114.227 19.1839H121.662C122.288 19.1839 122.751 19.0477 123.078 18.7662C123.417 18.4756 123.589 18.0216 123.589 17.42C123.589 16.4529 123.385 15.5448 122.983 14.7185C122.581 13.8944 122.054 13.2157 121.419 12.6981M120.102 16.2463H114.27C114.388 15.8786 114.568 15.5471 114.806 15.2588C115.144 14.8524 115.526 14.5528 115.939 14.3712C116.359 14.1873 116.79 14.0942 117.221 14.0942C117.905 14.0942 118.527 14.319 119.124 14.7843C119.6 15.1544 119.923 15.6356 120.1 16.244" fill="#0081A8"/>
<path d="M136.831 13.4835C136.42 12.9705 135.939 12.5233 135.403 12.1555C134.865 11.7877 134.304 11.5131 133.732 11.3405C133.16 11.168 132.583 11.0817 132.016 11.0817C131.037 11.0817 130.198 11.2633 129.516 11.6243C129.199 11.7923 128.915 11.9807 128.667 12.1896V8.49829C128.667 8.03972 128.502 7.6379 128.175 7.30646C127.846 6.97275 127.446 6.80249 126.985 6.80249C126.524 6.80249 126.125 6.97049 125.791 7.3042C125.46 7.63564 125.289 8.03745 125.289 8.49829V22.7911C125.289 23.252 125.46 23.6515 125.793 23.9807C126.125 24.3076 126.527 24.4733 126.985 24.4733C127.444 24.4733 127.846 24.3076 128.173 23.9784C128.381 23.7696 128.527 23.5312 128.604 23.2656C128.788 23.4359 129.008 23.5993 129.264 23.756C130.064 24.2486 130.99 24.496 132.016 24.496C132.583 24.496 133.16 24.4098 133.73 24.2418C134.302 24.0738 134.865 23.8014 135.401 23.4381C135.936 23.0749 136.418 22.63 136.829 22.1146C137.246 21.5948 137.582 20.9523 137.832 20.2054C138.079 19.4631 138.204 18.6481 138.204 17.7832C138.204 16.9183 138.079 16.1192 137.83 15.3814C137.58 14.6436 137.244 14.0034 136.826 13.4835M134.824 17.7809C134.824 18.3689 134.726 18.916 134.534 19.3995C134.343 19.8808 134.093 20.269 133.796 20.5573C133.492 20.8524 133.149 21.0817 132.781 21.2406C132.03 21.5653 131.228 21.5358 130.529 21.2633C130.168 21.1249 129.832 20.9115 129.535 20.6345C129.244 20.3644 129.006 19.983 128.829 19.5017C128.645 19.0068 128.552 18.4279 128.552 17.7809C128.552 17.1339 128.645 16.546 128.829 16.0556C129.008 15.5789 129.246 15.1998 129.539 14.9296C129.841 14.6527 130.175 14.4415 130.529 14.3053C130.885 14.1691 131.271 14.0987 131.678 14.0987C132.048 14.0987 132.42 14.1782 132.783 14.3348C133.151 14.4937 133.492 14.723 133.796 15.0204C134.095 15.3133 134.345 15.7037 134.536 16.1805C134.729 16.6617 134.826 17.1998 134.826 17.7809" fill="#0081A8"/>
<path d="M150.329 11.0794C149.871 11.0794 149.469 11.2452 149.137 11.5721C148.933 11.7741 148.79 12.0011 148.711 12.2531C148.445 12.017 148.136 11.8059 147.787 11.6197C147.108 11.2588 146.27 11.0772 145.299 11.0772C144.581 11.0772 143.852 11.2225 143.137 11.5108C142.427 11.7968 141.762 12.21 141.16 12.7389C140.547 13.2769 140.045 13.9943 139.664 14.8683C139.285 15.7401 139.094 16.7208 139.094 17.7809C139.094 18.6459 139.219 19.4608 139.467 20.2032C139.716 20.95 140.054 21.5925 140.47 22.1124C140.883 22.6277 141.367 23.0726 141.905 23.4381C142.445 23.8036 143.01 24.0738 143.582 24.2418C144.154 24.4098 144.729 24.496 145.296 24.496C146.322 24.496 147.249 24.2463 148.043 23.7559C148.297 23.5993 148.515 23.4359 148.697 23.2679C148.774 23.5335 148.919 23.7718 149.133 23.9807C149.464 24.3076 149.866 24.4733 150.325 24.4733C150.783 24.4733 151.185 24.3076 151.512 23.9784C151.841 23.6493 152.007 23.2497 152.007 22.7911V12.7639C152.007 12.3031 151.841 11.9035 151.512 11.5766C151.183 11.2474 150.783 11.0817 150.325 11.0817M144.513 21.2429C144.145 21.084 143.803 20.8547 143.498 20.5596C143.199 20.2713 142.951 19.8808 142.761 19.4018C142.568 18.9183 142.47 18.3734 142.47 17.7832C142.47 17.193 142.568 16.6617 142.761 16.1827C142.951 15.706 143.201 15.3155 143.501 15.0227C143.805 14.7253 144.145 14.4937 144.513 14.3371C144.876 14.1805 145.249 14.101 145.619 14.101C146.025 14.101 146.411 14.1691 146.767 14.3076C147.121 14.4438 147.455 14.6549 147.757 14.9319C148.05 15.202 148.291 15.5812 148.47 16.0579C148.654 16.5482 148.747 17.1294 148.747 17.7832C148.747 18.437 148.654 19.0091 148.47 19.504C148.291 19.9852 148.052 20.3666 147.764 20.6368C147.464 20.916 147.128 21.1271 146.77 21.2656C146.068 21.5358 145.269 21.5653 144.515 21.2429" fill="#0081A8"/>
<path d="M164.738 11.0794C164.279 11.0794 163.877 11.2452 163.546 11.5721C163.342 11.7741 163.199 12.0011 163.119 12.2554C162.854 12.0193 162.545 11.8082 162.195 11.622C161.516 11.2611 160.674 11.0794 159.696 11.0794C159.128 11.0794 158.552 11.1657 157.98 11.3382C157.408 11.5108 156.845 11.7855 156.309 12.1532C155.773 12.521 155.294 12.9682 154.881 13.4813C154.463 14.0011 154.127 14.639 153.877 15.3791C153.63 16.1146 153.503 16.9228 153.503 17.7786C153.503 18.6345 153.628 19.4586 153.875 20.2009C154.125 20.9478 154.461 21.5902 154.879 22.1101C155.292 22.6254 155.773 23.0704 156.307 23.4336C156.845 23.7991 157.405 24.0692 157.98 24.2372C158.552 24.4052 159.126 24.4915 159.694 24.4915C160.72 24.4915 161.646 24.2418 162.445 23.7514C162.672 23.6129 162.87 23.4676 163.04 23.3201V23.9512C163.04 24.6118 162.801 25.1339 162.313 25.5448C161.812 25.9671 161.131 26.1805 160.295 26.1805C159.516 26.1805 158.754 26.0488 158.043 25.7923C157.918 25.7401 157.759 25.7151 157.56 25.7151C157.16 25.7151 156.815 25.8604 156.531 26.1487C156.25 26.4347 156.107 26.7798 156.107 27.1771C156.107 27.4608 156.184 27.7242 156.336 27.9603C156.486 28.1964 156.692 28.3734 156.951 28.4915C158.009 28.9591 159.133 29.1975 160.295 29.1975C160.708 29.1975 161.137 29.1589 161.569 29.0817C161.995 29.0045 162.443 28.8865 162.901 28.7321C163.371 28.5709 163.818 28.3462 164.229 28.0647C164.636 27.7855 165.006 27.4608 165.33 27.0931C165.666 26.7139 165.934 26.2463 166.129 25.7037C166.32 25.1657 166.418 24.5732 166.418 23.9466V12.7616C166.418 12.3008 166.252 11.9012 165.923 11.5743C165.594 11.2452 165.194 11.0794 164.736 11.0794M158.924 21.2406C158.556 21.0817 158.216 20.8524 157.909 20.5573C157.612 20.269 157.362 19.8785 157.171 19.3995C156.978 18.9137 156.881 18.3689 156.881 17.7809C156.881 17.1929 156.978 16.6595 157.171 16.1805C157.362 15.7037 157.612 15.3133 157.911 15.0204C158.216 14.723 158.556 14.4915 158.924 14.3348C159.287 14.1782 159.66 14.0987 160.03 14.0987C160.436 14.0987 160.822 14.1668 161.178 14.3053C161.532 14.4415 161.866 14.6527 162.168 14.9296C162.461 15.1998 162.702 15.5789 162.879 16.0556C163.062 16.546 163.156 17.1271 163.156 17.7809C163.156 18.4347 163.062 19.0068 162.879 19.5017C162.699 19.983 162.461 20.3643 162.173 20.6345C161.873 20.9137 161.539 21.1248 161.178 21.2633C160.477 21.5335 159.675 21.563 158.924 21.2406Z" fill="#0081A8"/>
<path d="M178.543 12.7026C177.921 12.1964 177.237 11.7968 176.515 11.5131C175.201 10.9977 173.934 10.9523 172.599 11.3383C172.007 11.5108 171.417 11.7832 170.847 12.1487C170.279 12.5142 169.762 12.9569 169.312 13.4631C168.854 13.9807 168.479 14.6232 168.202 15.3769C167.925 16.126 167.784 16.9455 167.784 17.8059C167.784 18.6663 167.927 19.4949 168.209 20.2441C168.493 20.9932 168.867 21.6334 169.326 22.1442C169.778 22.6481 170.295 23.0863 170.867 23.4472C171.442 23.8105 172.034 24.0783 172.627 24.2463C173.219 24.4143 173.807 24.4983 174.37 24.4983C175.911 24.4983 177.26 24.1101 178.363 23.3519C178.863 23.0431 179.126 22.5778 179.126 22.0034C179.126 21.5607 178.981 21.1884 178.697 20.8979C178.411 20.605 178.039 20.4574 177.594 20.4574C177.276 20.4574 176.942 20.5755 176.583 20.8207C176.014 21.2565 175.278 21.4767 174.395 21.4767C173.673 21.4767 173.013 21.2384 172.377 20.7458C171.864 20.3485 171.528 19.8377 171.355 19.1862H178.79C179.417 19.1862 179.88 19.05 180.207 18.7685C180.545 18.4756 180.717 18.0238 180.717 17.4223C180.717 16.4552 180.513 15.5471 180.109 14.7208C179.707 13.8967 179.183 13.2179 178.545 12.7004M177.228 16.2486H171.396C171.514 15.8808 171.694 15.5494 171.932 15.2611C172.27 14.8547 172.652 14.5573 173.065 14.3734C173.485 14.1896 173.916 14.0965 174.347 14.0965C175.031 14.0965 175.653 14.3212 176.25 14.7866C176.726 15.1567 177.049 15.6379 177.226 16.2463" fill="#0081A8"/>
<path d="M185.494 7.30874C185.158 6.97275 184.747 6.80249 184.275 6.80249C183.803 6.80249 183.392 6.97275 183.053 7.30646C182.713 7.64245 182.54 8.05107 182.54 8.51872V22.7639C182.54 23.2338 182.713 23.6402 183.056 23.9739C183.394 24.3031 183.805 24.4711 184.275 24.4711C184.745 24.4711 185.156 24.3031 185.491 23.9716C185.83 23.6402 186 23.2338 186 22.7639V8.51872C186 8.05107 185.83 7.64472 185.494 7.30646" fill="#0081A8"/>
</svg>
