<svg width="84" height="88" viewBox="0 0 84 88" fill="none" xmlns="http://www.w3.org/2000/svg">
<g clip-path="url(#clip0_10_901)">
<path d="M83.8325 54.6499C83.8848 54.2288 83.9215 53.8076 83.9476 53.3865C83.9529 53.2812 83.9738 53.1706 83.979 53.0653C83.979 52.9969 83.9738 52.9285 83.979 52.86C84.0157 52.0019 84.0052 51.1596 83.9476 50.3278C83.9476 50.2699 83.9476 50.212 83.9476 50.1541C83.9424 50.0699 83.9215 49.9909 83.9162 49.9067C83.8482 49.1591 83.754 48.4274 83.6127 47.7062C83.6127 47.6956 83.6127 47.6904 83.6127 47.6798C83.6074 47.643 83.5917 47.6114 83.5865 47.5745C83.4609 46.9533 83.2986 46.3374 83.1154 45.7373C83.0893 45.653 83.0788 45.5635 83.0526 45.4846C83.0317 45.4161 83.0003 45.3477 82.9741 45.2793C82.7752 44.6738 82.5554 44.079 82.3042 43.5051C82.3042 43.4946 82.2989 43.4894 82.2937 43.4788C82.1053 43.0524 81.9064 42.6365 81.6866 42.2259L65.634 11.8818C65.8538 12.2977 66.0579 12.7294 66.2516 13.161C66.5081 13.7401 66.7226 14.335 66.9215 14.9352C66.9739 15.0878 67.0157 15.2405 67.0629 15.3984C67.246 15.9986 67.4083 16.6092 67.5339 17.2357C67.5444 17.2778 67.5548 17.3252 67.5653 17.3673C67.7066 18.0885 67.8008 18.8256 67.8637 19.5678C67.8741 19.71 67.8898 19.8521 67.9003 19.9943C67.9579 20.826 67.9683 21.6736 67.9317 22.5264C67.9265 22.7002 67.916 22.8739 67.9055 23.0529C67.8794 23.4688 67.8375 23.8952 67.7904 24.3163C67.7694 24.5111 67.7485 24.7006 67.7223 24.8954C67.6386 25.4956 67.5339 26.101 67.4083 26.7117C67.4083 26.7222 67.4083 26.7274 67.4083 26.738C67.2513 27.4592 67.0524 28.1857 66.8326 28.9122C66.7802 29.0964 66.7226 29.2754 66.6598 29.4597C66.4243 30.1914 66.1678 30.9179 65.8643 31.6549V31.6655C65.5607 32.4025 65.21 33.1342 64.8384 33.8713C64.7442 34.0555 64.65 34.2398 64.5558 34.424C64.1685 35.161 63.7602 35.9033 63.3049 36.6403C62.703 37.6143 62.033 38.5566 61.3421 39.4779C61.0438 39.878 60.735 40.2675 60.4209 40.6571C60.2273 40.8993 60.0336 41.1414 59.8347 41.3783C59.4056 41.8837 58.9607 42.3786 58.5053 42.8629C58.364 43.0156 58.2279 43.1735 58.0814 43.3262C57.9557 43.4578 57.8144 43.5788 57.6888 43.7105C57.0398 44.3685 56.3646 45.0108 55.6737 45.632C55.3806 45.8952 55.0771 46.1479 54.7787 46.4058C54.3129 46.8007 53.8418 47.1902 53.3551 47.5693C53.0149 47.8378 52.6694 48.101 52.324 48.3589C51.9 48.6695 51.4709 48.9749 51.0417 49.2749C50.6648 49.5329 50.288 49.7909 49.9059 50.0383C49.4976 50.3015 49.0842 50.5595 48.6654 50.8122C48.2624 51.0543 47.8594 51.2965 47.4512 51.5281C47.0377 51.765 46.619 51.9914 46.2002 52.2125C45.7815 52.4336 45.368 52.6494 44.9441 52.86C44.5097 53.0759 44.07 53.2812 43.6304 53.4812C43.2116 53.6707 42.7929 53.8603 42.3742 54.0392C41.8875 54.2446 41.4007 54.4393 40.9087 54.6289C40.5057 54.7868 40.1027 54.9395 39.6944 55.0869C39.1187 55.2922 38.5377 55.4764 37.9567 55.6607C37.5956 55.7765 37.2292 55.8923 36.8681 55.9976C35.8422 56.2924 34.8111 56.5556 33.78 56.7715C32.9635 56.9452 32.1523 57.0821 31.3358 57.2084C31.0898 57.2453 30.849 57.2716 30.603 57.3084C30.1215 57.3716 29.6347 57.4243 29.1532 57.4716C27.9965 57.5822 26.845 57.6664 25.6988 57.6717C22.6526 57.698 19.664 57.3506 16.822 56.5925C9.96023 54.771 5.02983 50.8648 2.35004 45.8004L18.4026 76.1445C21.0824 81.2089 26.0128 85.1151 32.8798 86.9366C35.7271 87.6947 38.7104 88.0421 41.7566 88.0158C42.9028 88.0053 44.0543 87.9263 45.211 87.8157C45.3523 87.7999 45.4937 87.8052 45.635 87.7894C45.9752 87.7526 46.3206 87.6999 46.6608 87.6525C46.9068 87.621 47.1476 87.5894 47.3884 87.5525C48.1996 87.4314 49.0057 87.2893 49.8169 87.1208H49.8326C50.8689 86.8997 51.9 86.6313 52.9259 86.3417C53.0201 86.3154 53.1143 86.2996 53.2033 86.2733C53.4755 86.1943 53.7424 86.0943 54.0093 86.0101C54.5903 85.8258 55.1713 85.6415 55.7522 85.4362C55.8988 85.3836 56.0506 85.3415 56.1971 85.2888C56.4588 85.1941 56.7153 85.0783 56.9718 84.9782C57.4585 84.7887 57.9453 84.5992 58.432 84.3939C58.6048 84.3202 58.7827 84.257 58.9607 84.1833C59.2067 84.0727 59.4474 83.9517 59.6934 83.8358C60.1331 83.6358 60.5727 83.4305 61.0071 83.2146C61.1903 83.1252 61.3735 83.0462 61.5567 82.9567C61.7975 82.8356 62.0278 82.6987 62.2633 82.5724C62.682 82.3513 63.1007 82.1249 63.5142 81.888C63.6922 81.788 63.8806 81.6932 64.0586 81.5879C64.2836 81.4563 64.5034 81.3037 64.7285 81.1721C65.1472 80.9194 65.5555 80.6614 65.969 80.3982C66.1469 80.2824 66.3301 80.1771 66.508 80.0613C66.7122 79.9244 66.9058 79.7717 67.11 79.6348C67.5444 79.3348 67.9683 79.0347 68.3923 78.7188C68.5755 78.582 68.7691 78.4609 68.9471 78.324C69.1093 78.1977 69.2611 78.0608 69.4234 77.9344C69.9049 77.5554 70.3812 77.1658 70.847 76.771C71.0407 76.6025 71.25 76.4551 71.4437 76.2814C71.5484 76.1919 71.6373 76.0866 71.742 75.9971C72.4329 75.3759 73.1029 74.7389 73.7571 74.0756C73.8618 73.9703 73.9769 73.8756 74.0816 73.7703C74.1078 73.744 74.1287 73.7124 74.1549 73.6861C74.2962 73.5387 74.4323 73.3807 74.5736 73.2281C75.029 72.7385 75.4791 72.2436 75.9083 71.7382C76.1071 71.5013 76.3008 71.2592 76.4945 71.017C76.7248 70.7327 76.9655 70.4537 77.1853 70.1642C77.2691 70.0589 77.3319 69.9431 77.4104 69.8378C78.1013 68.9165 78.766 67.9794 79.3731 67.0002C79.8285 66.2632 80.2367 65.5209 80.6241 64.7839C80.7183 64.5997 80.8177 64.4154 80.9067 64.2312C81.2783 63.4941 81.6238 62.7571 81.9273 62.0254V62.0148C82.2309 61.2831 82.4874 60.5513 82.7281 59.8196C82.7857 59.6353 82.8433 59.4563 82.9008 59.2721C83.1207 58.5456 83.3196 57.8191 83.4766 57.0979C83.4766 57.0979 83.4766 57.0821 83.4766 57.0716C83.6074 56.4609 83.7069 55.8555 83.7959 55.2553C83.822 55.0658 83.843 54.871 83.8639 54.6815L83.8325 54.6499Z" fill="url(#paint0_linear_10_901)"/>
<path d="M42.2747 0.000202276C45.3208 -0.0261198 48.3094 0.321332 51.1567 1.07941C67.3349 5.37517 72.7678 21.2895 63.2838 36.6195C55.459 49.2436 39.9456 57.5403 25.6778 57.6508C22.6316 57.6772 19.643 57.3297 16.8009 56.5716C0.612272 52.2811 -4.82059 36.3668 4.67383 21.0368C12.4882 8.40747 28.0016 0.116019 42.2747 0.000202276Z" fill="url(#paint1_linear_10_901)"/>
</g>
<defs>
<linearGradient id="paint0_linear_10_901" x1="2.3291" y1="49.9383" x2="84" y2="49.9383" gradientUnits="userSpaceOnUse">
<stop stop-color="#8568D4"/>
<stop offset="0.99" stop-color="#DFAB77"/>
</linearGradient>
<linearGradient id="paint1_linear_10_901" x1="-0.000101749" y1="28.8282" x2="67.9578" y2="28.8282" gradientUnits="userSpaceOnUse">
<stop stop-color="#1816EE"/>
<stop offset="0.99" stop-color="#5BC2D6"/>
</linearGradient>
<clipPath id="clip0_10_901">
<rect width="84" height="88" fill="white"/>
</clipPath>
</defs>
</svg>
