<svg width="148" height="163" viewBox="0 0 148 163" fill="none" xmlns="http://www.w3.org/2000/svg">
<g clip-path="url(#clip0_10_831)">
<path d="M105.177 88.316L84.9933 105.348L25.8346 58.5883L46.0135 41.5614L105.177 88.316Z" fill="url(#paint0_linear_10_831)"/>
<path d="M20.1842 145.973L0 163L5.96304 17.0268L26.1473 0L20.1842 145.973Z" fill="url(#paint1_linear_10_831)"/>
<path d="M148 96.324L127.816 113.351L0 163L20.1842 145.973L148 96.324Z" fill="url(#paint2_linear_10_831)"/>
<path d="M26.1472 0L148.005 96.324L20.1842 145.973L26.1472 0ZM43.13 112.42L105.177 88.3214L46.0134 41.5614L43.1247 112.42" fill="url(#paint3_linear_10_831)"/>
<g style="mix-blend-mode:multiply" opacity="0.74">
<path d="M148 96.324L127.816 113.351L0 163L20.1842 145.973L148 96.324Z" fill="url(#paint4_linear_10_831)"/>
</g>
</g>
<defs>
<linearGradient id="paint0_linear_10_831" x1="49.2725" y1="86.9574" x2="81.9921" y2="60.0315" gradientUnits="userSpaceOnUse">
<stop stop-color="#F5C4BE"/>
<stop offset="0.99"/>
</linearGradient>
<linearGradient id="paint1_linear_10_831" x1="-34.4916" y1="120.981" x2="61.0807" y2="42.3318" gradientUnits="userSpaceOnUse">
<stop stop-color="#F5C4BE"/>
<stop offset="0.99"/>
</linearGradient>
<linearGradient id="paint2_linear_10_831" x1="13.7823" y1="179.642" x2="134.745" y2="80.0986" gradientUnits="userSpaceOnUse">
<stop stop-color="#F5C4BE"/>
<stop offset="0.99"/>
</linearGradient>
<linearGradient id="paint3_linear_10_831" x1="-0.453158" y1="120.788" x2="100.12" y2="38.0235" gradientUnits="userSpaceOnUse">
<stop stop-color="#8568D4"/>
<stop offset="0.99" stop-color="#DFAB77"/>
</linearGradient>
<linearGradient id="paint4_linear_10_831" x1="13.7823" y1="179.642" x2="134.745" y2="80.0986" gradientUnits="userSpaceOnUse">
<stop stop-color="#F5C4BE"/>
<stop offset="0.99"/>
</linearGradient>
<clipPath id="clip0_10_831">
<rect width="148" height="163" fill="white"/>
</clipPath>
</defs>
</svg>
