<svg width="57" height="68" viewBox="0 0 57 68" fill="none" xmlns="http://www.w3.org/2000/svg">
<g clip-path="url(#clip0_10_11439)">
<path d="M9.9107 42.9542C10.2216 42.9466 10.5249 42.9314 10.8358 42.9466C11.0102 42.9466 11.1846 42.9769 11.359 42.9845C11.632 43.0072 11.905 43.0148 12.178 43.0528C12.3751 43.0755 12.5799 43.121 12.777 43.1514C13.0272 43.1893 13.2775 43.2272 13.5201 43.2803C14.0282 43.3865 14.5438 43.523 15.0443 43.6823C15.249 43.743 15.4537 43.8188 15.6509 43.8871C15.886 43.9705 16.1286 44.054 16.3637 44.145C16.6139 44.2436 16.8566 44.3498 17.0992 44.456C17.266 44.5318 17.4329 44.6001 17.5921 44.676C17.9333 44.8428 18.267 45.0173 18.6006 45.1993C18.6537 45.2297 18.7143 45.2524 18.7674 45.2828C19.1466 45.4951 19.5181 45.7303 19.8897 45.973C19.9958 46.0413 20.0944 46.1171 20.2006 46.1854C20.4584 46.3598 20.7162 46.5419 20.9589 46.7315C21.0878 46.8301 21.2091 46.9211 21.3304 47.0197C21.5579 47.2018 21.7778 47.3838 21.9901 47.5734C22.119 47.6796 22.2404 47.7934 22.3617 47.9072C22.5664 48.0968 22.7636 48.2864 22.9531 48.4837C23.082 48.6126 23.211 48.7415 23.3399 48.8705C23.4991 49.0449 23.6508 49.2194 23.81 49.4014C23.9692 49.5911 24.1361 49.7731 24.2877 49.9627C24.3939 50.0993 24.5 50.2434 24.5986 50.3799C24.8261 50.6833 25.046 50.9943 25.2507 51.3129C25.3872 51.5253 25.5237 51.7376 25.6526 51.9576C25.7133 52.0638 25.7815 52.17 25.8422 52.2838C26.0469 52.6554 26.2441 53.0271 26.4185 53.4139C26.6232 53.869 26.7976 54.3241 26.9569 54.7717C27.0099 54.9158 27.0403 55.0599 27.0858 55.204C27.1768 55.5074 27.2678 55.8184 27.3284 56.1142C27.3663 56.2811 27.3967 56.4404 27.427 56.6072C27.4801 56.8879 27.518 57.1685 27.5483 57.4492C27.5635 57.6085 27.5862 57.7753 27.5938 57.9346C27.6166 58.3139 27.6317 58.6855 27.6166 59.0496C27.6166 59.0951 27.6166 59.1331 27.609 59.171C27.5938 59.482 27.5559 59.7854 27.5104 60.0888C27.4877 60.2632 27.4573 60.4377 27.4194 60.6122C27.3663 60.87 27.2981 61.1279 27.2298 61.3782C27.1995 61.492 27.1692 61.6134 27.1313 61.7272C27.0099 62.0837 26.8735 62.4326 26.7142 62.7663C26.6915 62.8118 26.6611 62.8573 26.6384 62.9028C26.4716 63.2366 26.2896 63.5627 26.0773 63.8661L55.4455 20.9347C55.5289 20.8134 55.6047 20.6996 55.6806 20.5707C55.8019 20.3734 55.908 20.1687 56.0066 19.9639C56.0294 19.9183 56.0597 19.8728 56.0824 19.8273C56.0824 19.8122 56.0976 19.797 56.1052 19.7894C56.2417 19.5088 56.3554 19.2205 56.4616 18.9247C56.4767 18.8792 56.4843 18.8337 56.4995 18.7958C56.5374 18.682 56.5677 18.5682 56.5981 18.4468C56.6436 18.28 56.7042 18.1131 56.7421 17.9462C56.7649 17.8628 56.7725 17.7642 56.7876 17.6808C56.8256 17.5063 56.8483 17.3318 56.8786 17.1574C56.8938 17.036 56.9241 16.9147 56.9393 16.7857C56.962 16.6037 56.9696 16.4216 56.9772 16.2396C56.9772 16.1941 56.9772 16.1562 56.9848 16.1182C56.9924 15.8452 57 15.5645 56.9848 15.2839C56.9848 15.1929 56.9621 15.0943 56.9621 15.0032C56.9545 14.8439 56.9317 14.6847 56.9166 14.5178C56.8862 14.2371 56.8483 13.9641 56.7952 13.6758C56.7649 13.509 56.7346 13.3497 56.6967 13.1828C56.6284 12.8794 56.545 12.576 56.454 12.2726C56.4085 12.1285 56.3706 11.9844 56.3251 11.8403C56.1734 11.3927 55.999 10.9376 55.7867 10.4825C55.6123 10.0957 55.4152 9.72404 55.2104 9.35237C55.1498 9.24618 55.0815 9.1324 55.0208 9.02621C54.9374 8.88968 54.8692 8.75315 54.7782 8.61662C54.7251 8.53318 54.6645 8.46492 54.6114 8.38148C54.4066 8.06291 54.1867 7.75951 53.9593 7.4561C53.891 7.36508 53.8303 7.25889 53.7545 7.16787C53.7166 7.12236 53.6787 7.08444 53.6408 7.03893C53.4891 6.8493 53.3223 6.65967 53.1631 6.47763C53.0493 6.3411 52.9432 6.20457 52.8218 6.07562C52.7839 6.03011 52.7384 5.99219 52.7005 5.95426C52.5716 5.81773 52.4427 5.69637 52.3138 5.55984C52.1773 5.42331 52.056 5.28678 51.9195 5.15783C51.8588 5.09715 51.7906 5.04406 51.7223 4.98338C51.601 4.8696 51.4721 4.76341 51.3432 4.64963C51.2294 4.55103 51.1233 4.45242 51.0095 4.35382C50.9034 4.2628 50.7896 4.18695 50.6835 4.09593C50.5622 3.99732 50.4332 3.89871 50.3119 3.80769C50.2361 3.7546 50.1679 3.69392 50.092 3.63324C49.9176 3.50429 49.7281 3.38293 49.5536 3.26157C49.4475 3.1933 49.3489 3.11745 49.2428 3.04919C49.2124 3.02643 49.1745 3.00368 49.1442 2.98092C48.8181 2.76854 48.4845 2.56375 48.1432 2.37412H48.1205C48.0674 2.33619 48.0143 2.30585 47.9537 2.27551C47.6579 2.11623 47.3622 1.95694 47.0665 1.80524C47.0286 1.78248 46.9831 1.76731 46.9452 1.75214C46.7859 1.67629 46.6191 1.60803 46.4523 1.53218C46.2627 1.44874 46.0731 1.35772 45.8836 1.27429C45.8305 1.25153 45.7698 1.23636 45.7167 1.21361C45.4817 1.12258 45.239 1.03915 45.004 0.955714C44.8447 0.902618 44.6855 0.834353 44.5262 0.781258C44.4807 0.766087 44.4352 0.758502 44.3973 0.743332C43.8893 0.584046 43.3812 0.447515 42.8732 0.341324H42.8656C42.623 0.288229 42.3727 0.257889 42.1301 0.212379C41.9329 0.182038 41.7282 0.136528 41.531 0.113773C41.2656 0.0834327 41.0078 0.0682626 40.7424 0.0530925C40.5604 0.0379224 40.3709 0.0151672 40.1889 0.00758214C39.9083 -2.91364e-06 39.6277 0.00758214 39.3472 0.0151672C39.1804 0.0151672 39.0135 0.0151672 38.8543 0.0151672C38.4145 0.0455074 37.9747 0.0910177 37.5349 0.159283C34.5624 0.644727 32.2952 2.08589 30.9075 4.11868L1.55444 47.0652C2.9421 45.0325 5.20936 43.5913 8.18182 43.1059C8.61404 43.0376 9.05384 42.9845 9.50123 42.9617C9.63772 42.9542 9.77421 42.9617 9.9107 42.9617V42.9542Z" fill="url(#paint0_linear_10_11439)"/>
<path d="M26.4488 53.4139C29.5654 60.2481 26.4488 66.6954 19.4802 67.8255C12.504 68.9557 4.32977 64.3364 1.21323 57.5023C-1.9033 50.6757 1.21323 44.2284 8.18942 43.0983C15.158 41.9681 23.3399 46.5874 26.4564 53.4139H26.4488Z" fill="url(#paint1_linear_10_11439)"/>
</g>
<defs>
<linearGradient id="paint0_linear_10_11439" x1="25.3266" y1="1.63116" x2="33.4303" y2="62.7549" gradientUnits="userSpaceOnUse">
<stop stop-color="#D288B7"/>
<stop offset="0.99"/>
</linearGradient>
<linearGradient id="paint1_linear_10_11439" x1="20.6226" y1="46.3727" x2="6.89784" y2="64.2862" gradientUnits="userSpaceOnUse">
<stop stop-color="#8083CC"/>
<stop offset="0.99"/>
</linearGradient>
<clipPath id="clip0_10_11439">
<rect width="57" height="68" fill="white"/>
</clipPath>
</defs>
</svg>
